%TF.GenerationSoftware,KiCad,Pcbnew,8.0.1*%
%TF.CreationDate,2025-06-21T23:19:00+05:45*%
%TF.ProjectId,MOBILE,4d4f4249-4c45-42e6-9b69-6361645f7063,rev?*%
%TF.SameCoordinates,Original*%
%TF.FileFunction,Copper,L2,Bot*%
%TF.FilePolarity,Positive*%
%FSLAX46Y46*%
G04 Gerber Fmt 4.6, Leading zero omitted, Abs format (unit mm)*
G04 Created by KiCad (PCBNEW 8.0.1) date 2025-06-21 23:19:00*
%MOMM*%
%LPD*%
G01*
G04 APERTURE LIST*
%TA.AperFunction,EtchedComponent*%
%ADD10C,1.000000*%
%TD*%
%TA.AperFunction,ComponentPad*%
%ADD11C,1.000000*%
%TD*%
%TA.AperFunction,ComponentPad*%
%ADD12R,1.700000X1.700000*%
%TD*%
%TA.AperFunction,ComponentPad*%
%ADD13O,1.700000X1.700000*%
%TD*%
%TA.AperFunction,ComponentPad*%
%ADD14O,1.250000X2.000000*%
%TD*%
%TA.AperFunction,ViaPad*%
%ADD15C,1.500000*%
%TD*%
%TA.AperFunction,Conductor*%
%ADD16C,0.500000*%
%TD*%
%TA.AperFunction,Conductor*%
%ADD17C,0.700000*%
%TD*%
G04 APERTURE END LIST*
D10*
%TO.C,AE1*%
X161040000Y-119230000D02*
X160040000Y-120230000D01*
X161040000Y-121230000D02*
X160040000Y-122230000D01*
X161040000Y-123230000D02*
X160040000Y-124230000D01*
X161040000Y-125230000D02*
X160040000Y-126230000D01*
X161040000Y-127230000D02*
X160040000Y-128230000D01*
X161040000Y-129230000D02*
X160040000Y-130230000D01*
X161040000Y-131230000D02*
X160040000Y-132230000D01*
X161040000Y-133230000D02*
X160040000Y-134230000D01*
X161040000Y-135230000D02*
X160040000Y-136230000D01*
X164040000Y-119230000D02*
X161040000Y-119230000D01*
X164040000Y-121230000D02*
X161040000Y-121230000D01*
X164040000Y-123230000D02*
X161040000Y-123230000D01*
X164040000Y-125230000D02*
X161040000Y-125230000D01*
X164040000Y-127230000D02*
X161040000Y-127230000D01*
X164040000Y-129230000D02*
X161040000Y-129230000D01*
X164040000Y-131230000D02*
X161040000Y-131230000D01*
X164040000Y-133230000D02*
X161040000Y-133230000D01*
X164040000Y-135230000D02*
X161040000Y-135230000D01*
X165040000Y-118230000D02*
X164040000Y-119230000D01*
X165040000Y-120230000D02*
X164040000Y-121230000D01*
X165040000Y-122230000D02*
X164040000Y-123230000D01*
X165040000Y-124230000D02*
X164040000Y-125230000D01*
X165040000Y-126230000D02*
X164040000Y-127230000D01*
X165040000Y-128230000D02*
X164040000Y-129230000D01*
X165040000Y-130230000D02*
X164040000Y-131230000D01*
X165040000Y-132230000D02*
X164040000Y-133230000D01*
X165040000Y-134230000D02*
X164040000Y-135230000D01*
%TD*%
D11*
%TO.P,AE1,*%
%TO.N,*%
X165040000Y-118230000D03*
X165040000Y-120230000D03*
X160040000Y-120230000D03*
X165040000Y-122230000D03*
X160040000Y-122230000D03*
X165040000Y-124230000D03*
X160040000Y-124230000D03*
X165040000Y-126230000D03*
X160040000Y-126230000D03*
X165040000Y-128230000D03*
X160040000Y-128230000D03*
X165040000Y-130230000D03*
X160040000Y-130230000D03*
X165040000Y-132230000D03*
X160040000Y-132230000D03*
X165040000Y-134230000D03*
X160040000Y-134230000D03*
X165040000Y-136230000D03*
X160040000Y-136230000D03*
%TD*%
D12*
%TO.P,J1,1,Pin_1*%
%TO.N,/IO0*%
X93650000Y-117840000D03*
D13*
%TO.P,J1,2,Pin_2*%
%TO.N,/UORXD*%
X93650000Y-115300000D03*
%TO.P,J1,3,Pin_3*%
%TO.N,/UOTXD*%
X93650000Y-112760000D03*
%TO.P,J1,4,Pin_4*%
%TO.N,/EN*%
X93650000Y-110220000D03*
%TO.P,J1,5,Pin_5*%
%TO.N,GND*%
X93650000Y-107680000D03*
%TD*%
D14*
%TO.P,USB1,7,7*%
%TO.N,GND*%
X87685000Y-155197500D03*
%TO.P,USB1,8,8*%
X96325000Y-155197500D03*
%TO.P,USB1,9,9*%
X87685000Y-158947500D03*
%TO.P,USB1,10,10*%
X96325000Y-158947500D03*
%TD*%
D15*
%TO.N,GND*%
X130380000Y-136370000D03*
X57910000Y-116410000D03*
X116570000Y-154550000D03*
X49670000Y-154760000D03*
X124720000Y-140960000D03*
X113520000Y-150490000D03*
%TO.N,/EN*%
X62330000Y-113220000D03*
%TO.N,+3V3*%
X47480000Y-151000000D03*
X65790000Y-157180000D03*
%TO.N,/SDA*%
X89510000Y-138270000D03*
X70620000Y-147770000D03*
%TO.N,/SCL*%
X72460000Y-140930000D03*
X86640000Y-108910000D03*
%TO.N,/LCD_RST*%
X62200000Y-117270000D03*
X65290000Y-144100000D03*
%TO.N,/IO0*%
X84610000Y-126350000D03*
%TO.N,/SIM_DATA*%
X127510000Y-140520000D03*
X137850000Y-141400000D03*
%TO.N,/SIM_VDD*%
X132790000Y-140830000D03*
X141660000Y-140110000D03*
%TO.N,/UART2_TX*%
X146420000Y-138300000D03*
X82510000Y-128260000D03*
%TO.N,/UART2_RX*%
X143330000Y-137070000D03*
X86430000Y-123200000D03*
%TO.N,/VCC*%
X119270000Y-159240000D03*
X54610000Y-130710000D03*
%TO.N,/IO17*%
X86400000Y-120620000D03*
X118800000Y-117850000D03*
%TD*%
D16*
%TO.N,/EN*%
X91040000Y-110220000D02*
X93650000Y-110220000D01*
X68620000Y-106930000D02*
X87750000Y-106930000D01*
X62330000Y-113220000D02*
X68620000Y-106930000D01*
X87750000Y-106930000D02*
X91040000Y-110220000D01*
%TO.N,+3V3*%
X62770000Y-154160000D02*
X51880000Y-154160000D01*
X48720000Y-151000000D02*
X47480000Y-151000000D01*
X51880000Y-154160000D02*
X48720000Y-151000000D01*
X65790000Y-157180000D02*
X62770000Y-154160000D01*
%TO.N,/SDA*%
X80120000Y-138270000D02*
X89510000Y-138270000D01*
X70620000Y-147770000D02*
X80120000Y-138270000D01*
%TO.N,/SCL*%
X72460000Y-128710000D02*
X72460000Y-140930000D01*
X86640000Y-108910000D02*
X87890000Y-110160000D01*
X87890000Y-113280000D02*
X72460000Y-128710000D01*
X87890000Y-110160000D02*
X87890000Y-113280000D01*
%TO.N,/LCD_RST*%
X62340000Y-129600000D02*
X65290000Y-132550000D01*
X62340000Y-117410000D02*
X62340000Y-129600000D01*
X65290000Y-132550000D02*
X65290000Y-144100000D01*
X62200000Y-117270000D02*
X62340000Y-117410000D01*
%TO.N,/IO0*%
X84570000Y-120531522D02*
X84570000Y-119640000D01*
X84570000Y-119640000D02*
X86370000Y-117840000D01*
X84610000Y-120571522D02*
X84570000Y-120531522D01*
X86370000Y-117840000D02*
X93650000Y-117840000D01*
X84610000Y-126350000D02*
X84610000Y-120571522D01*
%TO.N,/SIM_DATA*%
X127510000Y-140520000D02*
X129840000Y-142850000D01*
X133690000Y-142850000D02*
X135140000Y-141400000D01*
X135140000Y-141400000D02*
X137850000Y-141400000D01*
X129840000Y-142850000D02*
X133690000Y-142850000D01*
%TO.N,/SIM_VDD*%
X141360000Y-139810000D02*
X133810000Y-139810000D01*
X132860000Y-140900000D02*
X132790000Y-140830000D01*
X141660000Y-140110000D02*
X141360000Y-139810000D01*
X133810000Y-139810000D02*
X132790000Y-140830000D01*
X132790000Y-140830000D02*
X133320000Y-140830000D01*
X132860000Y-142150000D02*
X132860000Y-140900000D01*
%TO.N,/UART2_TX*%
X97940000Y-142800000D02*
X98950000Y-143810000D01*
X98950000Y-143810000D02*
X143660000Y-143810000D01*
X143660000Y-143810000D02*
X146420000Y-141050000D01*
X82670000Y-128260000D02*
X97210000Y-142800000D01*
X146420000Y-141050000D02*
X146420000Y-138300000D01*
X82510000Y-128260000D02*
X82670000Y-128260000D01*
X97210000Y-142800000D02*
X97940000Y-142800000D01*
%TO.N,/UART2_RX*%
X100970000Y-137740000D02*
X86430000Y-123200000D01*
X142660000Y-137740000D02*
X100970000Y-137740000D01*
X143330000Y-137070000D02*
X142660000Y-137740000D01*
D17*
%TO.N,/VCC*%
X54610000Y-136790000D02*
X54610000Y-130710000D01*
X117180000Y-161330000D02*
X79150000Y-161330000D01*
X79150000Y-161330000D02*
X54610000Y-136790000D01*
X119270000Y-159240000D02*
X117180000Y-161330000D01*
D16*
%TO.N,/IO17*%
X116030000Y-120620000D02*
X118800000Y-117850000D01*
X86400000Y-120620000D02*
X116030000Y-120620000D01*
%TD*%
%TA.AperFunction,Conductor*%
%TO.N,GND*%
G36*
X152863860Y-105180185D02*
G01*
X152909161Y-105232005D01*
X153217851Y-105892603D01*
X153228398Y-105961672D01*
X153225506Y-105969664D01*
X153919456Y-107565749D01*
X153929733Y-107616442D01*
X153640077Y-136322282D01*
X153638965Y-136337647D01*
X149997533Y-163266622D01*
X149969042Y-163330420D01*
X149910583Y-163368686D01*
X149876347Y-163373994D01*
X71268090Y-164449488D01*
X71266394Y-164449500D01*
X39684500Y-164449500D01*
X39617461Y-164429815D01*
X39571706Y-164377011D01*
X39560500Y-164325500D01*
X39560500Y-151000002D01*
X46224723Y-151000002D01*
X46243793Y-151217975D01*
X46243793Y-151217979D01*
X46300422Y-151429322D01*
X46300424Y-151429326D01*
X46300425Y-151429330D01*
X46346661Y-151528484D01*
X46392897Y-151627638D01*
X46392898Y-151627639D01*
X46518402Y-151806877D01*
X46673123Y-151961598D01*
X46852361Y-152087102D01*
X47050670Y-152179575D01*
X47262023Y-152236207D01*
X47444926Y-152252208D01*
X47479998Y-152255277D01*
X47480000Y-152255277D01*
X47480002Y-152255277D01*
X47508254Y-152252805D01*
X47697977Y-152236207D01*
X47909330Y-152179575D01*
X47917842Y-152175605D01*
X47938679Y-152168880D01*
X47938483Y-152168149D01*
X47942757Y-152167003D01*
X47942761Y-152167003D01*
X48525282Y-151965385D01*
X48595069Y-151962061D01*
X48653517Y-151994885D01*
X51401586Y-154742954D01*
X51431058Y-154762645D01*
X51475270Y-154792186D01*
X51524505Y-154825084D01*
X51524506Y-154825084D01*
X51524507Y-154825085D01*
X51524509Y-154825086D01*
X51661082Y-154881656D01*
X51661087Y-154881658D01*
X51661091Y-154881658D01*
X51661092Y-154881659D01*
X51806079Y-154910500D01*
X51806082Y-154910500D01*
X51806083Y-154910500D01*
X51953918Y-154910500D01*
X62407770Y-154910500D01*
X62474809Y-154930185D01*
X62495451Y-154946819D01*
X64110249Y-156561617D01*
X64135004Y-156597009D01*
X64634004Y-157670011D01*
X64653807Y-157708244D01*
X64656915Y-157713086D01*
X64656519Y-157713339D01*
X64666582Y-157729759D01*
X64702898Y-157807639D01*
X64828402Y-157986877D01*
X64983123Y-158141598D01*
X65162361Y-158267102D01*
X65360670Y-158359575D01*
X65572023Y-158416207D01*
X65754926Y-158432208D01*
X65789998Y-158435277D01*
X65790000Y-158435277D01*
X65790002Y-158435277D01*
X65818254Y-158432805D01*
X66007977Y-158416207D01*
X66219330Y-158359575D01*
X66417639Y-158267102D01*
X66596877Y-158141598D01*
X66751598Y-157986877D01*
X66877102Y-157807639D01*
X66969575Y-157609330D01*
X67026207Y-157397977D01*
X67045277Y-157180000D01*
X67026207Y-156962023D01*
X66969575Y-156750670D01*
X66877102Y-156552362D01*
X66877100Y-156552359D01*
X66877099Y-156552357D01*
X66751599Y-156373124D01*
X66683864Y-156305389D01*
X66596877Y-156218402D01*
X66417639Y-156092898D01*
X66417638Y-156092897D01*
X66417636Y-156092896D01*
X66313332Y-156044258D01*
X66297984Y-156035729D01*
X66280019Y-156024008D01*
X65207009Y-155525004D01*
X65171617Y-155500249D01*
X63248421Y-153577052D01*
X63248414Y-153577046D01*
X63174729Y-153527812D01*
X63174729Y-153527813D01*
X63125491Y-153494913D01*
X62988917Y-153438343D01*
X62988907Y-153438340D01*
X62843920Y-153409500D01*
X62843918Y-153409500D01*
X52242230Y-153409500D01*
X52175191Y-153389815D01*
X52154549Y-153373181D01*
X49428102Y-150646734D01*
X49424385Y-150642853D01*
X49420460Y-150638572D01*
X49417993Y-150636362D01*
X49413056Y-150631688D01*
X49198421Y-150417052D01*
X49198414Y-150417046D01*
X49119831Y-150364539D01*
X49119732Y-150364474D01*
X49075495Y-150334916D01*
X49075494Y-150334915D01*
X49075492Y-150334914D01*
X48938917Y-150278343D01*
X48938907Y-150278340D01*
X48793920Y-150249500D01*
X48793918Y-150249500D01*
X48764832Y-150249500D01*
X48706519Y-150234933D01*
X48131677Y-149928617D01*
X48118868Y-149920760D01*
X48107641Y-149912899D01*
X48066892Y-149893897D01*
X48060985Y-149890948D01*
X48016100Y-149867030D01*
X47994438Y-149856146D01*
X47993444Y-149855676D01*
X47993441Y-149855675D01*
X47993438Y-149855673D01*
X47993432Y-149855671D01*
X47950918Y-149839463D01*
X47942695Y-149835983D01*
X47927556Y-149828924D01*
X47909330Y-149820425D01*
X47909326Y-149820424D01*
X47909322Y-149820422D01*
X47697977Y-149763793D01*
X47480002Y-149744723D01*
X47479998Y-149744723D01*
X47334682Y-149757436D01*
X47262023Y-149763793D01*
X47262020Y-149763793D01*
X47050677Y-149820422D01*
X47050668Y-149820426D01*
X46852361Y-149912898D01*
X46852357Y-149912900D01*
X46673121Y-150038402D01*
X46518402Y-150193121D01*
X46392900Y-150372357D01*
X46392898Y-150372361D01*
X46300426Y-150570668D01*
X46300422Y-150570677D01*
X46243793Y-150782020D01*
X46243793Y-150782024D01*
X46224723Y-150999997D01*
X46224723Y-151000002D01*
X39560500Y-151000002D01*
X39560500Y-130710002D01*
X53354723Y-130710002D01*
X53373793Y-130927975D01*
X53373793Y-130927979D01*
X53430422Y-131139322D01*
X53432275Y-131144411D01*
X53432274Y-131144411D01*
X53437170Y-131157579D01*
X53754824Y-132281225D01*
X53759500Y-132314958D01*
X53759500Y-136873771D01*
X53792181Y-137038073D01*
X53792184Y-137038082D01*
X53856296Y-137192863D01*
X53856297Y-137192866D01*
X53949372Y-137332161D01*
X53949375Y-137332165D01*
X78607834Y-161990624D01*
X78607838Y-161990627D01*
X78747137Y-162083704D01*
X78747139Y-162083705D01*
X78747143Y-162083707D01*
X78829222Y-162117703D01*
X78856584Y-162129037D01*
X78901918Y-162147816D01*
X79066228Y-162180499D01*
X79066232Y-162180500D01*
X79066233Y-162180500D01*
X117263768Y-162180500D01*
X117263769Y-162180499D01*
X117318538Y-162169605D01*
X117428074Y-162147818D01*
X117428078Y-162147816D01*
X117428082Y-162147816D01*
X117473415Y-162129037D01*
X117582863Y-162083704D01*
X117722162Y-161990627D01*
X118736520Y-160976266D01*
X118763671Y-160955726D01*
X119794669Y-160379181D01*
X119815519Y-160366856D01*
X119815519Y-160366855D01*
X119819977Y-160364221D01*
X119820177Y-160364560D01*
X119831710Y-160357844D01*
X119897639Y-160327102D01*
X120076877Y-160201598D01*
X120231598Y-160046877D01*
X120357102Y-159867639D01*
X120449575Y-159669330D01*
X120506207Y-159457977D01*
X120525277Y-159240000D01*
X120506207Y-159022023D01*
X120449575Y-158810670D01*
X120357102Y-158612362D01*
X120357100Y-158612359D01*
X120357099Y-158612357D01*
X120231599Y-158433124D01*
X120155903Y-158357428D01*
X120076877Y-158278402D01*
X119897639Y-158152898D01*
X119897640Y-158152898D01*
X119897638Y-158152897D01*
X119798484Y-158106661D01*
X119699330Y-158060425D01*
X119699326Y-158060424D01*
X119699322Y-158060422D01*
X119487977Y-158003793D01*
X119270002Y-157984723D01*
X119269998Y-157984723D01*
X119124682Y-157997436D01*
X119052023Y-158003793D01*
X119052020Y-158003793D01*
X118840677Y-158060422D01*
X118840668Y-158060426D01*
X118642361Y-158152898D01*
X118642357Y-158152900D01*
X118463121Y-158278402D01*
X118308402Y-158433121D01*
X118182899Y-158612359D01*
X118146929Y-158689496D01*
X118133061Y-158712396D01*
X118130819Y-158715327D01*
X117554272Y-159746325D01*
X117533726Y-159773484D01*
X116864030Y-160443181D01*
X116802707Y-160476666D01*
X116776349Y-160479500D01*
X97028124Y-160479500D01*
X96961085Y-160459815D01*
X96915330Y-160407011D01*
X96905386Y-160337853D01*
X96934411Y-160274297D01*
X96955238Y-160255182D01*
X97057889Y-160180600D01*
X97183100Y-160055389D01*
X97287186Y-159912129D01*
X97367578Y-159754350D01*
X97367580Y-159754347D01*
X97422298Y-159585939D01*
X97450000Y-159411044D01*
X97450000Y-159197500D01*
X96625000Y-159197500D01*
X96625000Y-158697500D01*
X97450000Y-158697500D01*
X97450000Y-158483955D01*
X97422298Y-158309060D01*
X97367580Y-158140652D01*
X97367578Y-158140649D01*
X97287186Y-157982870D01*
X97183100Y-157839610D01*
X97057889Y-157714399D01*
X96914629Y-157610313D01*
X96756850Y-157529921D01*
X96756847Y-157529919D01*
X96588441Y-157475202D01*
X96588433Y-157475200D01*
X96575000Y-157473071D01*
X96575000Y-158430499D01*
X96565060Y-158413283D01*
X96509205Y-158357428D01*
X96440796Y-158317932D01*
X96364496Y-158297488D01*
X96285504Y-158297488D01*
X96209204Y-158317932D01*
X96140795Y-158357428D01*
X96084940Y-158413283D01*
X96075000Y-158430499D01*
X96075000Y-157473071D01*
X96061566Y-157475200D01*
X96061558Y-157475202D01*
X95893152Y-157529919D01*
X95893149Y-157529921D01*
X95735370Y-157610313D01*
X95592110Y-157714399D01*
X95466899Y-157839610D01*
X95362813Y-157982870D01*
X95282421Y-158140649D01*
X95282419Y-158140652D01*
X95227701Y-158309060D01*
X95200000Y-158483955D01*
X95200000Y-158697500D01*
X96025000Y-158697500D01*
X96025000Y-159197500D01*
X95200000Y-159197500D01*
X95200000Y-159411044D01*
X95227701Y-159585939D01*
X95282419Y-159754347D01*
X95282421Y-159754350D01*
X95362813Y-159912129D01*
X95466899Y-160055389D01*
X95592110Y-160180600D01*
X95694762Y-160255182D01*
X95737427Y-160310513D01*
X95743406Y-160380126D01*
X95710800Y-160441921D01*
X95649961Y-160476278D01*
X95621876Y-160479500D01*
X88388124Y-160479500D01*
X88321085Y-160459815D01*
X88275330Y-160407011D01*
X88265386Y-160337853D01*
X88294411Y-160274297D01*
X88315238Y-160255182D01*
X88417889Y-160180600D01*
X88543100Y-160055389D01*
X88647186Y-159912129D01*
X88727578Y-159754350D01*
X88727580Y-159754347D01*
X88782298Y-159585939D01*
X88810000Y-159411044D01*
X88810000Y-159197500D01*
X87985000Y-159197500D01*
X87985000Y-158697500D01*
X88810000Y-158697500D01*
X88810000Y-158483955D01*
X88782298Y-158309060D01*
X88727580Y-158140652D01*
X88727578Y-158140649D01*
X88647186Y-157982870D01*
X88543100Y-157839610D01*
X88417889Y-157714399D01*
X88274629Y-157610313D01*
X88116850Y-157529921D01*
X88116847Y-157529919D01*
X87948441Y-157475202D01*
X87948433Y-157475200D01*
X87935000Y-157473071D01*
X87935000Y-158430499D01*
X87925060Y-158413283D01*
X87869205Y-158357428D01*
X87800796Y-158317932D01*
X87724496Y-158297488D01*
X87645504Y-158297488D01*
X87569204Y-158317932D01*
X87500795Y-158357428D01*
X87444940Y-158413283D01*
X87435000Y-158430499D01*
X87435000Y-157473071D01*
X87421566Y-157475200D01*
X87421558Y-157475202D01*
X87253152Y-157529919D01*
X87253149Y-157529921D01*
X87095370Y-157610313D01*
X86952110Y-157714399D01*
X86826899Y-157839610D01*
X86722813Y-157982870D01*
X86642421Y-158140649D01*
X86642419Y-158140652D01*
X86587701Y-158309060D01*
X86560000Y-158483955D01*
X86560000Y-158697500D01*
X87385000Y-158697500D01*
X87385000Y-159197500D01*
X86560000Y-159197500D01*
X86560000Y-159411044D01*
X86587701Y-159585939D01*
X86642419Y-159754347D01*
X86642421Y-159754350D01*
X86722813Y-159912129D01*
X86826899Y-160055389D01*
X86952110Y-160180600D01*
X87054762Y-160255182D01*
X87097427Y-160310513D01*
X87103406Y-160380126D01*
X87070800Y-160441921D01*
X87009961Y-160476278D01*
X86981876Y-160479500D01*
X79553651Y-160479500D01*
X79486612Y-160459815D01*
X79465970Y-160443181D01*
X74683833Y-155661044D01*
X86560000Y-155661044D01*
X86587701Y-155835939D01*
X86642419Y-156004347D01*
X86642421Y-156004350D01*
X86722813Y-156162129D01*
X86826899Y-156305389D01*
X86952110Y-156430600D01*
X87095370Y-156534686D01*
X87253149Y-156615078D01*
X87253152Y-156615080D01*
X87421553Y-156669796D01*
X87421566Y-156669799D01*
X87435000Y-156671927D01*
X87435000Y-155714500D01*
X87444940Y-155731717D01*
X87500795Y-155787572D01*
X87569204Y-155827068D01*
X87645504Y-155847512D01*
X87724496Y-155847512D01*
X87800796Y-155827068D01*
X87869205Y-155787572D01*
X87925060Y-155731717D01*
X87935000Y-155714500D01*
X87935000Y-156671926D01*
X87948433Y-156669799D01*
X87948446Y-156669796D01*
X88116847Y-156615080D01*
X88116850Y-156615078D01*
X88274629Y-156534686D01*
X88417889Y-156430600D01*
X88543100Y-156305389D01*
X88647186Y-156162129D01*
X88727578Y-156004350D01*
X88727580Y-156004347D01*
X88782298Y-155835939D01*
X88810000Y-155661044D01*
X95200000Y-155661044D01*
X95227701Y-155835939D01*
X95282419Y-156004347D01*
X95282421Y-156004350D01*
X95362813Y-156162129D01*
X95466899Y-156305389D01*
X95592110Y-156430600D01*
X95735370Y-156534686D01*
X95893149Y-156615078D01*
X95893152Y-156615080D01*
X96061553Y-156669796D01*
X96061566Y-156669799D01*
X96075000Y-156671927D01*
X96075000Y-155714500D01*
X96084940Y-155731717D01*
X96140795Y-155787572D01*
X96209204Y-155827068D01*
X96285504Y-155847512D01*
X96364496Y-155847512D01*
X96440796Y-155827068D01*
X96509205Y-155787572D01*
X96565060Y-155731717D01*
X96575000Y-155714500D01*
X96575000Y-156671926D01*
X96588433Y-156669799D01*
X96588446Y-156669796D01*
X96756847Y-156615080D01*
X96756850Y-156615078D01*
X96914629Y-156534686D01*
X97057889Y-156430600D01*
X97183100Y-156305389D01*
X97287186Y-156162129D01*
X97367578Y-156004350D01*
X97367580Y-156004347D01*
X97422298Y-155835939D01*
X97450000Y-155661044D01*
X97450000Y-155447500D01*
X96625000Y-155447500D01*
X96625000Y-154947500D01*
X97450000Y-154947500D01*
X97450000Y-154733955D01*
X97422298Y-154559060D01*
X97367580Y-154390652D01*
X97367578Y-154390649D01*
X97287186Y-154232870D01*
X97183100Y-154089610D01*
X97057889Y-153964399D01*
X96914629Y-153860313D01*
X96756850Y-153779921D01*
X96756847Y-153779919D01*
X96588441Y-153725202D01*
X96588433Y-153725200D01*
X96575000Y-153723071D01*
X96575000Y-154680499D01*
X96565060Y-154663283D01*
X96509205Y-154607428D01*
X96440796Y-154567932D01*
X96364496Y-154547488D01*
X96285504Y-154547488D01*
X96209204Y-154567932D01*
X96140795Y-154607428D01*
X96084940Y-154663283D01*
X96075000Y-154680499D01*
X96075000Y-153723071D01*
X96061566Y-153725200D01*
X96061558Y-153725202D01*
X95893152Y-153779919D01*
X95893149Y-153779921D01*
X95735370Y-153860313D01*
X95592110Y-153964399D01*
X95466899Y-154089610D01*
X95362813Y-154232870D01*
X95282421Y-154390649D01*
X95282419Y-154390652D01*
X95227701Y-154559060D01*
X95200000Y-154733955D01*
X95200000Y-154947500D01*
X96025000Y-154947500D01*
X96025000Y-155447500D01*
X95200000Y-155447500D01*
X95200000Y-155661044D01*
X88810000Y-155661044D01*
X88810000Y-155447500D01*
X87985000Y-155447500D01*
X87985000Y-154947500D01*
X88810000Y-154947500D01*
X88810000Y-154733955D01*
X88782298Y-154559060D01*
X88727580Y-154390652D01*
X88727578Y-154390649D01*
X88647186Y-154232870D01*
X88543100Y-154089610D01*
X88417889Y-153964399D01*
X88274629Y-153860313D01*
X88116850Y-153779921D01*
X88116847Y-153779919D01*
X87948441Y-153725202D01*
X87948433Y-153725200D01*
X87935000Y-153723071D01*
X87935000Y-154680499D01*
X87925060Y-154663283D01*
X87869205Y-154607428D01*
X87800796Y-154567932D01*
X87724496Y-154547488D01*
X87645504Y-154547488D01*
X87569204Y-154567932D01*
X87500795Y-154607428D01*
X87444940Y-154663283D01*
X87435000Y-154680499D01*
X87435000Y-153723071D01*
X87421566Y-153725200D01*
X87421558Y-153725202D01*
X87253152Y-153779919D01*
X87253149Y-153779921D01*
X87095370Y-153860313D01*
X86952110Y-153964399D01*
X86826899Y-154089610D01*
X86722813Y-154232870D01*
X86642421Y-154390649D01*
X86642419Y-154390652D01*
X86587701Y-154559060D01*
X86560000Y-154733955D01*
X86560000Y-154947500D01*
X87385000Y-154947500D01*
X87385000Y-155447500D01*
X86560000Y-155447500D01*
X86560000Y-155661044D01*
X74683833Y-155661044D01*
X66792791Y-147770002D01*
X69364723Y-147770002D01*
X69383793Y-147987975D01*
X69383793Y-147987979D01*
X69440422Y-148199322D01*
X69440424Y-148199326D01*
X69440425Y-148199330D01*
X69480535Y-148285347D01*
X69532897Y-148397638D01*
X69557998Y-148433486D01*
X69658402Y-148576877D01*
X69813123Y-148731598D01*
X69992361Y-148857102D01*
X70190670Y-148949575D01*
X70402023Y-149006207D01*
X70584926Y-149022208D01*
X70619998Y-149025277D01*
X70620000Y-149025277D01*
X70620002Y-149025277D01*
X70648254Y-149022805D01*
X70837977Y-149006207D01*
X71049330Y-148949575D01*
X71247639Y-148857102D01*
X71426877Y-148731598D01*
X71581598Y-148576877D01*
X71707102Y-148397639D01*
X71755749Y-148293311D01*
X71764274Y-148277974D01*
X71775990Y-148260019D01*
X71775991Y-148260015D01*
X71775993Y-148260014D01*
X72203530Y-147340677D01*
X72274993Y-147187009D01*
X72299744Y-147151622D01*
X80394549Y-139056819D01*
X80455872Y-139023334D01*
X80482230Y-139020500D01*
X87884975Y-139020500D01*
X87927506Y-139028022D01*
X89039085Y-139433904D01*
X89056505Y-139439437D01*
X89071352Y-139445230D01*
X89080670Y-139449575D01*
X89292023Y-139506207D01*
X89474926Y-139522208D01*
X89509998Y-139525277D01*
X89510000Y-139525277D01*
X89510002Y-139525277D01*
X89538254Y-139522805D01*
X89727977Y-139506207D01*
X89939330Y-139449575D01*
X90137639Y-139357102D01*
X90316877Y-139231598D01*
X90471598Y-139076877D01*
X90597102Y-138897639D01*
X90689575Y-138699330D01*
X90746207Y-138487977D01*
X90765277Y-138270000D01*
X90746207Y-138052023D01*
X90697615Y-137870677D01*
X90689577Y-137840677D01*
X90689576Y-137840676D01*
X90689575Y-137840670D01*
X90597102Y-137642362D01*
X90597100Y-137642359D01*
X90597099Y-137642357D01*
X90490056Y-137489483D01*
X90467729Y-137423277D01*
X90484739Y-137355510D01*
X90535687Y-137307697D01*
X90604397Y-137295019D01*
X90669054Y-137321501D01*
X90679307Y-137330675D01*
X96627049Y-143278416D01*
X96731584Y-143382951D01*
X96731585Y-143382952D01*
X96854498Y-143465080D01*
X96854511Y-143465087D01*
X96991082Y-143521656D01*
X96991087Y-143521658D01*
X96991091Y-143521658D01*
X96991092Y-143521659D01*
X97136079Y-143550500D01*
X97136082Y-143550500D01*
X97577770Y-143550500D01*
X97644809Y-143570185D01*
X97665451Y-143586819D01*
X98471586Y-144392954D01*
X98501058Y-144412645D01*
X98545268Y-144442184D01*
X98545270Y-144442187D01*
X98545271Y-144442187D01*
X98594496Y-144475079D01*
X98594511Y-144475087D01*
X98651079Y-144498518D01*
X98651080Y-144498518D01*
X98731088Y-144531659D01*
X98847241Y-144554763D01*
X98866468Y-144558587D01*
X98876081Y-144560500D01*
X98876082Y-144560500D01*
X143733920Y-144560500D01*
X143831462Y-144541096D01*
X143878913Y-144531658D01*
X144015495Y-144475084D01*
X144064729Y-144442186D01*
X144064734Y-144442183D01*
X144089071Y-144425921D01*
X144138416Y-144392952D01*
X147002951Y-141528416D01*
X147085084Y-141405495D01*
X147141658Y-141268913D01*
X147146681Y-141243661D01*
X147147360Y-141240249D01*
X147147360Y-141240248D01*
X147170500Y-141123920D01*
X147170500Y-139925026D01*
X147178022Y-139882495D01*
X147228995Y-139742898D01*
X147583905Y-138770913D01*
X147589432Y-138753507D01*
X147595227Y-138738650D01*
X147599575Y-138729330D01*
X147656207Y-138517977D01*
X147675277Y-138300000D01*
X147656207Y-138082023D01*
X147599575Y-137870670D01*
X147507102Y-137672362D01*
X147507100Y-137672359D01*
X147507099Y-137672357D01*
X147381599Y-137493124D01*
X147311752Y-137423277D01*
X147226877Y-137338402D01*
X147047639Y-137212898D01*
X147047640Y-137212898D01*
X147047638Y-137212897D01*
X146938516Y-137162013D01*
X146849330Y-137120425D01*
X146849326Y-137120424D01*
X146849322Y-137120422D01*
X146637977Y-137063793D01*
X146420002Y-137044723D01*
X146419998Y-137044723D01*
X146274682Y-137057436D01*
X146202023Y-137063793D01*
X146202020Y-137063793D01*
X145990677Y-137120422D01*
X145990668Y-137120426D01*
X145792361Y-137212898D01*
X145792357Y-137212900D01*
X145613121Y-137338402D01*
X145458402Y-137493121D01*
X145332900Y-137672357D01*
X145332898Y-137672361D01*
X145240426Y-137870668D01*
X145240422Y-137870677D01*
X145183793Y-138082020D01*
X145183793Y-138082024D01*
X145164723Y-138299997D01*
X145164723Y-138300002D01*
X145173916Y-138405080D01*
X145181168Y-138487977D01*
X145183793Y-138517975D01*
X145183793Y-138517979D01*
X145240424Y-138729328D01*
X145247012Y-138743458D01*
X145254760Y-138766691D01*
X145254877Y-138766658D01*
X145255649Y-138769358D01*
X145255968Y-138770313D01*
X145256093Y-138770910D01*
X145661978Y-139882495D01*
X145669500Y-139925026D01*
X145669500Y-140687770D01*
X145649815Y-140754809D01*
X145633181Y-140775451D01*
X143385451Y-143023181D01*
X143324128Y-143056666D01*
X143297770Y-143059500D01*
X134841230Y-143059500D01*
X134774191Y-143039815D01*
X134728436Y-142987011D01*
X134718492Y-142917853D01*
X134747517Y-142854297D01*
X134753549Y-142847819D01*
X135414548Y-142186819D01*
X135475871Y-142153334D01*
X135502229Y-142150500D01*
X136784376Y-142150500D01*
X136851415Y-142170185D01*
X136885949Y-142203374D01*
X136888402Y-142206877D01*
X137043123Y-142361598D01*
X137222361Y-142487102D01*
X137420670Y-142579575D01*
X137632023Y-142636207D01*
X137814926Y-142652208D01*
X137849998Y-142655277D01*
X137850000Y-142655277D01*
X137850002Y-142655277D01*
X137878254Y-142652805D01*
X138067977Y-142636207D01*
X138279330Y-142579575D01*
X138477639Y-142487102D01*
X138656877Y-142361598D01*
X138811598Y-142206877D01*
X138937102Y-142027639D01*
X139029575Y-141829330D01*
X139086207Y-141617977D01*
X139105277Y-141400000D01*
X139086207Y-141182023D01*
X139029575Y-140970670D01*
X138937102Y-140772362D01*
X138937100Y-140772359D01*
X138925381Y-140755622D01*
X138903054Y-140689415D01*
X138920066Y-140621648D01*
X138971015Y-140573836D01*
X139026957Y-140560500D01*
X140032022Y-140560500D01*
X140099061Y-140580185D01*
X140099403Y-140580405D01*
X140821442Y-141047979D01*
X140833310Y-141055664D01*
X140848865Y-141068244D01*
X140848973Y-141068116D01*
X140853113Y-141071589D01*
X140853116Y-141071591D01*
X140853123Y-141071598D01*
X141032361Y-141197102D01*
X141057920Y-141209020D01*
X141104213Y-141230607D01*
X141114433Y-141235964D01*
X141125901Y-141242676D01*
X141127770Y-141243659D01*
X141159041Y-141256348D01*
X141164754Y-141258837D01*
X141230670Y-141289575D01*
X141442023Y-141346207D01*
X141624926Y-141362208D01*
X141659998Y-141365277D01*
X141660000Y-141365277D01*
X141660002Y-141365277D01*
X141688254Y-141362805D01*
X141877977Y-141346207D01*
X142089330Y-141289575D01*
X142287639Y-141197102D01*
X142466877Y-141071598D01*
X142621598Y-140916877D01*
X142747102Y-140737639D01*
X142839575Y-140539330D01*
X142896207Y-140327977D01*
X142915277Y-140110000D01*
X142896207Y-139892023D01*
X142842827Y-139692805D01*
X142839577Y-139680677D01*
X142839576Y-139680676D01*
X142839575Y-139680670D01*
X142747102Y-139482362D01*
X142747100Y-139482359D01*
X142747099Y-139482357D01*
X142621599Y-139303124D01*
X142545523Y-139227048D01*
X142466877Y-139148402D01*
X142287639Y-139022898D01*
X142287640Y-139022898D01*
X142287638Y-139022897D01*
X142188484Y-138976661D01*
X142089330Y-138930425D01*
X142089326Y-138930424D01*
X142089322Y-138930422D01*
X141877977Y-138873793D01*
X141660002Y-138854723D01*
X141659996Y-138854723D01*
X141591217Y-138860739D01*
X141579912Y-138861210D01*
X141576892Y-138861197D01*
X141576887Y-138861198D01*
X141564693Y-138862897D01*
X141558392Y-138863611D01*
X141474996Y-138870908D01*
X141442023Y-138873793D01*
X141423288Y-138878812D01*
X141401069Y-138884765D01*
X141386108Y-138887800D01*
X140166026Y-139057939D01*
X140165948Y-139057951D01*
X140165869Y-139057964D01*
X140165822Y-139057967D01*
X140164868Y-139058101D01*
X140164860Y-139058043D01*
X140146414Y-139059500D01*
X133736080Y-139059500D01*
X133591092Y-139088340D01*
X133591082Y-139088343D01*
X133454509Y-139144913D01*
X133423156Y-139165863D01*
X133331580Y-139227050D01*
X133330042Y-139228589D01*
X133328166Y-139229851D01*
X133326870Y-139230916D01*
X133326769Y-139230793D01*
X133290669Y-139255106D01*
X132316744Y-139667006D01*
X132270032Y-139689659D01*
X132270018Y-139689667D01*
X132269871Y-139689779D01*
X132267846Y-139690995D01*
X132264885Y-139692805D01*
X132264871Y-139692782D01*
X132247670Y-139703116D01*
X132162367Y-139742894D01*
X132162360Y-139742898D01*
X131983121Y-139868402D01*
X131828402Y-140023121D01*
X131702900Y-140202357D01*
X131702898Y-140202361D01*
X131610426Y-140400668D01*
X131610422Y-140400677D01*
X131553793Y-140612020D01*
X131553793Y-140612023D01*
X131550514Y-140649500D01*
X131534723Y-140829997D01*
X131534723Y-140830002D01*
X131553793Y-141047975D01*
X131553793Y-141047979D01*
X131610422Y-141259322D01*
X131610427Y-141259336D01*
X131636643Y-141315556D01*
X131642040Y-141329178D01*
X131649890Y-141353019D01*
X131649893Y-141353025D01*
X131931590Y-141920355D01*
X131943773Y-141989153D01*
X131916827Y-142053618D01*
X131859306Y-142093280D01*
X131820527Y-142099500D01*
X130202229Y-142099500D01*
X130135190Y-142079815D01*
X130114548Y-142063181D01*
X129658470Y-141607103D01*
X129189749Y-141138381D01*
X129164994Y-141102989D01*
X129150393Y-141071593D01*
X128967511Y-140678341D01*
X128665994Y-140029987D01*
X128646190Y-139991752D01*
X128643088Y-139986919D01*
X128643482Y-139986665D01*
X128633419Y-139970245D01*
X128597102Y-139892363D01*
X128597101Y-139892361D01*
X128596864Y-139892023D01*
X128471598Y-139713123D01*
X128316877Y-139558402D01*
X128161456Y-139449575D01*
X128137638Y-139432897D01*
X128038484Y-139386661D01*
X127939330Y-139340425D01*
X127939326Y-139340424D01*
X127939322Y-139340422D01*
X127727977Y-139283793D01*
X127510002Y-139264723D01*
X127509998Y-139264723D01*
X127364682Y-139277436D01*
X127292023Y-139283793D01*
X127292020Y-139283793D01*
X127080677Y-139340422D01*
X127080668Y-139340426D01*
X126882361Y-139432898D01*
X126882357Y-139432900D01*
X126703121Y-139558402D01*
X126548402Y-139713121D01*
X126422900Y-139892357D01*
X126422898Y-139892361D01*
X126330426Y-140090668D01*
X126330422Y-140090677D01*
X126273793Y-140302020D01*
X126273793Y-140302024D01*
X126259680Y-140463344D01*
X126254723Y-140520000D01*
X126273763Y-140737639D01*
X126273793Y-140737975D01*
X126273793Y-140737979D01*
X126330422Y-140949322D01*
X126330424Y-140949326D01*
X126330425Y-140949330D01*
X126376424Y-141047975D01*
X126422897Y-141147638D01*
X126423136Y-141147979D01*
X126548402Y-141326877D01*
X126703123Y-141481598D01*
X126882361Y-141607102D01*
X126975619Y-141650588D01*
X126986666Y-141655740D01*
X127002021Y-141664272D01*
X127019980Y-141675990D01*
X128092990Y-142174995D01*
X128128381Y-142199749D01*
X128508209Y-142579577D01*
X128776452Y-142847819D01*
X128809937Y-142909142D01*
X128804953Y-142978833D01*
X128763082Y-143034767D01*
X128697617Y-143059184D01*
X128688771Y-143059500D01*
X99312230Y-143059500D01*
X99245191Y-143039815D01*
X99224549Y-143023181D01*
X98418421Y-142217052D01*
X98418414Y-142217046D01*
X98318818Y-142150499D01*
X98318817Y-142150499D01*
X98295495Y-142134916D01*
X98295488Y-142134912D01*
X98158917Y-142078343D01*
X98158907Y-142078340D01*
X98013920Y-142049500D01*
X98013918Y-142049500D01*
X97572229Y-142049500D01*
X97505190Y-142029815D01*
X97484548Y-142013181D01*
X84238703Y-128767335D01*
X84218478Y-128740746D01*
X84189369Y-128689331D01*
X83647894Y-127732932D01*
X83636208Y-127713337D01*
X83633580Y-127708930D01*
X83633997Y-127708681D01*
X83627492Y-127697534D01*
X83597104Y-127632367D01*
X83597101Y-127632361D01*
X83471599Y-127453124D01*
X83455577Y-127437102D01*
X83316877Y-127298402D01*
X83137639Y-127172898D01*
X83137640Y-127172898D01*
X83137638Y-127172897D01*
X83038484Y-127126661D01*
X82939330Y-127080425D01*
X82939326Y-127080424D01*
X82939322Y-127080422D01*
X82727977Y-127023793D01*
X82510002Y-127004723D01*
X82509998Y-127004723D01*
X82364682Y-127017436D01*
X82292023Y-127023793D01*
X82292020Y-127023793D01*
X82080677Y-127080422D01*
X82080668Y-127080426D01*
X81882361Y-127172898D01*
X81882357Y-127172900D01*
X81703121Y-127298402D01*
X81548402Y-127453121D01*
X81422900Y-127632357D01*
X81422898Y-127632361D01*
X81330426Y-127830668D01*
X81330422Y-127830677D01*
X81273793Y-128042020D01*
X81273793Y-128042024D01*
X81254723Y-128259997D01*
X81254723Y-128260002D01*
X81273793Y-128477975D01*
X81273793Y-128477979D01*
X81330422Y-128689322D01*
X81330424Y-128689326D01*
X81330425Y-128689330D01*
X81366799Y-128767335D01*
X81422897Y-128887638D01*
X81422898Y-128887639D01*
X81548402Y-129066877D01*
X81703123Y-129221598D01*
X81882361Y-129347102D01*
X81997407Y-129400748D01*
X82038495Y-129419908D01*
X82044586Y-129422954D01*
X82061876Y-129432204D01*
X82061879Y-129432205D01*
X82070264Y-129435251D01*
X82080333Y-129439418D01*
X82080670Y-129439575D01*
X82081174Y-129439710D01*
X82091425Y-129442937D01*
X83165116Y-129832960D01*
X83210459Y-129861827D01*
X90449322Y-137100690D01*
X90482807Y-137162013D01*
X90477823Y-137231705D01*
X90435951Y-137287638D01*
X90370487Y-137312055D01*
X90302214Y-137297203D01*
X90290523Y-137289948D01*
X90151875Y-137192866D01*
X90137645Y-137182902D01*
X90137639Y-137182898D01*
X90003667Y-137120426D01*
X89939330Y-137090425D01*
X89939326Y-137090424D01*
X89939322Y-137090422D01*
X89727977Y-137033793D01*
X89510002Y-137014723D01*
X89509998Y-137014723D01*
X89364682Y-137027436D01*
X89292023Y-137033793D01*
X89080666Y-137090425D01*
X89080666Y-137090426D01*
X89066546Y-137097010D01*
X89043324Y-137104753D01*
X89043358Y-137104871D01*
X89040633Y-137105650D01*
X89039683Y-137105968D01*
X89039097Y-137106091D01*
X89039089Y-137106093D01*
X89039088Y-137106094D01*
X88249158Y-137394528D01*
X87927503Y-137511978D01*
X87884972Y-137519500D01*
X80046080Y-137519500D01*
X79901092Y-137548340D01*
X79901082Y-137548343D01*
X79764508Y-137604914D01*
X79764505Y-137604915D01*
X79764505Y-137604916D01*
X79720268Y-137634474D01*
X79720267Y-137634473D01*
X79641585Y-137687046D01*
X79641578Y-137687052D01*
X71238382Y-146090248D01*
X71202990Y-146115003D01*
X70129978Y-146614008D01*
X70091720Y-146633825D01*
X70086881Y-146636932D01*
X70086627Y-146636537D01*
X70070219Y-146646591D01*
X70059424Y-146651625D01*
X69992361Y-146682897D01*
X69813121Y-146808402D01*
X69658402Y-146963121D01*
X69532900Y-147142357D01*
X69532898Y-147142361D01*
X69440426Y-147340668D01*
X69440422Y-147340677D01*
X69383793Y-147552020D01*
X69383793Y-147552024D01*
X69364723Y-147769997D01*
X69364723Y-147770002D01*
X66792791Y-147770002D01*
X55496819Y-136474030D01*
X55463334Y-136412707D01*
X55460500Y-136386349D01*
X55460500Y-132314958D01*
X55465176Y-132281225D01*
X55511707Y-132116629D01*
X55782826Y-131157586D01*
X55787736Y-131144382D01*
X55789572Y-131139337D01*
X55789572Y-131139335D01*
X55789575Y-131139330D01*
X55846207Y-130927977D01*
X55865277Y-130710000D01*
X55846207Y-130492023D01*
X55789575Y-130280670D01*
X55697102Y-130082362D01*
X55697100Y-130082359D01*
X55697099Y-130082357D01*
X55571599Y-129903124D01*
X55501434Y-129832959D01*
X55416877Y-129748402D01*
X55237639Y-129622898D01*
X55237640Y-129622898D01*
X55237638Y-129622897D01*
X55138484Y-129576661D01*
X55039330Y-129530425D01*
X55039326Y-129530424D01*
X55039322Y-129530422D01*
X54827977Y-129473793D01*
X54610002Y-129454723D01*
X54609998Y-129454723D01*
X54464682Y-129467436D01*
X54392023Y-129473793D01*
X54392020Y-129473793D01*
X54180677Y-129530422D01*
X54180668Y-129530426D01*
X53982361Y-129622898D01*
X53982357Y-129622900D01*
X53803121Y-129748402D01*
X53648402Y-129903121D01*
X53522900Y-130082357D01*
X53522898Y-130082361D01*
X53430426Y-130280668D01*
X53430422Y-130280677D01*
X53373793Y-130492020D01*
X53373793Y-130492024D01*
X53354723Y-130709997D01*
X53354723Y-130710002D01*
X39560500Y-130710002D01*
X39560500Y-117270002D01*
X60944723Y-117270002D01*
X60963793Y-117487975D01*
X60963793Y-117487979D01*
X61020422Y-117699322D01*
X61020424Y-117699326D01*
X61020425Y-117699330D01*
X61045835Y-117753823D01*
X61051372Y-117767876D01*
X61058987Y-117791301D01*
X61524561Y-118737876D01*
X61575227Y-118840888D01*
X61576769Y-118844022D01*
X61589500Y-118898750D01*
X61589500Y-129673918D01*
X61589500Y-129673920D01*
X61589499Y-129673920D01*
X61618340Y-129818907D01*
X61618343Y-129818917D01*
X61674912Y-129955488D01*
X61674918Y-129955499D01*
X61684196Y-129969383D01*
X61684198Y-129969388D01*
X61757046Y-130078414D01*
X61757052Y-130078421D01*
X64503181Y-132824549D01*
X64536666Y-132885872D01*
X64539500Y-132912230D01*
X64539500Y-142474971D01*
X64531978Y-142517502D01*
X64126090Y-143629099D01*
X64120565Y-143646493D01*
X64114771Y-143661347D01*
X64110426Y-143670666D01*
X64110425Y-143670666D01*
X64053793Y-143882023D01*
X64053793Y-143882024D01*
X64034723Y-144099997D01*
X64034723Y-144100002D01*
X64053793Y-144317975D01*
X64053793Y-144317979D01*
X64110422Y-144529322D01*
X64110424Y-144529326D01*
X64110425Y-144529330D01*
X64122284Y-144554761D01*
X64202897Y-144727638D01*
X64202898Y-144727639D01*
X64328402Y-144906877D01*
X64483123Y-145061598D01*
X64662361Y-145187102D01*
X64860670Y-145279575D01*
X65072023Y-145336207D01*
X65254926Y-145352208D01*
X65289998Y-145355277D01*
X65290000Y-145355277D01*
X65290002Y-145355277D01*
X65318254Y-145352805D01*
X65507977Y-145336207D01*
X65719330Y-145279575D01*
X65917639Y-145187102D01*
X66096877Y-145061598D01*
X66251598Y-144906877D01*
X66377102Y-144727639D01*
X66469575Y-144529330D01*
X66526207Y-144317977D01*
X66545277Y-144100000D01*
X66526207Y-143882023D01*
X66469575Y-143670670D01*
X66462988Y-143656545D01*
X66455242Y-143633309D01*
X66455123Y-143633344D01*
X66454326Y-143630561D01*
X66454025Y-143629656D01*
X66453905Y-143629085D01*
X66070687Y-142579575D01*
X66048022Y-142517502D01*
X66040500Y-142474971D01*
X66040500Y-132476079D01*
X66011659Y-132331092D01*
X66011658Y-132331091D01*
X66011658Y-132331087D01*
X65991005Y-132281225D01*
X65955087Y-132194511D01*
X65955080Y-132194498D01*
X65903051Y-132116632D01*
X65903049Y-132116629D01*
X65872954Y-132071586D01*
X63126819Y-129325451D01*
X63093334Y-129264128D01*
X63090500Y-129237770D01*
X63090500Y-118840888D01*
X63094362Y-118810182D01*
X63112843Y-118737876D01*
X63373853Y-117716661D01*
X63378184Y-117704580D01*
X63377724Y-117704413D01*
X63379572Y-117699335D01*
X63379575Y-117699330D01*
X63436207Y-117487977D01*
X63455277Y-117270000D01*
X63436207Y-117052023D01*
X63379575Y-116840670D01*
X63287102Y-116642362D01*
X63287100Y-116642359D01*
X63287099Y-116642357D01*
X63161599Y-116463124D01*
X63088328Y-116389853D01*
X63006877Y-116308402D01*
X62827639Y-116182898D01*
X62827640Y-116182898D01*
X62827638Y-116182897D01*
X62728484Y-116136661D01*
X62629330Y-116090425D01*
X62629326Y-116090424D01*
X62629322Y-116090422D01*
X62417977Y-116033793D01*
X62200002Y-116014723D01*
X62199998Y-116014723D01*
X62054682Y-116027436D01*
X61982023Y-116033793D01*
X61982020Y-116033793D01*
X61770677Y-116090422D01*
X61770668Y-116090426D01*
X61572361Y-116182898D01*
X61572357Y-116182900D01*
X61393121Y-116308402D01*
X61238402Y-116463121D01*
X61112900Y-116642357D01*
X61112898Y-116642361D01*
X61020426Y-116840668D01*
X61020422Y-116840677D01*
X60963793Y-117052020D01*
X60963793Y-117052024D01*
X60944723Y-117269997D01*
X60944723Y-117270002D01*
X39560500Y-117270002D01*
X39560500Y-113220002D01*
X61074723Y-113220002D01*
X61084258Y-113328988D01*
X61093780Y-113437834D01*
X61093793Y-113437975D01*
X61093793Y-113437979D01*
X61150422Y-113649322D01*
X61150424Y-113649326D01*
X61150425Y-113649330D01*
X61190535Y-113735347D01*
X61242897Y-113847638D01*
X61267998Y-113883486D01*
X61368402Y-114026877D01*
X61523123Y-114181598D01*
X61702361Y-114307102D01*
X61900670Y-114399575D01*
X62112023Y-114456207D01*
X62294926Y-114472208D01*
X62329998Y-114475277D01*
X62330000Y-114475277D01*
X62330002Y-114475277D01*
X62358254Y-114472805D01*
X62547977Y-114456207D01*
X62759330Y-114399575D01*
X62957639Y-114307102D01*
X63136877Y-114181598D01*
X63291598Y-114026877D01*
X63417102Y-113847639D01*
X63465749Y-113743311D01*
X63474274Y-113727974D01*
X63485990Y-113710019D01*
X63485991Y-113710015D01*
X63485993Y-113710014D01*
X63818318Y-112995413D01*
X63984994Y-112637009D01*
X64009745Y-112601621D01*
X68894548Y-107716819D01*
X68955871Y-107683334D01*
X68982229Y-107680500D01*
X85822449Y-107680500D01*
X85889488Y-107700185D01*
X85935243Y-107752989D01*
X85945187Y-107822147D01*
X85916162Y-107885703D01*
X85893572Y-107906075D01*
X85833121Y-107948402D01*
X85678402Y-108103121D01*
X85552900Y-108282357D01*
X85552898Y-108282361D01*
X85460426Y-108480668D01*
X85460422Y-108480677D01*
X85403793Y-108692020D01*
X85403793Y-108692024D01*
X85386916Y-108884937D01*
X85384723Y-108910000D01*
X85397033Y-109050713D01*
X85403793Y-109127975D01*
X85403793Y-109127979D01*
X85460422Y-109339322D01*
X85460424Y-109339326D01*
X85460425Y-109339330D01*
X85504188Y-109433181D01*
X85552897Y-109537638D01*
X85552898Y-109537639D01*
X85678402Y-109716877D01*
X85833123Y-109871598D01*
X86012361Y-109997102D01*
X86105619Y-110040588D01*
X86116666Y-110045740D01*
X86132020Y-110054272D01*
X86149980Y-110065990D01*
X86149985Y-110065993D01*
X86797313Y-110367032D01*
X87067788Y-110492817D01*
X87120275Y-110538935D01*
X87139500Y-110605253D01*
X87139500Y-112917770D01*
X87119815Y-112984809D01*
X87103181Y-113005451D01*
X71877047Y-128231584D01*
X71877043Y-128231589D01*
X71832009Y-128298991D01*
X71832008Y-128298993D01*
X71813462Y-128326749D01*
X71794916Y-128354504D01*
X71794912Y-128354511D01*
X71738343Y-128491082D01*
X71738340Y-128491092D01*
X71709500Y-128636079D01*
X71709500Y-139304971D01*
X71701978Y-139347502D01*
X71296090Y-140459099D01*
X71290565Y-140476493D01*
X71284771Y-140491347D01*
X71280426Y-140500666D01*
X71280425Y-140500666D01*
X71223793Y-140712023D01*
X71223793Y-140712024D01*
X71205871Y-140916881D01*
X71204723Y-140930000D01*
X71223763Y-141147639D01*
X71223793Y-141147975D01*
X71223793Y-141147979D01*
X71280422Y-141359322D01*
X71280424Y-141359326D01*
X71280425Y-141359330D01*
X71299390Y-141400000D01*
X71372897Y-141557638D01*
X71372898Y-141557639D01*
X71498402Y-141736877D01*
X71653123Y-141891598D01*
X71832361Y-142017102D01*
X72030670Y-142109575D01*
X72242023Y-142166207D01*
X72424926Y-142182208D01*
X72459998Y-142185277D01*
X72460000Y-142185277D01*
X72460002Y-142185277D01*
X72488254Y-142182805D01*
X72677977Y-142166207D01*
X72889330Y-142109575D01*
X73087639Y-142017102D01*
X73266877Y-141891598D01*
X73421598Y-141736877D01*
X73547102Y-141557639D01*
X73639575Y-141359330D01*
X73696207Y-141147977D01*
X73715277Y-140930000D01*
X73696207Y-140712023D01*
X73639575Y-140500670D01*
X73632988Y-140486545D01*
X73625242Y-140463309D01*
X73625123Y-140463344D01*
X73624326Y-140460561D01*
X73624025Y-140459656D01*
X73623905Y-140459085D01*
X73218022Y-139347502D01*
X73210500Y-139304971D01*
X73210500Y-129072229D01*
X73230185Y-129005190D01*
X73246819Y-128984548D01*
X88472948Y-113758419D01*
X88472951Y-113758416D01*
X88555084Y-113635495D01*
X88611658Y-113498913D01*
X88623808Y-113437834D01*
X88640500Y-113353920D01*
X88640500Y-110086079D01*
X88611659Y-109941092D01*
X88611658Y-109941091D01*
X88611658Y-109941087D01*
X88582873Y-109871593D01*
X88555086Y-109804508D01*
X88492654Y-109711071D01*
X88492654Y-109711070D01*
X88492652Y-109711069D01*
X88472952Y-109681584D01*
X88319748Y-109528380D01*
X88294993Y-109492988D01*
X88274915Y-109449815D01*
X88023873Y-108909997D01*
X87795994Y-108419987D01*
X87776190Y-108381752D01*
X87773088Y-108376919D01*
X87773482Y-108376665D01*
X87763419Y-108360245D01*
X87762175Y-108357578D01*
X87750042Y-108331558D01*
X87739551Y-108262482D01*
X87768071Y-108198698D01*
X87826548Y-108160459D01*
X87896415Y-108159905D01*
X87950106Y-108191474D01*
X89208448Y-109449815D01*
X90457049Y-110698416D01*
X90561584Y-110802951D01*
X90561587Y-110802953D01*
X90561588Y-110802954D01*
X90684494Y-110885077D01*
X90684496Y-110885078D01*
X90684505Y-110885084D01*
X90715275Y-110897829D01*
X90715276Y-110897830D01*
X90715277Y-110897830D01*
X90821088Y-110941659D01*
X90937241Y-110964763D01*
X90956468Y-110968587D01*
X90966081Y-110970500D01*
X90966082Y-110970500D01*
X90966083Y-110970500D01*
X91113918Y-110970500D01*
X91818925Y-110970500D01*
X91863918Y-110978951D01*
X92917153Y-111389067D01*
X92972481Y-111431735D01*
X92995958Y-111497543D01*
X92980130Y-111565596D01*
X92943284Y-111606191D01*
X92778594Y-111721508D01*
X92611505Y-111888597D01*
X92475965Y-112082169D01*
X92475964Y-112082171D01*
X92376098Y-112296335D01*
X92376094Y-112296344D01*
X92314938Y-112524586D01*
X92314936Y-112524596D01*
X92294341Y-112759999D01*
X92294341Y-112760000D01*
X92314936Y-112995403D01*
X92314938Y-112995413D01*
X92376094Y-113223655D01*
X92376096Y-113223659D01*
X92376097Y-113223663D01*
X92436836Y-113353918D01*
X92475965Y-113437830D01*
X92475967Y-113437834D01*
X92611501Y-113631395D01*
X92611506Y-113631402D01*
X92778597Y-113798493D01*
X92778603Y-113798498D01*
X92964158Y-113928425D01*
X93007783Y-113983002D01*
X93014977Y-114052500D01*
X92983454Y-114114855D01*
X92964158Y-114131575D01*
X92778597Y-114261505D01*
X92611505Y-114428597D01*
X92475965Y-114622169D01*
X92475964Y-114622171D01*
X92376098Y-114836335D01*
X92376094Y-114836344D01*
X92314938Y-115064586D01*
X92314936Y-115064596D01*
X92294341Y-115299999D01*
X92294341Y-115300000D01*
X92314936Y-115535403D01*
X92314938Y-115535413D01*
X92376094Y-115763655D01*
X92376096Y-115763659D01*
X92376097Y-115763663D01*
X92475965Y-115977830D01*
X92475967Y-115977834D01*
X92584281Y-116132521D01*
X92611501Y-116171396D01*
X92611506Y-116171402D01*
X92733430Y-116293326D01*
X92766915Y-116354649D01*
X92761931Y-116424341D01*
X92720059Y-116480274D01*
X92689083Y-116497189D01*
X92557669Y-116546203D01*
X92557664Y-116546206D01*
X92442455Y-116632452D01*
X92442452Y-116632455D01*
X92356206Y-116747664D01*
X92356202Y-116747671D01*
X92305908Y-116882517D01*
X92299501Y-116942116D01*
X92299501Y-116942123D01*
X92299500Y-116942135D01*
X92299500Y-116965500D01*
X92279815Y-117032539D01*
X92227011Y-117078294D01*
X92175500Y-117089500D01*
X86296080Y-117089500D01*
X86151092Y-117118340D01*
X86151082Y-117118343D01*
X86014511Y-117174912D01*
X86014498Y-117174919D01*
X85891584Y-117257048D01*
X85891580Y-117257051D01*
X83987050Y-119161580D01*
X83987044Y-119161588D01*
X83937812Y-119235268D01*
X83937813Y-119235269D01*
X83904921Y-119284496D01*
X83904914Y-119284508D01*
X83848342Y-119421086D01*
X83848340Y-119421092D01*
X83819500Y-119566079D01*
X83819500Y-119566082D01*
X83819500Y-120605440D01*
X83819500Y-120605442D01*
X83819499Y-120605442D01*
X83848340Y-120750430D01*
X83848342Y-120750436D01*
X83850060Y-120754583D01*
X83859500Y-120802038D01*
X83859500Y-124724971D01*
X83851978Y-124767502D01*
X83446090Y-125879099D01*
X83440565Y-125896493D01*
X83434771Y-125911347D01*
X83430426Y-125920666D01*
X83430425Y-125920666D01*
X83373793Y-126132023D01*
X83373793Y-126132024D01*
X83354723Y-126349997D01*
X83354723Y-126350002D01*
X83373793Y-126567975D01*
X83373793Y-126567979D01*
X83430422Y-126779322D01*
X83430424Y-126779326D01*
X83430425Y-126779330D01*
X83476661Y-126878484D01*
X83522897Y-126977638D01*
X83522898Y-126977639D01*
X83648402Y-127156877D01*
X83803123Y-127311598D01*
X83982361Y-127437102D01*
X84180670Y-127529575D01*
X84392023Y-127586207D01*
X84574926Y-127602208D01*
X84609998Y-127605277D01*
X84610000Y-127605277D01*
X84610002Y-127605277D01*
X84638254Y-127602805D01*
X84827977Y-127586207D01*
X85039330Y-127529575D01*
X85237639Y-127437102D01*
X85416877Y-127311598D01*
X85571598Y-127156877D01*
X85697102Y-126977639D01*
X85789575Y-126779330D01*
X85846207Y-126567977D01*
X85865277Y-126350000D01*
X85846207Y-126132023D01*
X85789575Y-125920670D01*
X85782988Y-125906545D01*
X85775242Y-125883309D01*
X85775123Y-125883344D01*
X85774326Y-125880561D01*
X85774025Y-125879656D01*
X85773905Y-125879085D01*
X85368022Y-124767502D01*
X85360500Y-124724971D01*
X85360500Y-124198337D01*
X85380185Y-124131298D01*
X85432989Y-124085543D01*
X85502147Y-124075599D01*
X85565703Y-124104624D01*
X85572181Y-124110656D01*
X85623123Y-124161598D01*
X85802361Y-124287102D01*
X85895619Y-124330588D01*
X85906666Y-124335740D01*
X85922021Y-124344272D01*
X85939980Y-124355990D01*
X87012989Y-124854994D01*
X87048380Y-124879748D01*
X100387049Y-138218416D01*
X100468630Y-138299997D01*
X100491585Y-138322952D01*
X100614498Y-138405080D01*
X100614511Y-138405087D01*
X100751082Y-138461656D01*
X100751087Y-138461658D01*
X100751091Y-138461658D01*
X100751092Y-138461659D01*
X100896079Y-138490500D01*
X100896082Y-138490500D01*
X142733920Y-138490500D01*
X142831462Y-138471096D01*
X142878913Y-138461658D01*
X143015495Y-138405084D01*
X143050407Y-138381756D01*
X143102220Y-138362038D01*
X143389551Y-138322082D01*
X143408195Y-138319134D01*
X143408196Y-138319133D01*
X143413153Y-138318350D01*
X143413205Y-138318679D01*
X143422016Y-138317226D01*
X143547977Y-138306207D01*
X143759330Y-138249575D01*
X143957639Y-138157102D01*
X144136877Y-138031598D01*
X144291598Y-137876877D01*
X144417102Y-137697639D01*
X144509575Y-137499330D01*
X144566207Y-137287977D01*
X144585277Y-137070000D01*
X144566207Y-136852023D01*
X144509575Y-136640670D01*
X144417102Y-136442362D01*
X144417099Y-136442358D01*
X144417099Y-136442357D01*
X144291599Y-136263124D01*
X144291596Y-136263121D01*
X144136877Y-136108402D01*
X143957639Y-135982898D01*
X143957640Y-135982898D01*
X143957638Y-135982897D01*
X143858484Y-135936661D01*
X143759330Y-135890425D01*
X143759326Y-135890424D01*
X143759322Y-135890422D01*
X143547977Y-135833793D01*
X143330002Y-135814723D01*
X143329998Y-135814723D01*
X143184682Y-135827436D01*
X143112023Y-135833793D01*
X143112020Y-135833793D01*
X142900677Y-135890422D01*
X142900668Y-135890426D01*
X142702361Y-135982898D01*
X142702357Y-135982900D01*
X142523121Y-136108402D01*
X142368402Y-136263121D01*
X142242899Y-136442358D01*
X142240192Y-136447048D01*
X142239949Y-136446908D01*
X142231765Y-136460777D01*
X141883830Y-136938502D01*
X141828451Y-136981103D01*
X141783597Y-136989500D01*
X101332229Y-136989500D01*
X101265190Y-136969815D01*
X101244548Y-136953181D01*
X88109748Y-123818380D01*
X88084993Y-123782988D01*
X87585994Y-122709987D01*
X87566190Y-122671752D01*
X87563088Y-122666919D01*
X87563482Y-122666665D01*
X87553419Y-122650245D01*
X87517102Y-122572363D01*
X87517101Y-122572361D01*
X87499499Y-122547223D01*
X87391598Y-122393123D01*
X87236877Y-122238402D01*
X87057639Y-122112898D01*
X87057640Y-122112898D01*
X87057638Y-122112897D01*
X86877798Y-122029037D01*
X86859330Y-122020425D01*
X86859329Y-122020424D01*
X86854423Y-122018137D01*
X86854913Y-122017086D01*
X86803301Y-121979076D01*
X86778372Y-121913805D01*
X86792689Y-121845418D01*
X86841706Y-121795627D01*
X86867872Y-121784775D01*
X86870900Y-121783907D01*
X86870914Y-121783905D01*
X87982494Y-121378022D01*
X88025025Y-121370500D01*
X116103920Y-121370500D01*
X116201462Y-121351096D01*
X116248913Y-121341658D01*
X116385495Y-121285084D01*
X116459941Y-121235341D01*
X116508416Y-121202952D01*
X118181621Y-119529745D01*
X118217009Y-119504994D01*
X119290019Y-119005990D01*
X119328244Y-118986192D01*
X119328251Y-118986185D01*
X119333083Y-118983086D01*
X119333338Y-118983483D01*
X119349745Y-118973423D01*
X119427639Y-118937102D01*
X119606877Y-118811598D01*
X119761598Y-118656877D01*
X119887102Y-118477639D01*
X119979575Y-118279330D01*
X120036207Y-118067977D01*
X120055277Y-117850000D01*
X120036207Y-117632023D01*
X119979575Y-117420670D01*
X119887102Y-117222362D01*
X119887100Y-117222359D01*
X119887099Y-117222357D01*
X119761599Y-117043124D01*
X119751014Y-117032539D01*
X119606877Y-116888402D01*
X119427639Y-116762898D01*
X119427640Y-116762898D01*
X119427638Y-116762897D01*
X119328484Y-116716661D01*
X119229330Y-116670425D01*
X119229326Y-116670424D01*
X119229322Y-116670422D01*
X119017977Y-116613793D01*
X118800002Y-116594723D01*
X118799998Y-116594723D01*
X118654682Y-116607436D01*
X118582023Y-116613793D01*
X118582020Y-116613793D01*
X118370677Y-116670422D01*
X118370668Y-116670426D01*
X118172361Y-116762898D01*
X118172357Y-116762900D01*
X117993121Y-116888402D01*
X117838402Y-117043121D01*
X117712898Y-117222360D01*
X117712894Y-117222367D01*
X117664259Y-117326663D01*
X117655732Y-117342009D01*
X117644010Y-117359976D01*
X117145002Y-118432992D01*
X117120247Y-118468384D01*
X115755451Y-119833181D01*
X115694128Y-119866666D01*
X115667770Y-119869500D01*
X88025027Y-119869500D01*
X87982496Y-119861978D01*
X87172132Y-119566082D01*
X86870910Y-119456094D01*
X86870907Y-119456093D01*
X86853507Y-119450566D01*
X86838645Y-119444768D01*
X86829332Y-119440425D01*
X86829333Y-119440425D01*
X86702518Y-119406445D01*
X86617977Y-119383793D01*
X86508988Y-119374258D01*
X86400002Y-119364723D01*
X86399998Y-119364723D01*
X86198732Y-119382331D01*
X86130232Y-119368564D01*
X86080049Y-119319949D01*
X86064116Y-119251920D01*
X86087492Y-119186077D01*
X86100238Y-119171128D01*
X86644548Y-118626819D01*
X86705871Y-118593334D01*
X86732229Y-118590500D01*
X92175501Y-118590500D01*
X92242540Y-118610185D01*
X92288295Y-118662989D01*
X92299501Y-118714500D01*
X92299501Y-118737876D01*
X92305908Y-118797483D01*
X92356202Y-118932328D01*
X92356206Y-118932335D01*
X92442452Y-119047544D01*
X92442455Y-119047547D01*
X92557664Y-119133793D01*
X92557671Y-119133797D01*
X92692517Y-119184091D01*
X92692516Y-119184091D01*
X92699444Y-119184835D01*
X92752127Y-119190500D01*
X94547872Y-119190499D01*
X94607483Y-119184091D01*
X94742331Y-119133796D01*
X94857546Y-119047546D01*
X94943796Y-118932331D01*
X94994091Y-118797483D01*
X95000500Y-118737873D01*
X95000499Y-116942128D01*
X94994091Y-116882517D01*
X94978482Y-116840668D01*
X94943797Y-116747671D01*
X94943793Y-116747664D01*
X94857547Y-116632455D01*
X94857544Y-116632452D01*
X94742335Y-116546206D01*
X94742328Y-116546202D01*
X94610917Y-116497189D01*
X94554983Y-116455318D01*
X94530566Y-116389853D01*
X94545418Y-116321580D01*
X94566563Y-116293332D01*
X94688495Y-116171401D01*
X94824035Y-115977830D01*
X94923903Y-115763663D01*
X94985063Y-115535408D01*
X95005659Y-115300000D01*
X94985063Y-115064592D01*
X94923903Y-114836337D01*
X94824035Y-114622171D01*
X94721180Y-114475277D01*
X94688494Y-114428597D01*
X94521402Y-114261506D01*
X94521396Y-114261501D01*
X94335842Y-114131575D01*
X94292217Y-114076998D01*
X94285023Y-114007500D01*
X94316546Y-113945145D01*
X94335842Y-113928425D01*
X94358026Y-113912891D01*
X94521401Y-113798495D01*
X94688495Y-113631401D01*
X94824035Y-113437830D01*
X94923903Y-113223663D01*
X94985063Y-112995408D01*
X95005659Y-112760000D01*
X94985063Y-112524592D01*
X94923903Y-112296337D01*
X94824035Y-112082171D01*
X94811315Y-112064004D01*
X94688494Y-111888597D01*
X94521402Y-111721506D01*
X94521396Y-111721501D01*
X94335842Y-111591575D01*
X94292217Y-111536998D01*
X94285023Y-111467500D01*
X94316546Y-111405145D01*
X94335842Y-111388425D01*
X94358026Y-111372891D01*
X94521401Y-111258495D01*
X94688495Y-111091401D01*
X94824035Y-110897830D01*
X94923903Y-110683663D01*
X94985063Y-110455408D01*
X95005659Y-110220000D01*
X94985063Y-109984592D01*
X94923903Y-109756337D01*
X94824035Y-109542171D01*
X94814379Y-109528380D01*
X94688494Y-109348597D01*
X94521402Y-109181506D01*
X94521401Y-109181505D01*
X94335405Y-109051269D01*
X94291781Y-108996692D01*
X94284588Y-108927193D01*
X94316110Y-108864839D01*
X94335405Y-108848119D01*
X94521082Y-108718105D01*
X94688105Y-108551082D01*
X94823600Y-108357578D01*
X94923429Y-108143492D01*
X94923432Y-108143486D01*
X94980636Y-107930000D01*
X94083012Y-107930000D01*
X94115925Y-107872993D01*
X94150000Y-107745826D01*
X94150000Y-107614174D01*
X94115925Y-107487007D01*
X94083012Y-107430000D01*
X94980636Y-107430000D01*
X94980635Y-107429999D01*
X94923432Y-107216513D01*
X94923429Y-107216507D01*
X94823600Y-107002422D01*
X94823599Y-107002420D01*
X94688113Y-106808926D01*
X94688108Y-106808920D01*
X94521082Y-106641894D01*
X94327578Y-106506399D01*
X94113492Y-106406570D01*
X94113486Y-106406567D01*
X93900000Y-106349364D01*
X93900000Y-107246988D01*
X93842993Y-107214075D01*
X93715826Y-107180000D01*
X93584174Y-107180000D01*
X93457007Y-107214075D01*
X93400000Y-107246988D01*
X93400000Y-106349364D01*
X93399999Y-106349364D01*
X93186513Y-106406567D01*
X93186507Y-106406570D01*
X92972422Y-106506399D01*
X92972420Y-106506400D01*
X92778926Y-106641886D01*
X92778920Y-106641891D01*
X92611891Y-106808920D01*
X92611886Y-106808926D01*
X92476400Y-107002420D01*
X92476399Y-107002422D01*
X92376570Y-107216507D01*
X92376567Y-107216513D01*
X92319364Y-107429999D01*
X92319364Y-107430000D01*
X93216988Y-107430000D01*
X93184075Y-107487007D01*
X93150000Y-107614174D01*
X93150000Y-107745826D01*
X93184075Y-107872993D01*
X93216988Y-107930000D01*
X92319364Y-107930000D01*
X92376567Y-108143486D01*
X92376570Y-108143492D01*
X92476399Y-108357578D01*
X92611894Y-108551082D01*
X92778917Y-108718105D01*
X92943844Y-108833589D01*
X92987469Y-108888166D01*
X92994661Y-108957665D01*
X92963139Y-109020019D01*
X92917713Y-109050713D01*
X91863916Y-109461049D01*
X91818923Y-109469500D01*
X91402229Y-109469500D01*
X91335190Y-109449815D01*
X91314548Y-109433181D01*
X88228421Y-106347052D01*
X88228414Y-106347046D01*
X88154729Y-106297812D01*
X88154729Y-106297813D01*
X88105491Y-106264913D01*
X87968917Y-106208343D01*
X87968907Y-106208340D01*
X87823920Y-106179500D01*
X87823918Y-106179500D01*
X68693917Y-106179500D01*
X68546082Y-106179500D01*
X68546080Y-106179500D01*
X68401092Y-106208340D01*
X68401082Y-106208343D01*
X68264511Y-106264912D01*
X68264498Y-106264919D01*
X68141584Y-106347048D01*
X68141580Y-106347051D01*
X62948383Y-111540248D01*
X62912991Y-111565003D01*
X61839988Y-112064004D01*
X61801716Y-112083828D01*
X61796881Y-112086932D01*
X61796627Y-112086537D01*
X61780219Y-112096591D01*
X61769424Y-112101625D01*
X61702361Y-112132897D01*
X61523121Y-112258402D01*
X61368402Y-112413121D01*
X61242900Y-112592357D01*
X61242898Y-112592361D01*
X61150426Y-112790668D01*
X61150422Y-112790677D01*
X61093793Y-113002020D01*
X61093793Y-113002024D01*
X61074723Y-113219997D01*
X61074723Y-113220002D01*
X39560500Y-113220002D01*
X39560500Y-105284500D01*
X39580185Y-105217461D01*
X39632989Y-105171706D01*
X39684500Y-105160500D01*
X152796821Y-105160500D01*
X152863860Y-105180185D01*
G37*
%TD.AperFunction*%
%TD*%
%TA.AperFunction,Conductor*%
%TO.N,/VCC*%
G36*
X118586693Y-158956950D02*
G01*
X118599059Y-158962055D01*
X119266211Y-159237437D01*
X119272551Y-159243761D01*
X119272562Y-159243788D01*
X119553048Y-159923305D01*
X119553037Y-159932260D01*
X119547944Y-159937981D01*
X118464553Y-160543827D01*
X118455659Y-160544874D01*
X118450569Y-160541888D01*
X117968111Y-160059430D01*
X117964684Y-160051157D01*
X117966170Y-160045450D01*
X118572019Y-158962053D01*
X118579047Y-158956507D01*
X118586693Y-158956950D01*
G37*
%TD.AperFunction*%
%TD*%
%TA.AperFunction,Conductor*%
%TO.N,/EN*%
G36*
X93323010Y-109439045D02*
G01*
X93329108Y-109445267D01*
X93649134Y-110215511D01*
X93649143Y-110224466D01*
X93649134Y-110224489D01*
X93329108Y-110994732D01*
X93322769Y-111001057D01*
X93314058Y-111001146D01*
X91957455Y-110472902D01*
X91950989Y-110466706D01*
X91950000Y-110461999D01*
X91950000Y-109978000D01*
X91953427Y-109969727D01*
X91957455Y-109967097D01*
X93314058Y-109438853D01*
X93323010Y-109439045D01*
G37*
%TD.AperFunction*%
%TD*%
%TA.AperFunction,Conductor*%
%TO.N,/IO0*%
G36*
X92811937Y-117337154D02*
G01*
X93634253Y-117829964D01*
X93639588Y-117837156D01*
X93638275Y-117846014D01*
X93634253Y-117850036D01*
X92811937Y-118342845D01*
X92803079Y-118344158D01*
X92795887Y-118338823D01*
X92795003Y-118337009D01*
X92700780Y-118092028D01*
X92700000Y-118087828D01*
X92700000Y-117592172D01*
X92700780Y-117587972D01*
X92795004Y-117342988D01*
X92801171Y-117336498D01*
X92810123Y-117336270D01*
X92811937Y-117337154D01*
G37*
%TD.AperFunction*%
%TD*%
%TA.AperFunction,Conductor*%
%TO.N,/SIM_VDD*%
G36*
X133866579Y-139573094D02*
G01*
X133867503Y-139577651D01*
X133867503Y-140057937D01*
X133866798Y-140061937D01*
X133487087Y-141105531D01*
X133481038Y-141112134D01*
X133472092Y-141112526D01*
X133471620Y-141112343D01*
X132793489Y-140831856D01*
X132787154Y-140825527D01*
X132787146Y-140825508D01*
X132507412Y-140147811D01*
X132507423Y-140138856D01*
X132513668Y-140132572D01*
X133851247Y-139566874D01*
X133860200Y-139566809D01*
X133866579Y-139573094D01*
G37*
%TD.AperFunction*%
%TD*%
%TA.AperFunction,Conductor*%
%TO.N,/EN*%
G36*
X63219669Y-111988350D02*
G01*
X63561649Y-112330330D01*
X63565076Y-112338603D01*
X63563985Y-112343537D01*
X63027631Y-113496859D01*
X63021035Y-113502915D01*
X63012558Y-113502740D01*
X62333788Y-113222562D01*
X62327448Y-113216238D01*
X62327437Y-113216211D01*
X62047259Y-112537439D01*
X62047270Y-112528486D01*
X62053139Y-112522368D01*
X63206464Y-111986013D01*
X63215409Y-111985633D01*
X63219669Y-111988350D01*
G37*
%TD.AperFunction*%
%TD*%
%TA.AperFunction,Conductor*%
%TO.N,/IO0*%
G36*
X84860090Y-124853427D02*
G01*
X84862807Y-124857687D01*
X85299069Y-126052467D01*
X85298688Y-126061414D01*
X85292570Y-126067284D01*
X84614491Y-126349133D01*
X84605536Y-126349144D01*
X84605509Y-126349133D01*
X83927429Y-126067284D01*
X83921105Y-126060944D01*
X83920930Y-126052470D01*
X84357193Y-124857686D01*
X84363249Y-124851091D01*
X84368183Y-124850000D01*
X84851817Y-124850000D01*
X84860090Y-124853427D01*
G37*
%TD.AperFunction*%
%TD*%
%TA.AperFunction,Conductor*%
%TO.N,/SDA*%
G36*
X71509669Y-146538350D02*
G01*
X71851649Y-146880330D01*
X71855076Y-146888603D01*
X71853985Y-146893537D01*
X71317631Y-148046859D01*
X71311035Y-148052915D01*
X71302558Y-148052740D01*
X70623788Y-147772562D01*
X70617448Y-147766238D01*
X70617437Y-147766211D01*
X70337259Y-147087439D01*
X70337270Y-147078486D01*
X70343139Y-147072368D01*
X71496464Y-146536013D01*
X71505409Y-146535633D01*
X71509669Y-146538350D01*
G37*
%TD.AperFunction*%
%TD*%
%TA.AperFunction,Conductor*%
%TO.N,/VCC*%
G36*
X55293316Y-130993025D02*
G01*
X55299639Y-130999364D01*
X55300083Y-131007011D01*
X54962408Y-132201483D01*
X54956860Y-132208512D01*
X54951149Y-132210000D01*
X54268851Y-132210000D01*
X54260578Y-132206573D01*
X54257592Y-132201483D01*
X53919916Y-131007011D01*
X53920963Y-130998117D01*
X53926681Y-130993026D01*
X54605510Y-130710865D01*
X54614462Y-130710855D01*
X55293316Y-130993025D01*
G37*
%TD.AperFunction*%
%TD*%
%TA.AperFunction,Conductor*%
%TO.N,/SIM_DATA*%
G36*
X128201513Y-140237270D02*
G01*
X128207631Y-140243140D01*
X128743985Y-141396462D01*
X128744366Y-141405409D01*
X128741649Y-141409669D01*
X128399669Y-141751649D01*
X128391396Y-141755076D01*
X128386462Y-141753985D01*
X127233140Y-141217631D01*
X127227084Y-141211035D01*
X127227258Y-141202560D01*
X127507438Y-140523786D01*
X127513759Y-140517449D01*
X128192560Y-140237259D01*
X128201513Y-140237270D01*
G37*
%TD.AperFunction*%
%TD*%
%TA.AperFunction,Conductor*%
%TO.N,/SIM_VDD*%
G36*
X141655368Y-139364106D02*
G01*
X141659905Y-139371826D01*
X141660017Y-139373426D01*
X141660996Y-140107656D01*
X141660100Y-140112163D01*
X141378372Y-140789952D01*
X141372032Y-140796276D01*
X141363077Y-140796265D01*
X141361208Y-140795282D01*
X140231108Y-140063458D01*
X140226027Y-140056084D01*
X140225768Y-140053637D01*
X140225768Y-139570181D01*
X140229195Y-139561908D01*
X140235849Y-139558594D01*
X141646702Y-139361854D01*
X141655368Y-139364106D01*
G37*
%TD.AperFunction*%
%TD*%
%TA.AperFunction,Conductor*%
%TO.N,/UART2_TX*%
G36*
X83202312Y-127976941D02*
G01*
X83208002Y-127981981D01*
X83807138Y-129040225D01*
X83808232Y-129049112D01*
X83805230Y-129054262D01*
X83463237Y-129396255D01*
X83454964Y-129399682D01*
X83450969Y-129398979D01*
X82234467Y-128957080D01*
X82227861Y-128951034D01*
X82227465Y-128942088D01*
X82227637Y-128941643D01*
X82507438Y-128263786D01*
X82513759Y-128257449D01*
X83193357Y-127976930D01*
X83202312Y-127976941D01*
G37*
%TD.AperFunction*%
%TD*%
%TA.AperFunction,Conductor*%
%TO.N,/SCL*%
G36*
X87331513Y-108627270D02*
G01*
X87337631Y-108633140D01*
X87873985Y-109786462D01*
X87874366Y-109795409D01*
X87871649Y-109799669D01*
X87529669Y-110141649D01*
X87521396Y-110145076D01*
X87516462Y-110143985D01*
X86363140Y-109607631D01*
X86357084Y-109601035D01*
X86357258Y-109592560D01*
X86637438Y-108913786D01*
X86643759Y-108907449D01*
X87322560Y-108627259D01*
X87331513Y-108627270D01*
G37*
%TD.AperFunction*%
%TD*%
%TA.AperFunction,Conductor*%
%TO.N,/SIM_VDD*%
G36*
X133472607Y-141112730D02*
G01*
X133478931Y-141119070D01*
X133479121Y-141127507D01*
X133112789Y-142142273D01*
X133106756Y-142148891D01*
X133101784Y-142150000D01*
X132617253Y-142150000D01*
X132608980Y-142146573D01*
X132606774Y-142143503D01*
X132606163Y-142142273D01*
X132102652Y-141128216D01*
X132102043Y-141119284D01*
X132107929Y-141112536D01*
X132108622Y-141112219D01*
X132785510Y-140830865D01*
X132794462Y-140830855D01*
X133472607Y-141112730D01*
G37*
%TD.AperFunction*%
%TD*%
%TA.AperFunction,Conductor*%
%TO.N,/UART2_RX*%
G36*
X87121513Y-122917270D02*
G01*
X87127631Y-122923140D01*
X87663985Y-124076462D01*
X87664366Y-124085409D01*
X87661649Y-124089669D01*
X87319669Y-124431649D01*
X87311396Y-124435076D01*
X87306462Y-124433985D01*
X86153140Y-123897631D01*
X86147084Y-123891035D01*
X86147258Y-123882560D01*
X86427438Y-123203786D01*
X86433759Y-123197449D01*
X87112560Y-122917259D01*
X87121513Y-122917270D01*
G37*
%TD.AperFunction*%
%TD*%
%TA.AperFunction,Conductor*%
%TO.N,/IO17*%
G36*
X87892313Y-120367193D02*
G01*
X87898909Y-120373249D01*
X87900000Y-120378183D01*
X87900000Y-120861816D01*
X87896573Y-120870089D01*
X87892313Y-120872806D01*
X86697532Y-121309069D01*
X86688585Y-121308688D01*
X86682715Y-121302570D01*
X86400865Y-120624489D01*
X86400855Y-120615536D01*
X86682715Y-119937428D01*
X86689055Y-119931105D01*
X86697529Y-119930930D01*
X87892313Y-120367193D01*
G37*
%TD.AperFunction*%
%TD*%
%TA.AperFunction,Conductor*%
%TO.N,+3V3*%
G36*
X47777365Y-150312667D02*
G01*
X47778376Y-150313145D01*
X49066682Y-150999642D01*
X49072372Y-151006557D01*
X49071506Y-151015470D01*
X49069453Y-151018241D01*
X48728973Y-151358721D01*
X48724527Y-151361504D01*
X47777425Y-151689306D01*
X47768486Y-151688774D01*
X47762791Y-151682733D01*
X47628387Y-151358721D01*
X47481153Y-151003779D01*
X47481149Y-150994827D01*
X47762071Y-150318978D01*
X47768410Y-150312656D01*
X47777365Y-150312667D01*
G37*
%TD.AperFunction*%
%TD*%
%TA.AperFunction,Conductor*%
%TO.N,/UART2_RX*%
G36*
X142807967Y-136548150D02*
G01*
X142809344Y-136549326D01*
X143327558Y-137066564D01*
X143330993Y-137074834D01*
X143330993Y-137074861D01*
X143330013Y-137809828D01*
X143326575Y-137818096D01*
X143319925Y-137821400D01*
X142120835Y-137988148D01*
X142112168Y-137985894D01*
X142107635Y-137978172D01*
X142107523Y-137976560D01*
X142107523Y-137493808D01*
X142109766Y-137486920D01*
X142409878Y-137074861D01*
X142791623Y-136550718D01*
X142799262Y-136546049D01*
X142807967Y-136548150D01*
G37*
%TD.AperFunction*%
%TD*%
%TA.AperFunction,Conductor*%
%TO.N,/LCD_RST*%
G36*
X62833470Y-117532306D02*
G01*
X62883556Y-117553125D01*
X62889880Y-117559465D01*
X62890401Y-117566826D01*
X62592250Y-118733349D01*
X62586881Y-118740516D01*
X62580914Y-118742152D01*
X62097284Y-118742152D01*
X62089011Y-118738725D01*
X62086785Y-118735616D01*
X62085670Y-118733349D01*
X61512589Y-117568195D01*
X61512014Y-117559261D01*
X61517925Y-117552534D01*
X61518581Y-117552236D01*
X62195510Y-117270865D01*
X62204462Y-117270855D01*
X62833470Y-117532306D01*
G37*
%TD.AperFunction*%
%TD*%
%TA.AperFunction,Conductor*%
%TO.N,/SDA*%
G36*
X89221414Y-137581311D02*
G01*
X89227284Y-137587429D01*
X89509133Y-138265509D01*
X89509144Y-138274464D01*
X89509133Y-138274491D01*
X89227284Y-138952570D01*
X89220944Y-138958894D01*
X89212467Y-138959068D01*
X88917623Y-138851409D01*
X88017687Y-138522806D01*
X88011091Y-138516750D01*
X88010000Y-138511816D01*
X88010000Y-138028183D01*
X88013427Y-138019910D01*
X88017687Y-138017193D01*
X89212470Y-137580930D01*
X89221414Y-137581311D01*
G37*
%TD.AperFunction*%
%TD*%
%TA.AperFunction,Conductor*%
%TO.N,/LCD_RST*%
G36*
X65540090Y-142603427D02*
G01*
X65542807Y-142607687D01*
X65979069Y-143802467D01*
X65978688Y-143811414D01*
X65972570Y-143817284D01*
X65294491Y-144099133D01*
X65285536Y-144099144D01*
X65285509Y-144099133D01*
X64607429Y-143817284D01*
X64601105Y-143810944D01*
X64600930Y-143802470D01*
X65037193Y-142607686D01*
X65043249Y-142601091D01*
X65048183Y-142600000D01*
X65531817Y-142600000D01*
X65540090Y-142603427D01*
G37*
%TD.AperFunction*%
%TD*%
%TA.AperFunction,Conductor*%
%TO.N,+3V3*%
G36*
X64913534Y-155946013D02*
G01*
X65887194Y-156398814D01*
X66066859Y-156482368D01*
X66072915Y-156488964D01*
X66072740Y-156497441D01*
X65792562Y-157176211D01*
X65786238Y-157182551D01*
X65786211Y-157182562D01*
X65107441Y-157462740D01*
X65098486Y-157462729D01*
X65092368Y-157456859D01*
X64961852Y-157176211D01*
X64556013Y-156303535D01*
X64555633Y-156294590D01*
X64558348Y-156290332D01*
X64900331Y-155948349D01*
X64908603Y-155944923D01*
X64913534Y-155946013D01*
G37*
%TD.AperFunction*%
%TD*%
%TA.AperFunction,Conductor*%
%TO.N,/IO17*%
G36*
X118117439Y-117567258D02*
G01*
X118796211Y-117847437D01*
X118802551Y-117853761D01*
X118802562Y-117853788D01*
X119082740Y-118532558D01*
X119082729Y-118541513D01*
X119076859Y-118547631D01*
X117923537Y-119083985D01*
X117914590Y-119084366D01*
X117910330Y-119081649D01*
X117568350Y-118739669D01*
X117564923Y-118731396D01*
X117566012Y-118726466D01*
X118102368Y-117573139D01*
X118108964Y-117567084D01*
X118117439Y-117567258D01*
G37*
%TD.AperFunction*%
%TD*%
%TA.AperFunction,Conductor*%
%TO.N,/UART2_TX*%
G36*
X147102570Y-138582715D02*
G01*
X147108894Y-138589055D01*
X147109069Y-138597532D01*
X146672807Y-139792313D01*
X146666751Y-139798909D01*
X146661817Y-139800000D01*
X146178183Y-139800000D01*
X146169910Y-139796573D01*
X146167193Y-139792313D01*
X145730930Y-138597529D01*
X145731311Y-138588585D01*
X145737428Y-138582715D01*
X146415510Y-138300865D01*
X146424462Y-138300855D01*
X147102570Y-138582715D01*
G37*
%TD.AperFunction*%
%TD*%
%TA.AperFunction,Conductor*%
%TO.N,/SCL*%
G36*
X72710090Y-139433427D02*
G01*
X72712807Y-139437687D01*
X73149069Y-140632467D01*
X73148688Y-140641414D01*
X73142570Y-140647284D01*
X72464491Y-140929133D01*
X72455536Y-140929144D01*
X72455509Y-140929133D01*
X71777429Y-140647284D01*
X71771105Y-140640944D01*
X71770930Y-140632470D01*
X72207193Y-139437686D01*
X72213249Y-139431091D01*
X72218183Y-139430000D01*
X72701817Y-139430000D01*
X72710090Y-139433427D01*
G37*
%TD.AperFunction*%
%TD*%
M02*
