%TF.GenerationSoftware,KiCad,Pcbnew,8.0.1*%
%TF.CreationDate,2025-06-21T23:19:00+05:45*%
%TF.ProjectId,MOBILE,4d4f4249-4c45-42e6-9b69-6361645f7063,rev?*%
%TF.SameCoordinates,Original*%
%TF.FileFunction,Soldermask,Top*%
%TF.FilePolarity,Negative*%
%FSLAX46Y46*%
G04 Gerber Fmt 4.6, Leading zero omitted, Abs format (unit mm)*
G04 Created by KiCad (PCBNEW 8.0.1) date 2025-06-21 23:19:00*
%MOMM*%
%LPD*%
G01*
G04 APERTURE LIST*
G04 Aperture macros list*
%AMRoundRect*
0 Rectangle with rounded corners*
0 $1 Rounding radius*
0 $2 $3 $4 $5 $6 $7 $8 $9 X,Y pos of 4 corners*
0 Add a 4 corners polygon primitive as box body*
4,1,4,$2,$3,$4,$5,$6,$7,$8,$9,$2,$3,0*
0 Add four circle primitives for the rounded corners*
1,1,$1+$1,$2,$3*
1,1,$1+$1,$4,$5*
1,1,$1+$1,$6,$7*
1,1,$1+$1,$8,$9*
0 Add four rect primitives between the rounded corners*
20,1,$1+$1,$2,$3,$4,$5,0*
20,1,$1+$1,$4,$5,$6,$7,0*
20,1,$1+$1,$6,$7,$8,$9,0*
20,1,$1+$1,$8,$9,$2,$3,0*%
%AMFreePoly0*
4,1,15,0.885355,0.885355,0.900000,0.850000,0.900000,-0.850000,0.885355,-0.885355,0.850000,-0.900000,-0.850000,-0.900000,-0.885355,-0.885355,-0.900000,-0.850000,-0.900000,0.430000,-0.885355,0.465355,-0.884937,0.465769,-0.454937,0.885769,-0.420000,0.900000,0.850000,0.900000,0.885355,0.885355,0.885355,0.885355,$1*%
G04 Aperture macros list end*
%ADD10RoundRect,0.200000X-0.275000X0.200000X-0.275000X-0.200000X0.275000X-0.200000X0.275000X0.200000X0*%
%ADD11RoundRect,0.250000X0.475000X-0.250000X0.475000X0.250000X-0.475000X0.250000X-0.475000X-0.250000X0*%
%ADD12R,1.560000X2.610000*%
%ADD13R,0.900000X1.600000*%
%ADD14RoundRect,0.200000X0.200000X0.275000X-0.200000X0.275000X-0.200000X-0.275000X0.200000X-0.275000X0*%
%ADD15RoundRect,0.250000X-0.475000X0.250000X-0.475000X-0.250000X0.475000X-0.250000X0.475000X0.250000X0*%
%ADD16R,1.000000X0.800000*%
%ADD17RoundRect,0.375000X0.625000X0.375000X-0.625000X0.375000X-0.625000X-0.375000X0.625000X-0.375000X0*%
%ADD18RoundRect,0.500000X0.500000X1.400000X-0.500000X1.400000X-0.500000X-1.400000X0.500000X-1.400000X0*%
%ADD19R,2.200000X5.720000*%
%ADD20RoundRect,0.200000X0.275000X-0.200000X0.275000X0.200000X-0.275000X0.200000X-0.275000X-0.200000X0*%
%ADD21RoundRect,0.250000X0.250000X0.475000X-0.250000X0.475000X-0.250000X-0.475000X0.250000X-0.475000X0*%
%ADD22RoundRect,0.250000X1.500000X0.550000X-1.500000X0.550000X-1.500000X-0.550000X1.500000X-0.550000X0*%
%ADD23R,0.700000X1.250000*%
%ADD24RoundRect,0.250000X-0.250000X-0.475000X0.250000X-0.475000X0.250000X0.475000X-0.250000X0.475000X0*%
%ADD25O,2.500000X0.700000*%
%ADD26O,0.700000X2.500000*%
%ADD27RoundRect,0.250000X-0.425000X0.450000X-0.425000X-0.450000X0.425000X-0.450000X0.425000X0.450000X0*%
%ADD28RoundRect,0.200000X-0.200000X-0.275000X0.200000X-0.275000X0.200000X0.275000X-0.200000X0.275000X0*%
%ADD29R,1.700000X1.700000*%
%ADD30O,1.700000X1.700000*%
%ADD31R,1.000000X1.000000*%
%ADD32R,2.400000X3.200000*%
%ADD33O,0.630000X1.860000*%
%ADD34RoundRect,0.250000X0.425000X-0.450000X0.425000X0.450000X-0.425000X0.450000X-0.425000X-0.450000X0*%
%ADD35O,1.250000X2.000000*%
%ADD36R,0.700000X1.200000*%
%ADD37R,0.800000X1.200000*%
%ADD38R,0.900000X1.200000*%
%ADD39R,0.600000X1.070000*%
%ADD40R,3.820000X3.030000*%
%ADD41O,0.280000X0.850000*%
%ADD42O,0.850000X0.280000*%
%ADD43FreePoly0,90.000000*%
%ADD44RoundRect,0.250000X-0.450000X-0.425000X0.450000X-0.425000X0.450000X0.425000X-0.450000X0.425000X0*%
%ADD45R,3.200000X2.400000*%
%ADD46RoundRect,0.250000X-0.550000X1.500000X-0.550000X-1.500000X0.550000X-1.500000X0.550000X1.500000X0*%
%ADD47R,0.600000X0.800000*%
%ADD48RoundRect,0.250000X0.550000X-1.500000X0.550000X1.500000X-0.550000X1.500000X-0.550000X-1.500000X0*%
%ADD49R,0.300000X1.250000*%
%ADD50R,2.000000X2.500000*%
%ADD51R,0.300000X1.100000*%
%ADD52R,1.100000X1.800000*%
%ADD53R,2.070000X2.060000*%
%ADD54R,2.100000X0.950000*%
%ADD55R,0.950000X2.100000*%
%ADD56R,0.900000X0.900000*%
G04 APERTURE END LIST*
D10*
%TO.C,R2*%
X90640000Y-149085000D03*
X90640000Y-150735000D03*
%TD*%
D11*
%TO.C,C25*%
X130240000Y-133910000D03*
X130240000Y-132010000D03*
%TD*%
D12*
%TO.C,Card1*%
X129670000Y-148377231D03*
X129670000Y-160987231D03*
X146130000Y-160987231D03*
X146130000Y-148357231D03*
D13*
X132800000Y-145907231D03*
X135340000Y-145907231D03*
X137880000Y-145907231D03*
X131530000Y-145907231D03*
X134070000Y-145907231D03*
X136610000Y-145907231D03*
%TD*%
D14*
%TO.C,R4*%
X55465000Y-139640000D03*
X53815000Y-139640000D03*
%TD*%
D15*
%TO.C,C3*%
X53190000Y-123940000D03*
X53190000Y-125840000D03*
%TD*%
D16*
%TO.C,Q2*%
X124030000Y-118195000D03*
X124030000Y-120095000D03*
X126330000Y-119145000D03*
%TD*%
D17*
%TO.C,U1*%
X51110000Y-134012500D03*
X51110000Y-131712500D03*
D18*
X44810000Y-131712500D03*
D17*
X51110000Y-129412500D03*
%TD*%
D15*
%TO.C,C1*%
X55530000Y-123010000D03*
X55530000Y-124910000D03*
%TD*%
%TO.C,C19*%
X52520000Y-106870000D03*
X52520000Y-108770000D03*
%TD*%
D19*
%TO.C,L3*%
X117635000Y-142510000D03*
X112635000Y-142510000D03*
%TD*%
D15*
%TO.C,C18*%
X59690000Y-106780000D03*
X59690000Y-108680000D03*
%TD*%
D10*
%TO.C,R1*%
X58650000Y-112075000D03*
X58650000Y-113725000D03*
%TD*%
D20*
%TO.C,R11*%
X132310000Y-132405000D03*
X132310000Y-130755000D03*
%TD*%
D21*
%TO.C,C41*%
X118330000Y-129100000D03*
X116430000Y-129100000D03*
%TD*%
D14*
%TO.C,R8*%
X71510000Y-143980000D03*
X69860000Y-143980000D03*
%TD*%
D22*
%TO.C,C27*%
X130840000Y-109480000D03*
X125440000Y-109480000D03*
%TD*%
D11*
%TO.C,C12*%
X53370000Y-119750000D03*
X53370000Y-117850000D03*
%TD*%
D14*
%TO.C,R19*%
X105005000Y-152700000D03*
X103355000Y-152700000D03*
%TD*%
D23*
%TO.C,Q3*%
X99000000Y-123210000D03*
X100900000Y-123210000D03*
X99950000Y-125210000D03*
%TD*%
D11*
%TO.C,C4*%
X53070000Y-113740000D03*
X53070000Y-111840000D03*
%TD*%
D24*
%TO.C,C9*%
X94230000Y-150230000D03*
X96130000Y-150230000D03*
%TD*%
D25*
%TO.C,U3*%
X136680000Y-118170000D03*
X136680000Y-119270000D03*
X136680000Y-120370000D03*
X136680000Y-121470000D03*
X136680000Y-122570000D03*
X136680000Y-123670000D03*
X136680000Y-124770000D03*
X136680000Y-125870000D03*
X136680000Y-126970000D03*
X136680000Y-128070000D03*
X136680000Y-129170000D03*
X136680000Y-130270000D03*
X136680000Y-131370000D03*
D26*
X139930000Y-133370000D03*
X141030000Y-133370000D03*
X142130000Y-133370000D03*
X143230000Y-133370000D03*
X144330000Y-133370000D03*
X145430000Y-133370000D03*
X146530000Y-133370000D03*
X147630000Y-133370000D03*
X148730000Y-133370000D03*
D25*
X151980000Y-131370000D03*
X151980000Y-130270000D03*
X151980000Y-129170000D03*
X151980000Y-128070000D03*
X151980000Y-126970000D03*
X151980000Y-125870000D03*
X151980000Y-124770000D03*
X151980000Y-123670000D03*
X151980000Y-122570000D03*
X151980000Y-121470000D03*
X151980000Y-120370000D03*
X151980000Y-119270000D03*
X151980000Y-118170000D03*
D26*
X148730000Y-116170000D03*
X147630000Y-116170000D03*
X146530000Y-116170000D03*
X145430000Y-116170000D03*
X144330000Y-116170000D03*
X143230000Y-116170000D03*
X142130000Y-116170000D03*
X141030000Y-116170000D03*
X139930000Y-116170000D03*
%TD*%
D14*
%TO.C,R25*%
X104890000Y-154280000D03*
X103240000Y-154280000D03*
%TD*%
D15*
%TO.C,C17*%
X56110000Y-106780000D03*
X56110000Y-108680000D03*
%TD*%
D27*
%TO.C,C45*%
X50830000Y-117682500D03*
X50830000Y-120382500D03*
%TD*%
D11*
%TO.C,C28*%
X127080000Y-125105000D03*
X127080000Y-123205000D03*
%TD*%
D22*
%TO.C,C8*%
X89520000Y-144420000D03*
X84120000Y-144420000D03*
%TD*%
D11*
%TO.C,C2*%
X56240000Y-113530000D03*
X56240000Y-111630000D03*
%TD*%
D21*
%TO.C,C38*%
X111830000Y-111830000D03*
X109930000Y-111830000D03*
%TD*%
D28*
%TO.C,R22*%
X113765000Y-148130000D03*
X115415000Y-148130000D03*
%TD*%
D11*
%TO.C,C11*%
X55720000Y-119760000D03*
X55720000Y-117860000D03*
%TD*%
D14*
%TO.C,R5*%
X54945000Y-143100000D03*
X53295000Y-143100000D03*
%TD*%
D28*
%TO.C,R17*%
X111825000Y-156050000D03*
X113475000Y-156050000D03*
%TD*%
D20*
%TO.C,R10*%
X132480000Y-135775000D03*
X132480000Y-134125000D03*
%TD*%
D14*
%TO.C,R13*%
X103925000Y-108300000D03*
X102275000Y-108300000D03*
%TD*%
D21*
%TO.C,C42*%
X118330000Y-126090000D03*
X116430000Y-126090000D03*
%TD*%
D15*
%TO.C,C20*%
X152300000Y-109390000D03*
X152300000Y-111290000D03*
%TD*%
D29*
%TO.C,J1*%
X93650000Y-117840000D03*
D30*
X93650000Y-115300000D03*
X93650000Y-112760000D03*
X93650000Y-110220000D03*
X93650000Y-107680000D03*
%TD*%
D28*
%TO.C,R20*%
X103665000Y-148700000D03*
X105315000Y-148700000D03*
%TD*%
D20*
%TO.C,R9*%
X126520000Y-134150000D03*
X126520000Y-132500000D03*
%TD*%
D24*
%TO.C,C34*%
X107425000Y-149020000D03*
X109325000Y-149020000D03*
%TD*%
D28*
%TO.C,R21*%
X111950000Y-152520000D03*
X113600000Y-152520000D03*
%TD*%
D31*
%TO.C,LED2*%
X111480000Y-149420000D03*
X111480000Y-147520000D03*
%TD*%
D20*
%TO.C,R24*%
X107050000Y-159345000D03*
X107050000Y-157695000D03*
%TD*%
D32*
%TO.C,L1*%
X141790000Y-108530000D03*
X135790000Y-108530000D03*
%TD*%
D33*
%TO.C,U4*%
X100740000Y-113790000D03*
X99460000Y-113790000D03*
X98200000Y-113790000D03*
X96930000Y-113790000D03*
X96930000Y-119150000D03*
X98200000Y-119150000D03*
X99460000Y-119150000D03*
X100740000Y-119150000D03*
%TD*%
D19*
%TO.C,L4*%
X46940000Y-120720000D03*
X41940000Y-120720000D03*
%TD*%
D34*
%TO.C,C5*%
X50710000Y-126070000D03*
X50710000Y-123370000D03*
%TD*%
D35*
%TO.C,USB1*%
X87685000Y-155197500D03*
X96325000Y-155197500D03*
X87685000Y-158947500D03*
X96325000Y-158947500D03*
D36*
X91505000Y-154667500D03*
D37*
X93525000Y-154667500D03*
D38*
X94755000Y-154667500D03*
D36*
X92505000Y-154667500D03*
D37*
X90485000Y-154667500D03*
D38*
X89255000Y-154667500D03*
%TD*%
D21*
%TO.C,C43*%
X118330000Y-123080000D03*
X116430000Y-123080000D03*
%TD*%
D28*
%TO.C,R12*%
X149220000Y-137700000D03*
X150870000Y-137700000D03*
%TD*%
D22*
%TO.C,C16*%
X48050000Y-110890000D03*
X42650000Y-110890000D03*
%TD*%
D14*
%TO.C,R26*%
X123915000Y-116485000D03*
X122265000Y-116485000D03*
%TD*%
D39*
%TO.C,Q1*%
X50580000Y-140970000D03*
X48680000Y-140970000D03*
X49630000Y-143450000D03*
%TD*%
D21*
%TO.C,C31*%
X111980000Y-109480000D03*
X110080000Y-109480000D03*
%TD*%
D28*
%TO.C,R23*%
X103285000Y-156540000D03*
X104935000Y-156540000D03*
%TD*%
D40*
%TO.C,D2*%
X105090000Y-112210000D03*
X105090000Y-119070000D03*
%TD*%
D10*
%TO.C,R18*%
X111360000Y-158185000D03*
X111360000Y-159835000D03*
%TD*%
D22*
%TO.C,C32*%
X108825000Y-143210000D03*
X103425000Y-143210000D03*
%TD*%
D15*
%TO.C,C40*%
X98050000Y-108320000D03*
X98050000Y-110220000D03*
%TD*%
D10*
%TO.C,R3*%
X85990000Y-149275000D03*
X85990000Y-150925000D03*
%TD*%
D11*
%TO.C,C33*%
X109160000Y-159800000D03*
X109160000Y-157900000D03*
%TD*%
D15*
%TO.C,C21*%
X149350000Y-109460000D03*
X149350000Y-111360000D03*
%TD*%
D21*
%TO.C,C39*%
X111940000Y-115730000D03*
X110040000Y-115730000D03*
%TD*%
D14*
%TO.C,R6*%
X45675000Y-148700000D03*
X44025000Y-148700000D03*
%TD*%
D41*
%TO.C,U5*%
X107865000Y-154390000D03*
X108365000Y-154390000D03*
X108865000Y-154390000D03*
X109365000Y-154390000D03*
D42*
X110115000Y-153640000D03*
X110115000Y-153140000D03*
X110115000Y-152640000D03*
X110115000Y-152140000D03*
D41*
X109365000Y-151390000D03*
X108865000Y-151390000D03*
X108365000Y-151390000D03*
X107865000Y-151390000D03*
D42*
X107115000Y-152140000D03*
X107115000Y-152640000D03*
X107115000Y-153140000D03*
X107115000Y-153640000D03*
D43*
X108615000Y-152890000D03*
%TD*%
D24*
%TO.C,C14*%
X43880000Y-144130000D03*
X45780000Y-144130000D03*
%TD*%
D34*
%TO.C,C24*%
X146340000Y-111527500D03*
X146340000Y-108827500D03*
%TD*%
D10*
%TO.C,R14*%
X100290000Y-107680000D03*
X100290000Y-109330000D03*
%TD*%
D20*
%TO.C,R27*%
X122050000Y-119950000D03*
X122050000Y-118300000D03*
%TD*%
D21*
%TO.C,C37*%
X121370000Y-149860000D03*
X119470000Y-149860000D03*
%TD*%
D24*
%TO.C,C7*%
X94420000Y-147740000D03*
X96320000Y-147740000D03*
%TD*%
D44*
%TO.C,C29*%
X109770000Y-107220000D03*
X112470000Y-107220000D03*
%TD*%
D45*
%TO.C,L2*%
X109110000Y-124470000D03*
X109110000Y-130470000D03*
%TD*%
D27*
%TO.C,C26*%
X124370000Y-123160000D03*
X124370000Y-125860000D03*
%TD*%
D24*
%TO.C,C13*%
X43930000Y-141660000D03*
X45830000Y-141660000D03*
%TD*%
D21*
%TO.C,C36*%
X121430000Y-155820000D03*
X119530000Y-155820000D03*
%TD*%
D46*
%TO.C,C44*%
X99570000Y-129220000D03*
X99570000Y-134620000D03*
%TD*%
D24*
%TO.C,C35*%
X119530000Y-152810000D03*
X121430000Y-152810000D03*
%TD*%
D28*
%TO.C,R16*%
X111795000Y-154210000D03*
X113445000Y-154210000D03*
%TD*%
D21*
%TO.C,C10*%
X46430000Y-126220000D03*
X44530000Y-126220000D03*
%TD*%
D24*
%TO.C,C15*%
X43880000Y-146590000D03*
X45780000Y-146590000D03*
%TD*%
D47*
%TO.C,LED1*%
X150995000Y-139630000D03*
X149495000Y-139630000D03*
%TD*%
D48*
%TO.C,C30*%
X118230000Y-113490000D03*
X118230000Y-108090000D03*
%TD*%
D14*
%TO.C,R7*%
X71845000Y-150780000D03*
X70195000Y-150780000D03*
%TD*%
D21*
%TO.C,C23*%
X134760000Y-137520000D03*
X132860000Y-137520000D03*
%TD*%
D24*
%TO.C,C6*%
X94500000Y-145140000D03*
X96400000Y-145140000D03*
%TD*%
D21*
%TO.C,C22*%
X126090000Y-136630000D03*
X124190000Y-136630000D03*
%TD*%
D49*
%TO.C,FPC1*%
X54400000Y-147477500D03*
X54900000Y-147477500D03*
X55400000Y-147477500D03*
X55900000Y-147477500D03*
X56400000Y-147477500D03*
X56900000Y-147477500D03*
X57400000Y-147477500D03*
X57900000Y-147477500D03*
X58400000Y-147477500D03*
X58900000Y-147477500D03*
X59400000Y-147477500D03*
X59900000Y-147477500D03*
X60400000Y-147477500D03*
X60900000Y-147477500D03*
X61400000Y-147477500D03*
X61900000Y-147477500D03*
X62400000Y-147477500D03*
X62900000Y-147477500D03*
X63400000Y-147477500D03*
X63900000Y-147477500D03*
D50*
X65590000Y-150057500D03*
X52710000Y-150057500D03*
D51*
X72850000Y-155670000D03*
X73350000Y-155670000D03*
X73850000Y-155670000D03*
X74350000Y-155670000D03*
X74850000Y-155670000D03*
X75350000Y-155670000D03*
D52*
X77500000Y-158370000D03*
X70700000Y-158370000D03*
%TD*%
D53*
%TO.C,D1*%
X114360000Y-118600000D03*
X110500000Y-118600000D03*
%TD*%
D54*
%TO.C,U2*%
X65490000Y-106517500D03*
X65490000Y-107787500D03*
X65490000Y-109057500D03*
X65490000Y-110327500D03*
X65490000Y-111597500D03*
X65490000Y-112867500D03*
X65490000Y-114137500D03*
X65490000Y-115407500D03*
X65490000Y-116677500D03*
X65490000Y-117947500D03*
X65490000Y-119217500D03*
X65490000Y-120487500D03*
X65490000Y-121757500D03*
X65490000Y-123027500D03*
D55*
X68780000Y-124517500D03*
X70050000Y-124517500D03*
X71320000Y-124517500D03*
X72590000Y-124517500D03*
X73860000Y-124517500D03*
X75130000Y-124517500D03*
X76400000Y-124517500D03*
X77670000Y-124517500D03*
X78940000Y-124517500D03*
X80210000Y-124517500D03*
D54*
X83490000Y-123027500D03*
X83490000Y-121757500D03*
X83490000Y-120487500D03*
X83490000Y-119217500D03*
X83490000Y-117947500D03*
X83490000Y-116677500D03*
X83490000Y-115407500D03*
X83490000Y-114137500D03*
X83490000Y-112867500D03*
X83490000Y-111597500D03*
X83490000Y-110327500D03*
X83490000Y-109057500D03*
X83490000Y-107787500D03*
X83490000Y-106517500D03*
D56*
X74390000Y-112797500D03*
X72990000Y-112797500D03*
X71590000Y-112797500D03*
X74390000Y-114197500D03*
X72990000Y-114197500D03*
X71590000Y-114197500D03*
X74390000Y-115597500D03*
X72990000Y-115597500D03*
X71590000Y-115597500D03*
%TD*%
M02*
