%TF.GenerationSoftware,KiCad,Pcbnew,8.0.1*%
%TF.CreationDate,2025-06-21T23:19:00+05:45*%
%TF.ProjectId,MOBILE,4d4f4249-4c45-42e6-9b69-6361645f7063,rev?*%
%TF.SameCoordinates,Original*%
%TF.FileFunction,Legend,Top*%
%TF.FilePolarity,Positive*%
%FSLAX46Y46*%
G04 Gerber Fmt 4.6, Leading zero omitted, Abs format (unit mm)*
G04 Created by KiCad (PCBNEW 8.0.1) date 2025-06-21 23:19:00*
%MOMM*%
%LPD*%
G01*
G04 APERTURE LIST*
%ADD10C,0.150000*%
%ADD11C,0.120000*%
%ADD12C,0.250000*%
%ADD13C,0.400000*%
%ADD14C,0.300000*%
%ADD15C,0.200000*%
%ADD16C,0.100000*%
%ADD17C,0.130000*%
G04 APERTURE END LIST*
D10*
X92524819Y-150076666D02*
X92048628Y-150409999D01*
X92524819Y-150648094D02*
X91524819Y-150648094D01*
X91524819Y-150648094D02*
X91524819Y-150267142D01*
X91524819Y-150267142D02*
X91572438Y-150171904D01*
X91572438Y-150171904D02*
X91620057Y-150124285D01*
X91620057Y-150124285D02*
X91715295Y-150076666D01*
X91715295Y-150076666D02*
X91858152Y-150076666D01*
X91858152Y-150076666D02*
X91953390Y-150124285D01*
X91953390Y-150124285D02*
X92001009Y-150171904D01*
X92001009Y-150171904D02*
X92048628Y-150267142D01*
X92048628Y-150267142D02*
X92048628Y-150648094D01*
X91620057Y-149695713D02*
X91572438Y-149648094D01*
X91572438Y-149648094D02*
X91524819Y-149552856D01*
X91524819Y-149552856D02*
X91524819Y-149314761D01*
X91524819Y-149314761D02*
X91572438Y-149219523D01*
X91572438Y-149219523D02*
X91620057Y-149171904D01*
X91620057Y-149171904D02*
X91715295Y-149124285D01*
X91715295Y-149124285D02*
X91810533Y-149124285D01*
X91810533Y-149124285D02*
X91953390Y-149171904D01*
X91953390Y-149171904D02*
X92524819Y-149743332D01*
X92524819Y-149743332D02*
X92524819Y-149124285D01*
X127609580Y-133592857D02*
X127657200Y-133640476D01*
X127657200Y-133640476D02*
X127704819Y-133783333D01*
X127704819Y-133783333D02*
X127704819Y-133878571D01*
X127704819Y-133878571D02*
X127657200Y-134021428D01*
X127657200Y-134021428D02*
X127561961Y-134116666D01*
X127561961Y-134116666D02*
X127466723Y-134164285D01*
X127466723Y-134164285D02*
X127276247Y-134211904D01*
X127276247Y-134211904D02*
X127133390Y-134211904D01*
X127133390Y-134211904D02*
X126942914Y-134164285D01*
X126942914Y-134164285D02*
X126847676Y-134116666D01*
X126847676Y-134116666D02*
X126752438Y-134021428D01*
X126752438Y-134021428D02*
X126704819Y-133878571D01*
X126704819Y-133878571D02*
X126704819Y-133783333D01*
X126704819Y-133783333D02*
X126752438Y-133640476D01*
X126752438Y-133640476D02*
X126800057Y-133592857D01*
X126800057Y-133211904D02*
X126752438Y-133164285D01*
X126752438Y-133164285D02*
X126704819Y-133069047D01*
X126704819Y-133069047D02*
X126704819Y-132830952D01*
X126704819Y-132830952D02*
X126752438Y-132735714D01*
X126752438Y-132735714D02*
X126800057Y-132688095D01*
X126800057Y-132688095D02*
X126895295Y-132640476D01*
X126895295Y-132640476D02*
X126990533Y-132640476D01*
X126990533Y-132640476D02*
X127133390Y-132688095D01*
X127133390Y-132688095D02*
X127704819Y-133259523D01*
X127704819Y-133259523D02*
X127704819Y-132640476D01*
X126704819Y-131735714D02*
X126704819Y-132211904D01*
X126704819Y-132211904D02*
X127181009Y-132259523D01*
X127181009Y-132259523D02*
X127133390Y-132211904D01*
X127133390Y-132211904D02*
X127085771Y-132116666D01*
X127085771Y-132116666D02*
X127085771Y-131878571D01*
X127085771Y-131878571D02*
X127133390Y-131783333D01*
X127133390Y-131783333D02*
X127181009Y-131735714D01*
X127181009Y-131735714D02*
X127276247Y-131688095D01*
X127276247Y-131688095D02*
X127514342Y-131688095D01*
X127514342Y-131688095D02*
X127609580Y-131735714D01*
X127609580Y-131735714D02*
X127657200Y-131783333D01*
X127657200Y-131783333D02*
X127704819Y-131878571D01*
X127704819Y-131878571D02*
X127704819Y-132116666D01*
X127704819Y-132116666D02*
X127657200Y-132211904D01*
X127657200Y-132211904D02*
X127609580Y-132259523D01*
X140949047Y-142836811D02*
X140901428Y-142884431D01*
X140901428Y-142884431D02*
X140758571Y-142932050D01*
X140758571Y-142932050D02*
X140663333Y-142932050D01*
X140663333Y-142932050D02*
X140520476Y-142884431D01*
X140520476Y-142884431D02*
X140425238Y-142789192D01*
X140425238Y-142789192D02*
X140377619Y-142693954D01*
X140377619Y-142693954D02*
X140330000Y-142503478D01*
X140330000Y-142503478D02*
X140330000Y-142360621D01*
X140330000Y-142360621D02*
X140377619Y-142170145D01*
X140377619Y-142170145D02*
X140425238Y-142074907D01*
X140425238Y-142074907D02*
X140520476Y-141979669D01*
X140520476Y-141979669D02*
X140663333Y-141932050D01*
X140663333Y-141932050D02*
X140758571Y-141932050D01*
X140758571Y-141932050D02*
X140901428Y-141979669D01*
X140901428Y-141979669D02*
X140949047Y-142027288D01*
X141806190Y-142932050D02*
X141806190Y-142408240D01*
X141806190Y-142408240D02*
X141758571Y-142313002D01*
X141758571Y-142313002D02*
X141663333Y-142265383D01*
X141663333Y-142265383D02*
X141472857Y-142265383D01*
X141472857Y-142265383D02*
X141377619Y-142313002D01*
X141806190Y-142884431D02*
X141710952Y-142932050D01*
X141710952Y-142932050D02*
X141472857Y-142932050D01*
X141472857Y-142932050D02*
X141377619Y-142884431D01*
X141377619Y-142884431D02*
X141330000Y-142789192D01*
X141330000Y-142789192D02*
X141330000Y-142693954D01*
X141330000Y-142693954D02*
X141377619Y-142598716D01*
X141377619Y-142598716D02*
X141472857Y-142551097D01*
X141472857Y-142551097D02*
X141710952Y-142551097D01*
X141710952Y-142551097D02*
X141806190Y-142503478D01*
X142282381Y-142932050D02*
X142282381Y-142265383D01*
X142282381Y-142455859D02*
X142330000Y-142360621D01*
X142330000Y-142360621D02*
X142377619Y-142313002D01*
X142377619Y-142313002D02*
X142472857Y-142265383D01*
X142472857Y-142265383D02*
X142568095Y-142265383D01*
X143330000Y-142932050D02*
X143330000Y-141932050D01*
X143330000Y-142884431D02*
X143234762Y-142932050D01*
X143234762Y-142932050D02*
X143044286Y-142932050D01*
X143044286Y-142932050D02*
X142949048Y-142884431D01*
X142949048Y-142884431D02*
X142901429Y-142836811D01*
X142901429Y-142836811D02*
X142853810Y-142741573D01*
X142853810Y-142741573D02*
X142853810Y-142455859D01*
X142853810Y-142455859D02*
X142901429Y-142360621D01*
X142901429Y-142360621D02*
X142949048Y-142313002D01*
X142949048Y-142313002D02*
X143044286Y-142265383D01*
X143044286Y-142265383D02*
X143234762Y-142265383D01*
X143234762Y-142265383D02*
X143330000Y-142313002D01*
X144330000Y-142932050D02*
X143758572Y-142932050D01*
X144044286Y-142932050D02*
X144044286Y-141932050D01*
X144044286Y-141932050D02*
X143949048Y-142074907D01*
X143949048Y-142074907D02*
X143853810Y-142170145D01*
X143853810Y-142170145D02*
X143758572Y-142217764D01*
X54473333Y-141524819D02*
X54140000Y-141048628D01*
X53901905Y-141524819D02*
X53901905Y-140524819D01*
X53901905Y-140524819D02*
X54282857Y-140524819D01*
X54282857Y-140524819D02*
X54378095Y-140572438D01*
X54378095Y-140572438D02*
X54425714Y-140620057D01*
X54425714Y-140620057D02*
X54473333Y-140715295D01*
X54473333Y-140715295D02*
X54473333Y-140858152D01*
X54473333Y-140858152D02*
X54425714Y-140953390D01*
X54425714Y-140953390D02*
X54378095Y-141001009D01*
X54378095Y-141001009D02*
X54282857Y-141048628D01*
X54282857Y-141048628D02*
X53901905Y-141048628D01*
X55330476Y-140858152D02*
X55330476Y-141524819D01*
X55092381Y-140477200D02*
X54854286Y-141191485D01*
X54854286Y-141191485D02*
X55473333Y-141191485D01*
X55439580Y-124216666D02*
X55487200Y-124264285D01*
X55487200Y-124264285D02*
X55534819Y-124407142D01*
X55534819Y-124407142D02*
X55534819Y-124502380D01*
X55534819Y-124502380D02*
X55487200Y-124645237D01*
X55487200Y-124645237D02*
X55391961Y-124740475D01*
X55391961Y-124740475D02*
X55296723Y-124788094D01*
X55296723Y-124788094D02*
X55106247Y-124835713D01*
X55106247Y-124835713D02*
X54963390Y-124835713D01*
X54963390Y-124835713D02*
X54772914Y-124788094D01*
X54772914Y-124788094D02*
X54677676Y-124740475D01*
X54677676Y-124740475D02*
X54582438Y-124645237D01*
X54582438Y-124645237D02*
X54534819Y-124502380D01*
X54534819Y-124502380D02*
X54534819Y-124407142D01*
X54534819Y-124407142D02*
X54582438Y-124264285D01*
X54582438Y-124264285D02*
X54630057Y-124216666D01*
X54534819Y-123883332D02*
X54534819Y-123264285D01*
X54534819Y-123264285D02*
X54915771Y-123597618D01*
X54915771Y-123597618D02*
X54915771Y-123454761D01*
X54915771Y-123454761D02*
X54963390Y-123359523D01*
X54963390Y-123359523D02*
X55011009Y-123311904D01*
X55011009Y-123311904D02*
X55106247Y-123264285D01*
X55106247Y-123264285D02*
X55344342Y-123264285D01*
X55344342Y-123264285D02*
X55439580Y-123311904D01*
X55439580Y-123311904D02*
X55487200Y-123359523D01*
X55487200Y-123359523D02*
X55534819Y-123454761D01*
X55534819Y-123454761D02*
X55534819Y-123740475D01*
X55534819Y-123740475D02*
X55487200Y-123835713D01*
X55487200Y-123835713D02*
X55439580Y-123883332D01*
X125084761Y-124645057D02*
X124989523Y-124597438D01*
X124989523Y-124597438D02*
X124894285Y-124502200D01*
X124894285Y-124502200D02*
X124751428Y-124359342D01*
X124751428Y-124359342D02*
X124656190Y-124311723D01*
X124656190Y-124311723D02*
X124560952Y-124311723D01*
X124608571Y-124549819D02*
X124513333Y-124502200D01*
X124513333Y-124502200D02*
X124418095Y-124406961D01*
X124418095Y-124406961D02*
X124370476Y-124216485D01*
X124370476Y-124216485D02*
X124370476Y-123883152D01*
X124370476Y-123883152D02*
X124418095Y-123692676D01*
X124418095Y-123692676D02*
X124513333Y-123597438D01*
X124513333Y-123597438D02*
X124608571Y-123549819D01*
X124608571Y-123549819D02*
X124799047Y-123549819D01*
X124799047Y-123549819D02*
X124894285Y-123597438D01*
X124894285Y-123597438D02*
X124989523Y-123692676D01*
X124989523Y-123692676D02*
X125037142Y-123883152D01*
X125037142Y-123883152D02*
X125037142Y-124216485D01*
X125037142Y-124216485D02*
X124989523Y-124406961D01*
X124989523Y-124406961D02*
X124894285Y-124502200D01*
X124894285Y-124502200D02*
X124799047Y-124549819D01*
X124799047Y-124549819D02*
X124608571Y-124549819D01*
X125418095Y-123645057D02*
X125465714Y-123597438D01*
X125465714Y-123597438D02*
X125560952Y-123549819D01*
X125560952Y-123549819D02*
X125799047Y-123549819D01*
X125799047Y-123549819D02*
X125894285Y-123597438D01*
X125894285Y-123597438D02*
X125941904Y-123645057D01*
X125941904Y-123645057D02*
X125989523Y-123740295D01*
X125989523Y-123740295D02*
X125989523Y-123835533D01*
X125989523Y-123835533D02*
X125941904Y-123978390D01*
X125941904Y-123978390D02*
X125370476Y-124549819D01*
X125370476Y-124549819D02*
X125989523Y-124549819D01*
X47198095Y-135667319D02*
X47198095Y-136476842D01*
X47198095Y-136476842D02*
X47245714Y-136572080D01*
X47245714Y-136572080D02*
X47293333Y-136619700D01*
X47293333Y-136619700D02*
X47388571Y-136667319D01*
X47388571Y-136667319D02*
X47579047Y-136667319D01*
X47579047Y-136667319D02*
X47674285Y-136619700D01*
X47674285Y-136619700D02*
X47721904Y-136572080D01*
X47721904Y-136572080D02*
X47769523Y-136476842D01*
X47769523Y-136476842D02*
X47769523Y-135667319D01*
X48769523Y-136667319D02*
X48198095Y-136667319D01*
X48483809Y-136667319D02*
X48483809Y-135667319D01*
X48483809Y-135667319D02*
X48388571Y-135810176D01*
X48388571Y-135810176D02*
X48293333Y-135905414D01*
X48293333Y-135905414D02*
X48198095Y-135953033D01*
X57569580Y-124126666D02*
X57617200Y-124174285D01*
X57617200Y-124174285D02*
X57664819Y-124317142D01*
X57664819Y-124317142D02*
X57664819Y-124412380D01*
X57664819Y-124412380D02*
X57617200Y-124555237D01*
X57617200Y-124555237D02*
X57521961Y-124650475D01*
X57521961Y-124650475D02*
X57426723Y-124698094D01*
X57426723Y-124698094D02*
X57236247Y-124745713D01*
X57236247Y-124745713D02*
X57093390Y-124745713D01*
X57093390Y-124745713D02*
X56902914Y-124698094D01*
X56902914Y-124698094D02*
X56807676Y-124650475D01*
X56807676Y-124650475D02*
X56712438Y-124555237D01*
X56712438Y-124555237D02*
X56664819Y-124412380D01*
X56664819Y-124412380D02*
X56664819Y-124317142D01*
X56664819Y-124317142D02*
X56712438Y-124174285D01*
X56712438Y-124174285D02*
X56760057Y-124126666D01*
X57664819Y-123174285D02*
X57664819Y-123745713D01*
X57664819Y-123459999D02*
X56664819Y-123459999D01*
X56664819Y-123459999D02*
X56807676Y-123555237D01*
X56807676Y-123555237D02*
X56902914Y-123650475D01*
X56902914Y-123650475D02*
X56950533Y-123745713D01*
X54559580Y-108462857D02*
X54607200Y-108510476D01*
X54607200Y-108510476D02*
X54654819Y-108653333D01*
X54654819Y-108653333D02*
X54654819Y-108748571D01*
X54654819Y-108748571D02*
X54607200Y-108891428D01*
X54607200Y-108891428D02*
X54511961Y-108986666D01*
X54511961Y-108986666D02*
X54416723Y-109034285D01*
X54416723Y-109034285D02*
X54226247Y-109081904D01*
X54226247Y-109081904D02*
X54083390Y-109081904D01*
X54083390Y-109081904D02*
X53892914Y-109034285D01*
X53892914Y-109034285D02*
X53797676Y-108986666D01*
X53797676Y-108986666D02*
X53702438Y-108891428D01*
X53702438Y-108891428D02*
X53654819Y-108748571D01*
X53654819Y-108748571D02*
X53654819Y-108653333D01*
X53654819Y-108653333D02*
X53702438Y-108510476D01*
X53702438Y-108510476D02*
X53750057Y-108462857D01*
X54654819Y-107510476D02*
X54654819Y-108081904D01*
X54654819Y-107796190D02*
X53654819Y-107796190D01*
X53654819Y-107796190D02*
X53797676Y-107891428D01*
X53797676Y-107891428D02*
X53892914Y-107986666D01*
X53892914Y-107986666D02*
X53940533Y-108081904D01*
X54654819Y-107034285D02*
X54654819Y-106843809D01*
X54654819Y-106843809D02*
X54607200Y-106748571D01*
X54607200Y-106748571D02*
X54559580Y-106700952D01*
X54559580Y-106700952D02*
X54416723Y-106605714D01*
X54416723Y-106605714D02*
X54226247Y-106558095D01*
X54226247Y-106558095D02*
X53845295Y-106558095D01*
X53845295Y-106558095D02*
X53750057Y-106605714D01*
X53750057Y-106605714D02*
X53702438Y-106653333D01*
X53702438Y-106653333D02*
X53654819Y-106748571D01*
X53654819Y-106748571D02*
X53654819Y-106939047D01*
X53654819Y-106939047D02*
X53702438Y-107034285D01*
X53702438Y-107034285D02*
X53750057Y-107081904D01*
X53750057Y-107081904D02*
X53845295Y-107129523D01*
X53845295Y-107129523D02*
X54083390Y-107129523D01*
X54083390Y-107129523D02*
X54178628Y-107081904D01*
X54178628Y-107081904D02*
X54226247Y-107034285D01*
X54226247Y-107034285D02*
X54273866Y-106939047D01*
X54273866Y-106939047D02*
X54273866Y-106748571D01*
X54273866Y-106748571D02*
X54226247Y-106653333D01*
X54226247Y-106653333D02*
X54178628Y-106605714D01*
X54178628Y-106605714D02*
X54083390Y-106558095D01*
X114968333Y-146964819D02*
X114492143Y-146964819D01*
X114492143Y-146964819D02*
X114492143Y-145964819D01*
X115206429Y-145964819D02*
X115825476Y-145964819D01*
X115825476Y-145964819D02*
X115492143Y-146345771D01*
X115492143Y-146345771D02*
X115635000Y-146345771D01*
X115635000Y-146345771D02*
X115730238Y-146393390D01*
X115730238Y-146393390D02*
X115777857Y-146441009D01*
X115777857Y-146441009D02*
X115825476Y-146536247D01*
X115825476Y-146536247D02*
X115825476Y-146774342D01*
X115825476Y-146774342D02*
X115777857Y-146869580D01*
X115777857Y-146869580D02*
X115730238Y-146917200D01*
X115730238Y-146917200D02*
X115635000Y-146964819D01*
X115635000Y-146964819D02*
X115349286Y-146964819D01*
X115349286Y-146964819D02*
X115254048Y-146917200D01*
X115254048Y-146917200D02*
X115206429Y-146869580D01*
X61729580Y-108372857D02*
X61777200Y-108420476D01*
X61777200Y-108420476D02*
X61824819Y-108563333D01*
X61824819Y-108563333D02*
X61824819Y-108658571D01*
X61824819Y-108658571D02*
X61777200Y-108801428D01*
X61777200Y-108801428D02*
X61681961Y-108896666D01*
X61681961Y-108896666D02*
X61586723Y-108944285D01*
X61586723Y-108944285D02*
X61396247Y-108991904D01*
X61396247Y-108991904D02*
X61253390Y-108991904D01*
X61253390Y-108991904D02*
X61062914Y-108944285D01*
X61062914Y-108944285D02*
X60967676Y-108896666D01*
X60967676Y-108896666D02*
X60872438Y-108801428D01*
X60872438Y-108801428D02*
X60824819Y-108658571D01*
X60824819Y-108658571D02*
X60824819Y-108563333D01*
X60824819Y-108563333D02*
X60872438Y-108420476D01*
X60872438Y-108420476D02*
X60920057Y-108372857D01*
X61824819Y-107420476D02*
X61824819Y-107991904D01*
X61824819Y-107706190D02*
X60824819Y-107706190D01*
X60824819Y-107706190D02*
X60967676Y-107801428D01*
X60967676Y-107801428D02*
X61062914Y-107896666D01*
X61062914Y-107896666D02*
X61110533Y-107991904D01*
X61253390Y-106849047D02*
X61205771Y-106944285D01*
X61205771Y-106944285D02*
X61158152Y-106991904D01*
X61158152Y-106991904D02*
X61062914Y-107039523D01*
X61062914Y-107039523D02*
X61015295Y-107039523D01*
X61015295Y-107039523D02*
X60920057Y-106991904D01*
X60920057Y-106991904D02*
X60872438Y-106944285D01*
X60872438Y-106944285D02*
X60824819Y-106849047D01*
X60824819Y-106849047D02*
X60824819Y-106658571D01*
X60824819Y-106658571D02*
X60872438Y-106563333D01*
X60872438Y-106563333D02*
X60920057Y-106515714D01*
X60920057Y-106515714D02*
X61015295Y-106468095D01*
X61015295Y-106468095D02*
X61062914Y-106468095D01*
X61062914Y-106468095D02*
X61158152Y-106515714D01*
X61158152Y-106515714D02*
X61205771Y-106563333D01*
X61205771Y-106563333D02*
X61253390Y-106658571D01*
X61253390Y-106658571D02*
X61253390Y-106849047D01*
X61253390Y-106849047D02*
X61301009Y-106944285D01*
X61301009Y-106944285D02*
X61348628Y-106991904D01*
X61348628Y-106991904D02*
X61443866Y-107039523D01*
X61443866Y-107039523D02*
X61634342Y-107039523D01*
X61634342Y-107039523D02*
X61729580Y-106991904D01*
X61729580Y-106991904D02*
X61777200Y-106944285D01*
X61777200Y-106944285D02*
X61824819Y-106849047D01*
X61824819Y-106849047D02*
X61824819Y-106658571D01*
X61824819Y-106658571D02*
X61777200Y-106563333D01*
X61777200Y-106563333D02*
X61729580Y-106515714D01*
X61729580Y-106515714D02*
X61634342Y-106468095D01*
X61634342Y-106468095D02*
X61443866Y-106468095D01*
X61443866Y-106468095D02*
X61348628Y-106515714D01*
X61348628Y-106515714D02*
X61301009Y-106563333D01*
X61301009Y-106563333D02*
X61253390Y-106658571D01*
X131264819Y-131742857D02*
X130788628Y-132076190D01*
X131264819Y-132314285D02*
X130264819Y-132314285D01*
X130264819Y-132314285D02*
X130264819Y-131933333D01*
X130264819Y-131933333D02*
X130312438Y-131838095D01*
X130312438Y-131838095D02*
X130360057Y-131790476D01*
X130360057Y-131790476D02*
X130455295Y-131742857D01*
X130455295Y-131742857D02*
X130598152Y-131742857D01*
X130598152Y-131742857D02*
X130693390Y-131790476D01*
X130693390Y-131790476D02*
X130741009Y-131838095D01*
X130741009Y-131838095D02*
X130788628Y-131933333D01*
X130788628Y-131933333D02*
X130788628Y-132314285D01*
X131264819Y-130790476D02*
X131264819Y-131361904D01*
X131264819Y-131076190D02*
X130264819Y-131076190D01*
X130264819Y-131076190D02*
X130407676Y-131171428D01*
X130407676Y-131171428D02*
X130502914Y-131266666D01*
X130502914Y-131266666D02*
X130550533Y-131361904D01*
X131264819Y-129838095D02*
X131264819Y-130409523D01*
X131264819Y-130123809D02*
X130264819Y-130123809D01*
X130264819Y-130123809D02*
X130407676Y-130219047D01*
X130407676Y-130219047D02*
X130502914Y-130314285D01*
X130502914Y-130314285D02*
X130550533Y-130409523D01*
X116737142Y-131139580D02*
X116689523Y-131187200D01*
X116689523Y-131187200D02*
X116546666Y-131234819D01*
X116546666Y-131234819D02*
X116451428Y-131234819D01*
X116451428Y-131234819D02*
X116308571Y-131187200D01*
X116308571Y-131187200D02*
X116213333Y-131091961D01*
X116213333Y-131091961D02*
X116165714Y-130996723D01*
X116165714Y-130996723D02*
X116118095Y-130806247D01*
X116118095Y-130806247D02*
X116118095Y-130663390D01*
X116118095Y-130663390D02*
X116165714Y-130472914D01*
X116165714Y-130472914D02*
X116213333Y-130377676D01*
X116213333Y-130377676D02*
X116308571Y-130282438D01*
X116308571Y-130282438D02*
X116451428Y-130234819D01*
X116451428Y-130234819D02*
X116546666Y-130234819D01*
X116546666Y-130234819D02*
X116689523Y-130282438D01*
X116689523Y-130282438D02*
X116737142Y-130330057D01*
X117594285Y-130568152D02*
X117594285Y-131234819D01*
X117356190Y-130187200D02*
X117118095Y-130901485D01*
X117118095Y-130901485D02*
X117737142Y-130901485D01*
X118641904Y-131234819D02*
X118070476Y-131234819D01*
X118356190Y-131234819D02*
X118356190Y-130234819D01*
X118356190Y-130234819D02*
X118260952Y-130377676D01*
X118260952Y-130377676D02*
X118165714Y-130472914D01*
X118165714Y-130472914D02*
X118070476Y-130520533D01*
X69648333Y-134377319D02*
X69315000Y-133901128D01*
X69076905Y-134377319D02*
X69076905Y-133377319D01*
X69076905Y-133377319D02*
X69457857Y-133377319D01*
X69457857Y-133377319D02*
X69553095Y-133424938D01*
X69553095Y-133424938D02*
X69600714Y-133472557D01*
X69600714Y-133472557D02*
X69648333Y-133567795D01*
X69648333Y-133567795D02*
X69648333Y-133710652D01*
X69648333Y-133710652D02*
X69600714Y-133805890D01*
X69600714Y-133805890D02*
X69553095Y-133853509D01*
X69553095Y-133853509D02*
X69457857Y-133901128D01*
X69457857Y-133901128D02*
X69076905Y-133901128D01*
X70219762Y-133805890D02*
X70124524Y-133758271D01*
X70124524Y-133758271D02*
X70076905Y-133710652D01*
X70076905Y-133710652D02*
X70029286Y-133615414D01*
X70029286Y-133615414D02*
X70029286Y-133567795D01*
X70029286Y-133567795D02*
X70076905Y-133472557D01*
X70076905Y-133472557D02*
X70124524Y-133424938D01*
X70124524Y-133424938D02*
X70219762Y-133377319D01*
X70219762Y-133377319D02*
X70410238Y-133377319D01*
X70410238Y-133377319D02*
X70505476Y-133424938D01*
X70505476Y-133424938D02*
X70553095Y-133472557D01*
X70553095Y-133472557D02*
X70600714Y-133567795D01*
X70600714Y-133567795D02*
X70600714Y-133615414D01*
X70600714Y-133615414D02*
X70553095Y-133710652D01*
X70553095Y-133710652D02*
X70505476Y-133758271D01*
X70505476Y-133758271D02*
X70410238Y-133805890D01*
X70410238Y-133805890D02*
X70219762Y-133805890D01*
X70219762Y-133805890D02*
X70124524Y-133853509D01*
X70124524Y-133853509D02*
X70076905Y-133901128D01*
X70076905Y-133901128D02*
X70029286Y-133996366D01*
X70029286Y-133996366D02*
X70029286Y-134186842D01*
X70029286Y-134186842D02*
X70076905Y-134282080D01*
X70076905Y-134282080D02*
X70124524Y-134329700D01*
X70124524Y-134329700D02*
X70219762Y-134377319D01*
X70219762Y-134377319D02*
X70410238Y-134377319D01*
X70410238Y-134377319D02*
X70505476Y-134329700D01*
X70505476Y-134329700D02*
X70553095Y-134282080D01*
X70553095Y-134282080D02*
X70600714Y-134186842D01*
X70600714Y-134186842D02*
X70600714Y-133996366D01*
X70600714Y-133996366D02*
X70553095Y-133901128D01*
X70553095Y-133901128D02*
X70505476Y-133853509D01*
X70505476Y-133853509D02*
X70410238Y-133805890D01*
X126877142Y-113949580D02*
X126829523Y-113997200D01*
X126829523Y-113997200D02*
X126686666Y-114044819D01*
X126686666Y-114044819D02*
X126591428Y-114044819D01*
X126591428Y-114044819D02*
X126448571Y-113997200D01*
X126448571Y-113997200D02*
X126353333Y-113901961D01*
X126353333Y-113901961D02*
X126305714Y-113806723D01*
X126305714Y-113806723D02*
X126258095Y-113616247D01*
X126258095Y-113616247D02*
X126258095Y-113473390D01*
X126258095Y-113473390D02*
X126305714Y-113282914D01*
X126305714Y-113282914D02*
X126353333Y-113187676D01*
X126353333Y-113187676D02*
X126448571Y-113092438D01*
X126448571Y-113092438D02*
X126591428Y-113044819D01*
X126591428Y-113044819D02*
X126686666Y-113044819D01*
X126686666Y-113044819D02*
X126829523Y-113092438D01*
X126829523Y-113092438D02*
X126877142Y-113140057D01*
X127258095Y-113140057D02*
X127305714Y-113092438D01*
X127305714Y-113092438D02*
X127400952Y-113044819D01*
X127400952Y-113044819D02*
X127639047Y-113044819D01*
X127639047Y-113044819D02*
X127734285Y-113092438D01*
X127734285Y-113092438D02*
X127781904Y-113140057D01*
X127781904Y-113140057D02*
X127829523Y-113235295D01*
X127829523Y-113235295D02*
X127829523Y-113330533D01*
X127829523Y-113330533D02*
X127781904Y-113473390D01*
X127781904Y-113473390D02*
X127210476Y-114044819D01*
X127210476Y-114044819D02*
X127829523Y-114044819D01*
X128162857Y-113044819D02*
X128829523Y-113044819D01*
X128829523Y-113044819D02*
X128400952Y-114044819D01*
X52049580Y-119442857D02*
X52097200Y-119490476D01*
X52097200Y-119490476D02*
X52144819Y-119633333D01*
X52144819Y-119633333D02*
X52144819Y-119728571D01*
X52144819Y-119728571D02*
X52097200Y-119871428D01*
X52097200Y-119871428D02*
X52001961Y-119966666D01*
X52001961Y-119966666D02*
X51906723Y-120014285D01*
X51906723Y-120014285D02*
X51716247Y-120061904D01*
X51716247Y-120061904D02*
X51573390Y-120061904D01*
X51573390Y-120061904D02*
X51382914Y-120014285D01*
X51382914Y-120014285D02*
X51287676Y-119966666D01*
X51287676Y-119966666D02*
X51192438Y-119871428D01*
X51192438Y-119871428D02*
X51144819Y-119728571D01*
X51144819Y-119728571D02*
X51144819Y-119633333D01*
X51144819Y-119633333D02*
X51192438Y-119490476D01*
X51192438Y-119490476D02*
X51240057Y-119442857D01*
X52144819Y-118490476D02*
X52144819Y-119061904D01*
X52144819Y-118776190D02*
X51144819Y-118776190D01*
X51144819Y-118776190D02*
X51287676Y-118871428D01*
X51287676Y-118871428D02*
X51382914Y-118966666D01*
X51382914Y-118966666D02*
X51430533Y-119061904D01*
X51240057Y-118109523D02*
X51192438Y-118061904D01*
X51192438Y-118061904D02*
X51144819Y-117966666D01*
X51144819Y-117966666D02*
X51144819Y-117728571D01*
X51144819Y-117728571D02*
X51192438Y-117633333D01*
X51192438Y-117633333D02*
X51240057Y-117585714D01*
X51240057Y-117585714D02*
X51335295Y-117538095D01*
X51335295Y-117538095D02*
X51430533Y-117538095D01*
X51430533Y-117538095D02*
X51573390Y-117585714D01*
X51573390Y-117585714D02*
X52144819Y-118157142D01*
X52144819Y-118157142D02*
X52144819Y-117538095D01*
X107782142Y-166814819D02*
X107448809Y-166338628D01*
X107210714Y-166814819D02*
X107210714Y-165814819D01*
X107210714Y-165814819D02*
X107591666Y-165814819D01*
X107591666Y-165814819D02*
X107686904Y-165862438D01*
X107686904Y-165862438D02*
X107734523Y-165910057D01*
X107734523Y-165910057D02*
X107782142Y-166005295D01*
X107782142Y-166005295D02*
X107782142Y-166148152D01*
X107782142Y-166148152D02*
X107734523Y-166243390D01*
X107734523Y-166243390D02*
X107686904Y-166291009D01*
X107686904Y-166291009D02*
X107591666Y-166338628D01*
X107591666Y-166338628D02*
X107210714Y-166338628D01*
X108734523Y-166814819D02*
X108163095Y-166814819D01*
X108448809Y-166814819D02*
X108448809Y-165814819D01*
X108448809Y-165814819D02*
X108353571Y-165957676D01*
X108353571Y-165957676D02*
X108258333Y-166052914D01*
X108258333Y-166052914D02*
X108163095Y-166100533D01*
X109210714Y-166814819D02*
X109401190Y-166814819D01*
X109401190Y-166814819D02*
X109496428Y-166767200D01*
X109496428Y-166767200D02*
X109544047Y-166719580D01*
X109544047Y-166719580D02*
X109639285Y-166576723D01*
X109639285Y-166576723D02*
X109686904Y-166386247D01*
X109686904Y-166386247D02*
X109686904Y-166005295D01*
X109686904Y-166005295D02*
X109639285Y-165910057D01*
X109639285Y-165910057D02*
X109591666Y-165862438D01*
X109591666Y-165862438D02*
X109496428Y-165814819D01*
X109496428Y-165814819D02*
X109305952Y-165814819D01*
X109305952Y-165814819D02*
X109210714Y-165862438D01*
X109210714Y-165862438D02*
X109163095Y-165910057D01*
X109163095Y-165910057D02*
X109115476Y-166005295D01*
X109115476Y-166005295D02*
X109115476Y-166243390D01*
X109115476Y-166243390D02*
X109163095Y-166338628D01*
X109163095Y-166338628D02*
X109210714Y-166386247D01*
X109210714Y-166386247D02*
X109305952Y-166433866D01*
X109305952Y-166433866D02*
X109496428Y-166433866D01*
X109496428Y-166433866D02*
X109591666Y-166386247D01*
X109591666Y-166386247D02*
X109639285Y-166338628D01*
X109639285Y-166338628D02*
X109686904Y-166243390D01*
X99854761Y-129760057D02*
X99759523Y-129712438D01*
X99759523Y-129712438D02*
X99664285Y-129617200D01*
X99664285Y-129617200D02*
X99521428Y-129474342D01*
X99521428Y-129474342D02*
X99426190Y-129426723D01*
X99426190Y-129426723D02*
X99330952Y-129426723D01*
X99378571Y-129664819D02*
X99283333Y-129617200D01*
X99283333Y-129617200D02*
X99188095Y-129521961D01*
X99188095Y-129521961D02*
X99140476Y-129331485D01*
X99140476Y-129331485D02*
X99140476Y-128998152D01*
X99140476Y-128998152D02*
X99188095Y-128807676D01*
X99188095Y-128807676D02*
X99283333Y-128712438D01*
X99283333Y-128712438D02*
X99378571Y-128664819D01*
X99378571Y-128664819D02*
X99569047Y-128664819D01*
X99569047Y-128664819D02*
X99664285Y-128712438D01*
X99664285Y-128712438D02*
X99759523Y-128807676D01*
X99759523Y-128807676D02*
X99807142Y-128998152D01*
X99807142Y-128998152D02*
X99807142Y-129331485D01*
X99807142Y-129331485D02*
X99759523Y-129521961D01*
X99759523Y-129521961D02*
X99664285Y-129617200D01*
X99664285Y-129617200D02*
X99569047Y-129664819D01*
X99569047Y-129664819D02*
X99378571Y-129664819D01*
X100140476Y-128664819D02*
X100759523Y-128664819D01*
X100759523Y-128664819D02*
X100426190Y-129045771D01*
X100426190Y-129045771D02*
X100569047Y-129045771D01*
X100569047Y-129045771D02*
X100664285Y-129093390D01*
X100664285Y-129093390D02*
X100711904Y-129141009D01*
X100711904Y-129141009D02*
X100759523Y-129236247D01*
X100759523Y-129236247D02*
X100759523Y-129474342D01*
X100759523Y-129474342D02*
X100711904Y-129569580D01*
X100711904Y-129569580D02*
X100664285Y-129617200D01*
X100664285Y-129617200D02*
X100569047Y-129664819D01*
X100569047Y-129664819D02*
X100283333Y-129664819D01*
X100283333Y-129664819D02*
X100188095Y-129617200D01*
X100188095Y-129617200D02*
X100140476Y-129569580D01*
X51749580Y-112956666D02*
X51797200Y-113004285D01*
X51797200Y-113004285D02*
X51844819Y-113147142D01*
X51844819Y-113147142D02*
X51844819Y-113242380D01*
X51844819Y-113242380D02*
X51797200Y-113385237D01*
X51797200Y-113385237D02*
X51701961Y-113480475D01*
X51701961Y-113480475D02*
X51606723Y-113528094D01*
X51606723Y-113528094D02*
X51416247Y-113575713D01*
X51416247Y-113575713D02*
X51273390Y-113575713D01*
X51273390Y-113575713D02*
X51082914Y-113528094D01*
X51082914Y-113528094D02*
X50987676Y-113480475D01*
X50987676Y-113480475D02*
X50892438Y-113385237D01*
X50892438Y-113385237D02*
X50844819Y-113242380D01*
X50844819Y-113242380D02*
X50844819Y-113147142D01*
X50844819Y-113147142D02*
X50892438Y-113004285D01*
X50892438Y-113004285D02*
X50940057Y-112956666D01*
X51178152Y-112099523D02*
X51844819Y-112099523D01*
X50797200Y-112337618D02*
X51511485Y-112575713D01*
X51511485Y-112575713D02*
X51511485Y-111956666D01*
X95013333Y-148909580D02*
X94965714Y-148957200D01*
X94965714Y-148957200D02*
X94822857Y-149004819D01*
X94822857Y-149004819D02*
X94727619Y-149004819D01*
X94727619Y-149004819D02*
X94584762Y-148957200D01*
X94584762Y-148957200D02*
X94489524Y-148861961D01*
X94489524Y-148861961D02*
X94441905Y-148766723D01*
X94441905Y-148766723D02*
X94394286Y-148576247D01*
X94394286Y-148576247D02*
X94394286Y-148433390D01*
X94394286Y-148433390D02*
X94441905Y-148242914D01*
X94441905Y-148242914D02*
X94489524Y-148147676D01*
X94489524Y-148147676D02*
X94584762Y-148052438D01*
X94584762Y-148052438D02*
X94727619Y-148004819D01*
X94727619Y-148004819D02*
X94822857Y-148004819D01*
X94822857Y-148004819D02*
X94965714Y-148052438D01*
X94965714Y-148052438D02*
X95013333Y-148100057D01*
X95489524Y-149004819D02*
X95680000Y-149004819D01*
X95680000Y-149004819D02*
X95775238Y-148957200D01*
X95775238Y-148957200D02*
X95822857Y-148909580D01*
X95822857Y-148909580D02*
X95918095Y-148766723D01*
X95918095Y-148766723D02*
X95965714Y-148576247D01*
X95965714Y-148576247D02*
X95965714Y-148195295D01*
X95965714Y-148195295D02*
X95918095Y-148100057D01*
X95918095Y-148100057D02*
X95870476Y-148052438D01*
X95870476Y-148052438D02*
X95775238Y-148004819D01*
X95775238Y-148004819D02*
X95584762Y-148004819D01*
X95584762Y-148004819D02*
X95489524Y-148052438D01*
X95489524Y-148052438D02*
X95441905Y-148100057D01*
X95441905Y-148100057D02*
X95394286Y-148195295D01*
X95394286Y-148195295D02*
X95394286Y-148433390D01*
X95394286Y-148433390D02*
X95441905Y-148528628D01*
X95441905Y-148528628D02*
X95489524Y-148576247D01*
X95489524Y-148576247D02*
X95584762Y-148623866D01*
X95584762Y-148623866D02*
X95775238Y-148623866D01*
X95775238Y-148623866D02*
X95870476Y-148576247D01*
X95870476Y-148576247D02*
X95918095Y-148528628D01*
X95918095Y-148528628D02*
X95965714Y-148433390D01*
X152809104Y-122396666D02*
X152809104Y-121920476D01*
X153094819Y-122491904D02*
X152094819Y-122158571D01*
X152094819Y-122158571D02*
X153094819Y-121825238D01*
X152571009Y-121491904D02*
X152571009Y-121158571D01*
X153094819Y-121015714D02*
X153094819Y-121491904D01*
X153094819Y-121491904D02*
X152094819Y-121491904D01*
X152094819Y-121491904D02*
X152094819Y-121015714D01*
X153094819Y-120063333D02*
X153094819Y-120634761D01*
X153094819Y-120349047D02*
X152094819Y-120349047D01*
X152094819Y-120349047D02*
X152237676Y-120444285D01*
X152237676Y-120444285D02*
X152332914Y-120539523D01*
X152332914Y-120539523D02*
X152380533Y-120634761D01*
X138819523Y-113567704D02*
X138819523Y-112920085D01*
X138819523Y-112920085D02*
X138781428Y-112843895D01*
X138781428Y-112843895D02*
X138743333Y-112805800D01*
X138743333Y-112805800D02*
X138667142Y-112767704D01*
X138667142Y-112767704D02*
X138514761Y-112767704D01*
X138514761Y-112767704D02*
X138438571Y-112805800D01*
X138438571Y-112805800D02*
X138400476Y-112843895D01*
X138400476Y-112843895D02*
X138362380Y-112920085D01*
X138362380Y-112920085D02*
X138362380Y-113567704D01*
X138057619Y-113567704D02*
X137562381Y-113567704D01*
X137562381Y-113567704D02*
X137829047Y-113262942D01*
X137829047Y-113262942D02*
X137714762Y-113262942D01*
X137714762Y-113262942D02*
X137638571Y-113224847D01*
X137638571Y-113224847D02*
X137600476Y-113186752D01*
X137600476Y-113186752D02*
X137562381Y-113110561D01*
X137562381Y-113110561D02*
X137562381Y-112920085D01*
X137562381Y-112920085D02*
X137600476Y-112843895D01*
X137600476Y-112843895D02*
X137638571Y-112805800D01*
X137638571Y-112805800D02*
X137714762Y-112767704D01*
X137714762Y-112767704D02*
X137943333Y-112767704D01*
X137943333Y-112767704D02*
X138019524Y-112805800D01*
X138019524Y-112805800D02*
X138057619Y-112843895D01*
X115347142Y-165394819D02*
X115013809Y-164918628D01*
X114775714Y-165394819D02*
X114775714Y-164394819D01*
X114775714Y-164394819D02*
X115156666Y-164394819D01*
X115156666Y-164394819D02*
X115251904Y-164442438D01*
X115251904Y-164442438D02*
X115299523Y-164490057D01*
X115299523Y-164490057D02*
X115347142Y-164585295D01*
X115347142Y-164585295D02*
X115347142Y-164728152D01*
X115347142Y-164728152D02*
X115299523Y-164823390D01*
X115299523Y-164823390D02*
X115251904Y-164871009D01*
X115251904Y-164871009D02*
X115156666Y-164918628D01*
X115156666Y-164918628D02*
X114775714Y-164918628D01*
X115728095Y-164490057D02*
X115775714Y-164442438D01*
X115775714Y-164442438D02*
X115870952Y-164394819D01*
X115870952Y-164394819D02*
X116109047Y-164394819D01*
X116109047Y-164394819D02*
X116204285Y-164442438D01*
X116204285Y-164442438D02*
X116251904Y-164490057D01*
X116251904Y-164490057D02*
X116299523Y-164585295D01*
X116299523Y-164585295D02*
X116299523Y-164680533D01*
X116299523Y-164680533D02*
X116251904Y-164823390D01*
X116251904Y-164823390D02*
X115680476Y-165394819D01*
X115680476Y-165394819D02*
X116299523Y-165394819D01*
X117204285Y-164394819D02*
X116728095Y-164394819D01*
X116728095Y-164394819D02*
X116680476Y-164871009D01*
X116680476Y-164871009D02*
X116728095Y-164823390D01*
X116728095Y-164823390D02*
X116823333Y-164775771D01*
X116823333Y-164775771D02*
X117061428Y-164775771D01*
X117061428Y-164775771D02*
X117156666Y-164823390D01*
X117156666Y-164823390D02*
X117204285Y-164871009D01*
X117204285Y-164871009D02*
X117251904Y-164966247D01*
X117251904Y-164966247D02*
X117251904Y-165204342D01*
X117251904Y-165204342D02*
X117204285Y-165299580D01*
X117204285Y-165299580D02*
X117156666Y-165347200D01*
X117156666Y-165347200D02*
X117061428Y-165394819D01*
X117061428Y-165394819D02*
X116823333Y-165394819D01*
X116823333Y-165394819D02*
X116728095Y-165347200D01*
X116728095Y-165347200D02*
X116680476Y-165299580D01*
X58149580Y-108372857D02*
X58197200Y-108420476D01*
X58197200Y-108420476D02*
X58244819Y-108563333D01*
X58244819Y-108563333D02*
X58244819Y-108658571D01*
X58244819Y-108658571D02*
X58197200Y-108801428D01*
X58197200Y-108801428D02*
X58101961Y-108896666D01*
X58101961Y-108896666D02*
X58006723Y-108944285D01*
X58006723Y-108944285D02*
X57816247Y-108991904D01*
X57816247Y-108991904D02*
X57673390Y-108991904D01*
X57673390Y-108991904D02*
X57482914Y-108944285D01*
X57482914Y-108944285D02*
X57387676Y-108896666D01*
X57387676Y-108896666D02*
X57292438Y-108801428D01*
X57292438Y-108801428D02*
X57244819Y-108658571D01*
X57244819Y-108658571D02*
X57244819Y-108563333D01*
X57244819Y-108563333D02*
X57292438Y-108420476D01*
X57292438Y-108420476D02*
X57340057Y-108372857D01*
X58244819Y-107420476D02*
X58244819Y-107991904D01*
X58244819Y-107706190D02*
X57244819Y-107706190D01*
X57244819Y-107706190D02*
X57387676Y-107801428D01*
X57387676Y-107801428D02*
X57482914Y-107896666D01*
X57482914Y-107896666D02*
X57530533Y-107991904D01*
X57244819Y-107087142D02*
X57244819Y-106420476D01*
X57244819Y-106420476D02*
X58244819Y-106849047D01*
X52939580Y-119675357D02*
X52987200Y-119722976D01*
X52987200Y-119722976D02*
X53034819Y-119865833D01*
X53034819Y-119865833D02*
X53034819Y-119961071D01*
X53034819Y-119961071D02*
X52987200Y-120103928D01*
X52987200Y-120103928D02*
X52891961Y-120199166D01*
X52891961Y-120199166D02*
X52796723Y-120246785D01*
X52796723Y-120246785D02*
X52606247Y-120294404D01*
X52606247Y-120294404D02*
X52463390Y-120294404D01*
X52463390Y-120294404D02*
X52272914Y-120246785D01*
X52272914Y-120246785D02*
X52177676Y-120199166D01*
X52177676Y-120199166D02*
X52082438Y-120103928D01*
X52082438Y-120103928D02*
X52034819Y-119961071D01*
X52034819Y-119961071D02*
X52034819Y-119865833D01*
X52034819Y-119865833D02*
X52082438Y-119722976D01*
X52082438Y-119722976D02*
X52130057Y-119675357D01*
X52368152Y-118818214D02*
X53034819Y-118818214D01*
X51987200Y-119056309D02*
X52701485Y-119294404D01*
X52701485Y-119294404D02*
X52701485Y-118675357D01*
X52034819Y-117818214D02*
X52034819Y-118294404D01*
X52034819Y-118294404D02*
X52511009Y-118342023D01*
X52511009Y-118342023D02*
X52463390Y-118294404D01*
X52463390Y-118294404D02*
X52415771Y-118199166D01*
X52415771Y-118199166D02*
X52415771Y-117961071D01*
X52415771Y-117961071D02*
X52463390Y-117865833D01*
X52463390Y-117865833D02*
X52511009Y-117818214D01*
X52511009Y-117818214D02*
X52606247Y-117770595D01*
X52606247Y-117770595D02*
X52844342Y-117770595D01*
X52844342Y-117770595D02*
X52939580Y-117818214D01*
X52939580Y-117818214D02*
X52987200Y-117865833D01*
X52987200Y-117865833D02*
X53034819Y-117961071D01*
X53034819Y-117961071D02*
X53034819Y-118199166D01*
X53034819Y-118199166D02*
X52987200Y-118294404D01*
X52987200Y-118294404D02*
X52939580Y-118342023D01*
X125759580Y-124797857D02*
X125807200Y-124845476D01*
X125807200Y-124845476D02*
X125854819Y-124988333D01*
X125854819Y-124988333D02*
X125854819Y-125083571D01*
X125854819Y-125083571D02*
X125807200Y-125226428D01*
X125807200Y-125226428D02*
X125711961Y-125321666D01*
X125711961Y-125321666D02*
X125616723Y-125369285D01*
X125616723Y-125369285D02*
X125426247Y-125416904D01*
X125426247Y-125416904D02*
X125283390Y-125416904D01*
X125283390Y-125416904D02*
X125092914Y-125369285D01*
X125092914Y-125369285D02*
X124997676Y-125321666D01*
X124997676Y-125321666D02*
X124902438Y-125226428D01*
X124902438Y-125226428D02*
X124854819Y-125083571D01*
X124854819Y-125083571D02*
X124854819Y-124988333D01*
X124854819Y-124988333D02*
X124902438Y-124845476D01*
X124902438Y-124845476D02*
X124950057Y-124797857D01*
X124950057Y-124416904D02*
X124902438Y-124369285D01*
X124902438Y-124369285D02*
X124854819Y-124274047D01*
X124854819Y-124274047D02*
X124854819Y-124035952D01*
X124854819Y-124035952D02*
X124902438Y-123940714D01*
X124902438Y-123940714D02*
X124950057Y-123893095D01*
X124950057Y-123893095D02*
X125045295Y-123845476D01*
X125045295Y-123845476D02*
X125140533Y-123845476D01*
X125140533Y-123845476D02*
X125283390Y-123893095D01*
X125283390Y-123893095D02*
X125854819Y-124464523D01*
X125854819Y-124464523D02*
X125854819Y-123845476D01*
X125283390Y-123274047D02*
X125235771Y-123369285D01*
X125235771Y-123369285D02*
X125188152Y-123416904D01*
X125188152Y-123416904D02*
X125092914Y-123464523D01*
X125092914Y-123464523D02*
X125045295Y-123464523D01*
X125045295Y-123464523D02*
X124950057Y-123416904D01*
X124950057Y-123416904D02*
X124902438Y-123369285D01*
X124902438Y-123369285D02*
X124854819Y-123274047D01*
X124854819Y-123274047D02*
X124854819Y-123083571D01*
X124854819Y-123083571D02*
X124902438Y-122988333D01*
X124902438Y-122988333D02*
X124950057Y-122940714D01*
X124950057Y-122940714D02*
X125045295Y-122893095D01*
X125045295Y-122893095D02*
X125092914Y-122893095D01*
X125092914Y-122893095D02*
X125188152Y-122940714D01*
X125188152Y-122940714D02*
X125235771Y-122988333D01*
X125235771Y-122988333D02*
X125283390Y-123083571D01*
X125283390Y-123083571D02*
X125283390Y-123274047D01*
X125283390Y-123274047D02*
X125331009Y-123369285D01*
X125331009Y-123369285D02*
X125378628Y-123416904D01*
X125378628Y-123416904D02*
X125473866Y-123464523D01*
X125473866Y-123464523D02*
X125664342Y-123464523D01*
X125664342Y-123464523D02*
X125759580Y-123416904D01*
X125759580Y-123416904D02*
X125807200Y-123369285D01*
X125807200Y-123369285D02*
X125854819Y-123274047D01*
X125854819Y-123274047D02*
X125854819Y-123083571D01*
X125854819Y-123083571D02*
X125807200Y-122988333D01*
X125807200Y-122988333D02*
X125759580Y-122940714D01*
X125759580Y-122940714D02*
X125664342Y-122893095D01*
X125664342Y-122893095D02*
X125473866Y-122893095D01*
X125473866Y-122893095D02*
X125378628Y-122940714D01*
X125378628Y-122940714D02*
X125331009Y-122988333D01*
X125331009Y-122988333D02*
X125283390Y-123083571D01*
X90889580Y-150596666D02*
X90937200Y-150644285D01*
X90937200Y-150644285D02*
X90984819Y-150787142D01*
X90984819Y-150787142D02*
X90984819Y-150882380D01*
X90984819Y-150882380D02*
X90937200Y-151025237D01*
X90937200Y-151025237D02*
X90841961Y-151120475D01*
X90841961Y-151120475D02*
X90746723Y-151168094D01*
X90746723Y-151168094D02*
X90556247Y-151215713D01*
X90556247Y-151215713D02*
X90413390Y-151215713D01*
X90413390Y-151215713D02*
X90222914Y-151168094D01*
X90222914Y-151168094D02*
X90127676Y-151120475D01*
X90127676Y-151120475D02*
X90032438Y-151025237D01*
X90032438Y-151025237D02*
X89984819Y-150882380D01*
X89984819Y-150882380D02*
X89984819Y-150787142D01*
X89984819Y-150787142D02*
X90032438Y-150644285D01*
X90032438Y-150644285D02*
X90080057Y-150596666D01*
X90413390Y-150025237D02*
X90365771Y-150120475D01*
X90365771Y-150120475D02*
X90318152Y-150168094D01*
X90318152Y-150168094D02*
X90222914Y-150215713D01*
X90222914Y-150215713D02*
X90175295Y-150215713D01*
X90175295Y-150215713D02*
X90080057Y-150168094D01*
X90080057Y-150168094D02*
X90032438Y-150120475D01*
X90032438Y-150120475D02*
X89984819Y-150025237D01*
X89984819Y-150025237D02*
X89984819Y-149834761D01*
X89984819Y-149834761D02*
X90032438Y-149739523D01*
X90032438Y-149739523D02*
X90080057Y-149691904D01*
X90080057Y-149691904D02*
X90175295Y-149644285D01*
X90175295Y-149644285D02*
X90222914Y-149644285D01*
X90222914Y-149644285D02*
X90318152Y-149691904D01*
X90318152Y-149691904D02*
X90365771Y-149739523D01*
X90365771Y-149739523D02*
X90413390Y-149834761D01*
X90413390Y-149834761D02*
X90413390Y-150025237D01*
X90413390Y-150025237D02*
X90461009Y-150120475D01*
X90461009Y-150120475D02*
X90508628Y-150168094D01*
X90508628Y-150168094D02*
X90603866Y-150215713D01*
X90603866Y-150215713D02*
X90794342Y-150215713D01*
X90794342Y-150215713D02*
X90889580Y-150168094D01*
X90889580Y-150168094D02*
X90937200Y-150120475D01*
X90937200Y-150120475D02*
X90984819Y-150025237D01*
X90984819Y-150025237D02*
X90984819Y-149834761D01*
X90984819Y-149834761D02*
X90937200Y-149739523D01*
X90937200Y-149739523D02*
X90889580Y-149691904D01*
X90889580Y-149691904D02*
X90794342Y-149644285D01*
X90794342Y-149644285D02*
X90603866Y-149644285D01*
X90603866Y-149644285D02*
X90508628Y-149691904D01*
X90508628Y-149691904D02*
X90461009Y-149739523D01*
X90461009Y-149739523D02*
X90413390Y-149834761D01*
X54919580Y-112746666D02*
X54967200Y-112794285D01*
X54967200Y-112794285D02*
X55014819Y-112937142D01*
X55014819Y-112937142D02*
X55014819Y-113032380D01*
X55014819Y-113032380D02*
X54967200Y-113175237D01*
X54967200Y-113175237D02*
X54871961Y-113270475D01*
X54871961Y-113270475D02*
X54776723Y-113318094D01*
X54776723Y-113318094D02*
X54586247Y-113365713D01*
X54586247Y-113365713D02*
X54443390Y-113365713D01*
X54443390Y-113365713D02*
X54252914Y-113318094D01*
X54252914Y-113318094D02*
X54157676Y-113270475D01*
X54157676Y-113270475D02*
X54062438Y-113175237D01*
X54062438Y-113175237D02*
X54014819Y-113032380D01*
X54014819Y-113032380D02*
X54014819Y-112937142D01*
X54014819Y-112937142D02*
X54062438Y-112794285D01*
X54062438Y-112794285D02*
X54110057Y-112746666D01*
X54110057Y-112365713D02*
X54062438Y-112318094D01*
X54062438Y-112318094D02*
X54014819Y-112222856D01*
X54014819Y-112222856D02*
X54014819Y-111984761D01*
X54014819Y-111984761D02*
X54062438Y-111889523D01*
X54062438Y-111889523D02*
X54110057Y-111841904D01*
X54110057Y-111841904D02*
X54205295Y-111794285D01*
X54205295Y-111794285D02*
X54300533Y-111794285D01*
X54300533Y-111794285D02*
X54443390Y-111841904D01*
X54443390Y-111841904D02*
X55014819Y-112413332D01*
X55014819Y-112413332D02*
X55014819Y-111794285D01*
X110237142Y-113869580D02*
X110189523Y-113917200D01*
X110189523Y-113917200D02*
X110046666Y-113964819D01*
X110046666Y-113964819D02*
X109951428Y-113964819D01*
X109951428Y-113964819D02*
X109808571Y-113917200D01*
X109808571Y-113917200D02*
X109713333Y-113821961D01*
X109713333Y-113821961D02*
X109665714Y-113726723D01*
X109665714Y-113726723D02*
X109618095Y-113536247D01*
X109618095Y-113536247D02*
X109618095Y-113393390D01*
X109618095Y-113393390D02*
X109665714Y-113202914D01*
X109665714Y-113202914D02*
X109713333Y-113107676D01*
X109713333Y-113107676D02*
X109808571Y-113012438D01*
X109808571Y-113012438D02*
X109951428Y-112964819D01*
X109951428Y-112964819D02*
X110046666Y-112964819D01*
X110046666Y-112964819D02*
X110189523Y-113012438D01*
X110189523Y-113012438D02*
X110237142Y-113060057D01*
X110570476Y-112964819D02*
X111189523Y-112964819D01*
X111189523Y-112964819D02*
X110856190Y-113345771D01*
X110856190Y-113345771D02*
X110999047Y-113345771D01*
X110999047Y-113345771D02*
X111094285Y-113393390D01*
X111094285Y-113393390D02*
X111141904Y-113441009D01*
X111141904Y-113441009D02*
X111189523Y-113536247D01*
X111189523Y-113536247D02*
X111189523Y-113774342D01*
X111189523Y-113774342D02*
X111141904Y-113869580D01*
X111141904Y-113869580D02*
X111094285Y-113917200D01*
X111094285Y-113917200D02*
X110999047Y-113964819D01*
X110999047Y-113964819D02*
X110713333Y-113964819D01*
X110713333Y-113964819D02*
X110618095Y-113917200D01*
X110618095Y-113917200D02*
X110570476Y-113869580D01*
X111760952Y-113393390D02*
X111665714Y-113345771D01*
X111665714Y-113345771D02*
X111618095Y-113298152D01*
X111618095Y-113298152D02*
X111570476Y-113202914D01*
X111570476Y-113202914D02*
X111570476Y-113155295D01*
X111570476Y-113155295D02*
X111618095Y-113060057D01*
X111618095Y-113060057D02*
X111665714Y-113012438D01*
X111665714Y-113012438D02*
X111760952Y-112964819D01*
X111760952Y-112964819D02*
X111951428Y-112964819D01*
X111951428Y-112964819D02*
X112046666Y-113012438D01*
X112046666Y-113012438D02*
X112094285Y-113060057D01*
X112094285Y-113060057D02*
X112141904Y-113155295D01*
X112141904Y-113155295D02*
X112141904Y-113202914D01*
X112141904Y-113202914D02*
X112094285Y-113298152D01*
X112094285Y-113298152D02*
X112046666Y-113345771D01*
X112046666Y-113345771D02*
X111951428Y-113393390D01*
X111951428Y-113393390D02*
X111760952Y-113393390D01*
X111760952Y-113393390D02*
X111665714Y-113441009D01*
X111665714Y-113441009D02*
X111618095Y-113488628D01*
X111618095Y-113488628D02*
X111570476Y-113583866D01*
X111570476Y-113583866D02*
X111570476Y-113774342D01*
X111570476Y-113774342D02*
X111618095Y-113869580D01*
X111618095Y-113869580D02*
X111665714Y-113917200D01*
X111665714Y-113917200D02*
X111760952Y-113964819D01*
X111760952Y-113964819D02*
X111951428Y-113964819D01*
X111951428Y-113964819D02*
X112046666Y-113917200D01*
X112046666Y-113917200D02*
X112094285Y-113869580D01*
X112094285Y-113869580D02*
X112141904Y-113774342D01*
X112141904Y-113774342D02*
X112141904Y-113583866D01*
X112141904Y-113583866D02*
X112094285Y-113488628D01*
X112094285Y-113488628D02*
X112046666Y-113441009D01*
X112046666Y-113441009D02*
X111951428Y-113393390D01*
X54399580Y-119452857D02*
X54447200Y-119500476D01*
X54447200Y-119500476D02*
X54494819Y-119643333D01*
X54494819Y-119643333D02*
X54494819Y-119738571D01*
X54494819Y-119738571D02*
X54447200Y-119881428D01*
X54447200Y-119881428D02*
X54351961Y-119976666D01*
X54351961Y-119976666D02*
X54256723Y-120024285D01*
X54256723Y-120024285D02*
X54066247Y-120071904D01*
X54066247Y-120071904D02*
X53923390Y-120071904D01*
X53923390Y-120071904D02*
X53732914Y-120024285D01*
X53732914Y-120024285D02*
X53637676Y-119976666D01*
X53637676Y-119976666D02*
X53542438Y-119881428D01*
X53542438Y-119881428D02*
X53494819Y-119738571D01*
X53494819Y-119738571D02*
X53494819Y-119643333D01*
X53494819Y-119643333D02*
X53542438Y-119500476D01*
X53542438Y-119500476D02*
X53590057Y-119452857D01*
X54494819Y-118500476D02*
X54494819Y-119071904D01*
X54494819Y-118786190D02*
X53494819Y-118786190D01*
X53494819Y-118786190D02*
X53637676Y-118881428D01*
X53637676Y-118881428D02*
X53732914Y-118976666D01*
X53732914Y-118976666D02*
X53780533Y-119071904D01*
X54494819Y-117548095D02*
X54494819Y-118119523D01*
X54494819Y-117833809D02*
X53494819Y-117833809D01*
X53494819Y-117833809D02*
X53637676Y-117929047D01*
X53637676Y-117929047D02*
X53732914Y-118024285D01*
X53732914Y-118024285D02*
X53780533Y-118119523D01*
X53953333Y-144984819D02*
X53620000Y-144508628D01*
X53381905Y-144984819D02*
X53381905Y-143984819D01*
X53381905Y-143984819D02*
X53762857Y-143984819D01*
X53762857Y-143984819D02*
X53858095Y-144032438D01*
X53858095Y-144032438D02*
X53905714Y-144080057D01*
X53905714Y-144080057D02*
X53953333Y-144175295D01*
X53953333Y-144175295D02*
X53953333Y-144318152D01*
X53953333Y-144318152D02*
X53905714Y-144413390D01*
X53905714Y-144413390D02*
X53858095Y-144461009D01*
X53858095Y-144461009D02*
X53762857Y-144508628D01*
X53762857Y-144508628D02*
X53381905Y-144508628D01*
X54858095Y-143984819D02*
X54381905Y-143984819D01*
X54381905Y-143984819D02*
X54334286Y-144461009D01*
X54334286Y-144461009D02*
X54381905Y-144413390D01*
X54381905Y-144413390D02*
X54477143Y-144365771D01*
X54477143Y-144365771D02*
X54715238Y-144365771D01*
X54715238Y-144365771D02*
X54810476Y-144413390D01*
X54810476Y-144413390D02*
X54858095Y-144461009D01*
X54858095Y-144461009D02*
X54905714Y-144556247D01*
X54905714Y-144556247D02*
X54905714Y-144794342D01*
X54905714Y-144794342D02*
X54858095Y-144889580D01*
X54858095Y-144889580D02*
X54810476Y-144937200D01*
X54810476Y-144937200D02*
X54715238Y-144984819D01*
X54715238Y-144984819D02*
X54477143Y-144984819D01*
X54477143Y-144984819D02*
X54381905Y-144937200D01*
X54381905Y-144937200D02*
X54334286Y-144889580D01*
X112007142Y-155074819D02*
X111673809Y-154598628D01*
X111435714Y-155074819D02*
X111435714Y-154074819D01*
X111435714Y-154074819D02*
X111816666Y-154074819D01*
X111816666Y-154074819D02*
X111911904Y-154122438D01*
X111911904Y-154122438D02*
X111959523Y-154170057D01*
X111959523Y-154170057D02*
X112007142Y-154265295D01*
X112007142Y-154265295D02*
X112007142Y-154408152D01*
X112007142Y-154408152D02*
X111959523Y-154503390D01*
X111959523Y-154503390D02*
X111911904Y-154551009D01*
X111911904Y-154551009D02*
X111816666Y-154598628D01*
X111816666Y-154598628D02*
X111435714Y-154598628D01*
X112959523Y-155074819D02*
X112388095Y-155074819D01*
X112673809Y-155074819D02*
X112673809Y-154074819D01*
X112673809Y-154074819D02*
X112578571Y-154217676D01*
X112578571Y-154217676D02*
X112483333Y-154312914D01*
X112483333Y-154312914D02*
X112388095Y-154360533D01*
X113292857Y-154074819D02*
X113959523Y-154074819D01*
X113959523Y-154074819D02*
X113530952Y-155074819D01*
X131724819Y-134772857D02*
X131248628Y-135106190D01*
X131724819Y-135344285D02*
X130724819Y-135344285D01*
X130724819Y-135344285D02*
X130724819Y-134963333D01*
X130724819Y-134963333D02*
X130772438Y-134868095D01*
X130772438Y-134868095D02*
X130820057Y-134820476D01*
X130820057Y-134820476D02*
X130915295Y-134772857D01*
X130915295Y-134772857D02*
X131058152Y-134772857D01*
X131058152Y-134772857D02*
X131153390Y-134820476D01*
X131153390Y-134820476D02*
X131201009Y-134868095D01*
X131201009Y-134868095D02*
X131248628Y-134963333D01*
X131248628Y-134963333D02*
X131248628Y-135344285D01*
X131724819Y-133820476D02*
X131724819Y-134391904D01*
X131724819Y-134106190D02*
X130724819Y-134106190D01*
X130724819Y-134106190D02*
X130867676Y-134201428D01*
X130867676Y-134201428D02*
X130962914Y-134296666D01*
X130962914Y-134296666D02*
X131010533Y-134391904D01*
X130724819Y-133201428D02*
X130724819Y-133106190D01*
X130724819Y-133106190D02*
X130772438Y-133010952D01*
X130772438Y-133010952D02*
X130820057Y-132963333D01*
X130820057Y-132963333D02*
X130915295Y-132915714D01*
X130915295Y-132915714D02*
X131105771Y-132868095D01*
X131105771Y-132868095D02*
X131343866Y-132868095D01*
X131343866Y-132868095D02*
X131534342Y-132915714D01*
X131534342Y-132915714D02*
X131629580Y-132963333D01*
X131629580Y-132963333D02*
X131677200Y-133010952D01*
X131677200Y-133010952D02*
X131724819Y-133106190D01*
X131724819Y-133106190D02*
X131724819Y-133201428D01*
X131724819Y-133201428D02*
X131677200Y-133296666D01*
X131677200Y-133296666D02*
X131629580Y-133344285D01*
X131629580Y-133344285D02*
X131534342Y-133391904D01*
X131534342Y-133391904D02*
X131343866Y-133439523D01*
X131343866Y-133439523D02*
X131105771Y-133439523D01*
X131105771Y-133439523D02*
X130915295Y-133391904D01*
X130915295Y-133391904D02*
X130820057Y-133344285D01*
X130820057Y-133344285D02*
X130772438Y-133296666D01*
X130772438Y-133296666D02*
X130724819Y-133201428D01*
X102557142Y-111644819D02*
X102223809Y-111168628D01*
X101985714Y-111644819D02*
X101985714Y-110644819D01*
X101985714Y-110644819D02*
X102366666Y-110644819D01*
X102366666Y-110644819D02*
X102461904Y-110692438D01*
X102461904Y-110692438D02*
X102509523Y-110740057D01*
X102509523Y-110740057D02*
X102557142Y-110835295D01*
X102557142Y-110835295D02*
X102557142Y-110978152D01*
X102557142Y-110978152D02*
X102509523Y-111073390D01*
X102509523Y-111073390D02*
X102461904Y-111121009D01*
X102461904Y-111121009D02*
X102366666Y-111168628D01*
X102366666Y-111168628D02*
X101985714Y-111168628D01*
X103509523Y-111644819D02*
X102938095Y-111644819D01*
X103223809Y-111644819D02*
X103223809Y-110644819D01*
X103223809Y-110644819D02*
X103128571Y-110787676D01*
X103128571Y-110787676D02*
X103033333Y-110882914D01*
X103033333Y-110882914D02*
X102938095Y-110930533D01*
X103842857Y-110644819D02*
X104461904Y-110644819D01*
X104461904Y-110644819D02*
X104128571Y-111025771D01*
X104128571Y-111025771D02*
X104271428Y-111025771D01*
X104271428Y-111025771D02*
X104366666Y-111073390D01*
X104366666Y-111073390D02*
X104414285Y-111121009D01*
X104414285Y-111121009D02*
X104461904Y-111216247D01*
X104461904Y-111216247D02*
X104461904Y-111454342D01*
X104461904Y-111454342D02*
X104414285Y-111549580D01*
X104414285Y-111549580D02*
X104366666Y-111597200D01*
X104366666Y-111597200D02*
X104271428Y-111644819D01*
X104271428Y-111644819D02*
X103985714Y-111644819D01*
X103985714Y-111644819D02*
X103890476Y-111597200D01*
X103890476Y-111597200D02*
X103842857Y-111549580D01*
X116737142Y-128129580D02*
X116689523Y-128177200D01*
X116689523Y-128177200D02*
X116546666Y-128224819D01*
X116546666Y-128224819D02*
X116451428Y-128224819D01*
X116451428Y-128224819D02*
X116308571Y-128177200D01*
X116308571Y-128177200D02*
X116213333Y-128081961D01*
X116213333Y-128081961D02*
X116165714Y-127986723D01*
X116165714Y-127986723D02*
X116118095Y-127796247D01*
X116118095Y-127796247D02*
X116118095Y-127653390D01*
X116118095Y-127653390D02*
X116165714Y-127462914D01*
X116165714Y-127462914D02*
X116213333Y-127367676D01*
X116213333Y-127367676D02*
X116308571Y-127272438D01*
X116308571Y-127272438D02*
X116451428Y-127224819D01*
X116451428Y-127224819D02*
X116546666Y-127224819D01*
X116546666Y-127224819D02*
X116689523Y-127272438D01*
X116689523Y-127272438D02*
X116737142Y-127320057D01*
X117594285Y-127558152D02*
X117594285Y-128224819D01*
X117356190Y-127177200D02*
X117118095Y-127891485D01*
X117118095Y-127891485D02*
X117737142Y-127891485D01*
X118070476Y-127320057D02*
X118118095Y-127272438D01*
X118118095Y-127272438D02*
X118213333Y-127224819D01*
X118213333Y-127224819D02*
X118451428Y-127224819D01*
X118451428Y-127224819D02*
X118546666Y-127272438D01*
X118546666Y-127272438D02*
X118594285Y-127320057D01*
X118594285Y-127320057D02*
X118641904Y-127415295D01*
X118641904Y-127415295D02*
X118641904Y-127510533D01*
X118641904Y-127510533D02*
X118594285Y-127653390D01*
X118594285Y-127653390D02*
X118022857Y-128224819D01*
X118022857Y-128224819D02*
X118641904Y-128224819D01*
X154339580Y-110982857D02*
X154387200Y-111030476D01*
X154387200Y-111030476D02*
X154434819Y-111173333D01*
X154434819Y-111173333D02*
X154434819Y-111268571D01*
X154434819Y-111268571D02*
X154387200Y-111411428D01*
X154387200Y-111411428D02*
X154291961Y-111506666D01*
X154291961Y-111506666D02*
X154196723Y-111554285D01*
X154196723Y-111554285D02*
X154006247Y-111601904D01*
X154006247Y-111601904D02*
X153863390Y-111601904D01*
X153863390Y-111601904D02*
X153672914Y-111554285D01*
X153672914Y-111554285D02*
X153577676Y-111506666D01*
X153577676Y-111506666D02*
X153482438Y-111411428D01*
X153482438Y-111411428D02*
X153434819Y-111268571D01*
X153434819Y-111268571D02*
X153434819Y-111173333D01*
X153434819Y-111173333D02*
X153482438Y-111030476D01*
X153482438Y-111030476D02*
X153530057Y-110982857D01*
X153530057Y-110601904D02*
X153482438Y-110554285D01*
X153482438Y-110554285D02*
X153434819Y-110459047D01*
X153434819Y-110459047D02*
X153434819Y-110220952D01*
X153434819Y-110220952D02*
X153482438Y-110125714D01*
X153482438Y-110125714D02*
X153530057Y-110078095D01*
X153530057Y-110078095D02*
X153625295Y-110030476D01*
X153625295Y-110030476D02*
X153720533Y-110030476D01*
X153720533Y-110030476D02*
X153863390Y-110078095D01*
X153863390Y-110078095D02*
X154434819Y-110649523D01*
X154434819Y-110649523D02*
X154434819Y-110030476D01*
X153434819Y-109411428D02*
X153434819Y-109316190D01*
X153434819Y-109316190D02*
X153482438Y-109220952D01*
X153482438Y-109220952D02*
X153530057Y-109173333D01*
X153530057Y-109173333D02*
X153625295Y-109125714D01*
X153625295Y-109125714D02*
X153815771Y-109078095D01*
X153815771Y-109078095D02*
X154053866Y-109078095D01*
X154053866Y-109078095D02*
X154244342Y-109125714D01*
X154244342Y-109125714D02*
X154339580Y-109173333D01*
X154339580Y-109173333D02*
X154387200Y-109220952D01*
X154387200Y-109220952D02*
X154434819Y-109316190D01*
X154434819Y-109316190D02*
X154434819Y-109411428D01*
X154434819Y-109411428D02*
X154387200Y-109506666D01*
X154387200Y-109506666D02*
X154339580Y-109554285D01*
X154339580Y-109554285D02*
X154244342Y-109601904D01*
X154244342Y-109601904D02*
X154053866Y-109649523D01*
X154053866Y-109649523D02*
X153815771Y-109649523D01*
X153815771Y-109649523D02*
X153625295Y-109601904D01*
X153625295Y-109601904D02*
X153530057Y-109554285D01*
X153530057Y-109554285D02*
X153482438Y-109506666D01*
X153482438Y-109506666D02*
X153434819Y-109411428D01*
X93316666Y-119624819D02*
X93316666Y-120339104D01*
X93316666Y-120339104D02*
X93269047Y-120481961D01*
X93269047Y-120481961D02*
X93173809Y-120577200D01*
X93173809Y-120577200D02*
X93030952Y-120624819D01*
X93030952Y-120624819D02*
X92935714Y-120624819D01*
X94316666Y-120624819D02*
X93745238Y-120624819D01*
X94030952Y-120624819D02*
X94030952Y-119624819D01*
X94030952Y-119624819D02*
X93935714Y-119767676D01*
X93935714Y-119767676D02*
X93840476Y-119862914D01*
X93840476Y-119862914D02*
X93745238Y-119910533D01*
X103847142Y-147724819D02*
X103513809Y-147248628D01*
X103275714Y-147724819D02*
X103275714Y-146724819D01*
X103275714Y-146724819D02*
X103656666Y-146724819D01*
X103656666Y-146724819D02*
X103751904Y-146772438D01*
X103751904Y-146772438D02*
X103799523Y-146820057D01*
X103799523Y-146820057D02*
X103847142Y-146915295D01*
X103847142Y-146915295D02*
X103847142Y-147058152D01*
X103847142Y-147058152D02*
X103799523Y-147153390D01*
X103799523Y-147153390D02*
X103751904Y-147201009D01*
X103751904Y-147201009D02*
X103656666Y-147248628D01*
X103656666Y-147248628D02*
X103275714Y-147248628D01*
X104228095Y-146820057D02*
X104275714Y-146772438D01*
X104275714Y-146772438D02*
X104370952Y-146724819D01*
X104370952Y-146724819D02*
X104609047Y-146724819D01*
X104609047Y-146724819D02*
X104704285Y-146772438D01*
X104704285Y-146772438D02*
X104751904Y-146820057D01*
X104751904Y-146820057D02*
X104799523Y-146915295D01*
X104799523Y-146915295D02*
X104799523Y-147010533D01*
X104799523Y-147010533D02*
X104751904Y-147153390D01*
X104751904Y-147153390D02*
X104180476Y-147724819D01*
X104180476Y-147724819D02*
X104799523Y-147724819D01*
X105418571Y-146724819D02*
X105513809Y-146724819D01*
X105513809Y-146724819D02*
X105609047Y-146772438D01*
X105609047Y-146772438D02*
X105656666Y-146820057D01*
X105656666Y-146820057D02*
X105704285Y-146915295D01*
X105704285Y-146915295D02*
X105751904Y-147105771D01*
X105751904Y-147105771D02*
X105751904Y-147343866D01*
X105751904Y-147343866D02*
X105704285Y-147534342D01*
X105704285Y-147534342D02*
X105656666Y-147629580D01*
X105656666Y-147629580D02*
X105609047Y-147677200D01*
X105609047Y-147677200D02*
X105513809Y-147724819D01*
X105513809Y-147724819D02*
X105418571Y-147724819D01*
X105418571Y-147724819D02*
X105323333Y-147677200D01*
X105323333Y-147677200D02*
X105275714Y-147629580D01*
X105275714Y-147629580D02*
X105228095Y-147534342D01*
X105228095Y-147534342D02*
X105180476Y-147343866D01*
X105180476Y-147343866D02*
X105180476Y-147105771D01*
X105180476Y-147105771D02*
X105228095Y-146915295D01*
X105228095Y-146915295D02*
X105275714Y-146820057D01*
X105275714Y-146820057D02*
X105323333Y-146772438D01*
X105323333Y-146772438D02*
X105418571Y-146724819D01*
X125544819Y-133491666D02*
X125068628Y-133824999D01*
X125544819Y-134063094D02*
X124544819Y-134063094D01*
X124544819Y-134063094D02*
X124544819Y-133682142D01*
X124544819Y-133682142D02*
X124592438Y-133586904D01*
X124592438Y-133586904D02*
X124640057Y-133539285D01*
X124640057Y-133539285D02*
X124735295Y-133491666D01*
X124735295Y-133491666D02*
X124878152Y-133491666D01*
X124878152Y-133491666D02*
X124973390Y-133539285D01*
X124973390Y-133539285D02*
X125021009Y-133586904D01*
X125021009Y-133586904D02*
X125068628Y-133682142D01*
X125068628Y-133682142D02*
X125068628Y-134063094D01*
X125544819Y-133015475D02*
X125544819Y-132824999D01*
X125544819Y-132824999D02*
X125497200Y-132729761D01*
X125497200Y-132729761D02*
X125449580Y-132682142D01*
X125449580Y-132682142D02*
X125306723Y-132586904D01*
X125306723Y-132586904D02*
X125116247Y-132539285D01*
X125116247Y-132539285D02*
X124735295Y-132539285D01*
X124735295Y-132539285D02*
X124640057Y-132586904D01*
X124640057Y-132586904D02*
X124592438Y-132634523D01*
X124592438Y-132634523D02*
X124544819Y-132729761D01*
X124544819Y-132729761D02*
X124544819Y-132920237D01*
X124544819Y-132920237D02*
X124592438Y-133015475D01*
X124592438Y-133015475D02*
X124640057Y-133063094D01*
X124640057Y-133063094D02*
X124735295Y-133110713D01*
X124735295Y-133110713D02*
X124973390Y-133110713D01*
X124973390Y-133110713D02*
X125068628Y-133063094D01*
X125068628Y-133063094D02*
X125116247Y-133015475D01*
X125116247Y-133015475D02*
X125163866Y-132920237D01*
X125163866Y-132920237D02*
X125163866Y-132729761D01*
X125163866Y-132729761D02*
X125116247Y-132634523D01*
X125116247Y-132634523D02*
X125068628Y-132586904D01*
X125068628Y-132586904D02*
X124973390Y-132539285D01*
X107732142Y-147699580D02*
X107684523Y-147747200D01*
X107684523Y-147747200D02*
X107541666Y-147794819D01*
X107541666Y-147794819D02*
X107446428Y-147794819D01*
X107446428Y-147794819D02*
X107303571Y-147747200D01*
X107303571Y-147747200D02*
X107208333Y-147651961D01*
X107208333Y-147651961D02*
X107160714Y-147556723D01*
X107160714Y-147556723D02*
X107113095Y-147366247D01*
X107113095Y-147366247D02*
X107113095Y-147223390D01*
X107113095Y-147223390D02*
X107160714Y-147032914D01*
X107160714Y-147032914D02*
X107208333Y-146937676D01*
X107208333Y-146937676D02*
X107303571Y-146842438D01*
X107303571Y-146842438D02*
X107446428Y-146794819D01*
X107446428Y-146794819D02*
X107541666Y-146794819D01*
X107541666Y-146794819D02*
X107684523Y-146842438D01*
X107684523Y-146842438D02*
X107732142Y-146890057D01*
X108065476Y-146794819D02*
X108684523Y-146794819D01*
X108684523Y-146794819D02*
X108351190Y-147175771D01*
X108351190Y-147175771D02*
X108494047Y-147175771D01*
X108494047Y-147175771D02*
X108589285Y-147223390D01*
X108589285Y-147223390D02*
X108636904Y-147271009D01*
X108636904Y-147271009D02*
X108684523Y-147366247D01*
X108684523Y-147366247D02*
X108684523Y-147604342D01*
X108684523Y-147604342D02*
X108636904Y-147699580D01*
X108636904Y-147699580D02*
X108589285Y-147747200D01*
X108589285Y-147747200D02*
X108494047Y-147794819D01*
X108494047Y-147794819D02*
X108208333Y-147794819D01*
X108208333Y-147794819D02*
X108113095Y-147747200D01*
X108113095Y-147747200D02*
X108065476Y-147699580D01*
X109541666Y-147128152D02*
X109541666Y-147794819D01*
X109303571Y-146747200D02*
X109065476Y-147461485D01*
X109065476Y-147461485D02*
X109684523Y-147461485D01*
X113527142Y-150959819D02*
X113193809Y-150483628D01*
X112955714Y-150959819D02*
X112955714Y-149959819D01*
X112955714Y-149959819D02*
X113336666Y-149959819D01*
X113336666Y-149959819D02*
X113431904Y-150007438D01*
X113431904Y-150007438D02*
X113479523Y-150055057D01*
X113479523Y-150055057D02*
X113527142Y-150150295D01*
X113527142Y-150150295D02*
X113527142Y-150293152D01*
X113527142Y-150293152D02*
X113479523Y-150388390D01*
X113479523Y-150388390D02*
X113431904Y-150436009D01*
X113431904Y-150436009D02*
X113336666Y-150483628D01*
X113336666Y-150483628D02*
X112955714Y-150483628D01*
X113908095Y-150055057D02*
X113955714Y-150007438D01*
X113955714Y-150007438D02*
X114050952Y-149959819D01*
X114050952Y-149959819D02*
X114289047Y-149959819D01*
X114289047Y-149959819D02*
X114384285Y-150007438D01*
X114384285Y-150007438D02*
X114431904Y-150055057D01*
X114431904Y-150055057D02*
X114479523Y-150150295D01*
X114479523Y-150150295D02*
X114479523Y-150245533D01*
X114479523Y-150245533D02*
X114431904Y-150388390D01*
X114431904Y-150388390D02*
X113860476Y-150959819D01*
X113860476Y-150959819D02*
X114479523Y-150959819D01*
X115431904Y-150959819D02*
X114860476Y-150959819D01*
X115146190Y-150959819D02*
X115146190Y-149959819D01*
X115146190Y-149959819D02*
X115050952Y-150102676D01*
X115050952Y-150102676D02*
X114955714Y-150197914D01*
X114955714Y-150197914D02*
X114860476Y-150245533D01*
X107934819Y-149589047D02*
X107934819Y-150065237D01*
X107934819Y-150065237D02*
X106934819Y-150065237D01*
X107411009Y-149255713D02*
X107411009Y-148922380D01*
X107934819Y-148779523D02*
X107934819Y-149255713D01*
X107934819Y-149255713D02*
X106934819Y-149255713D01*
X106934819Y-149255713D02*
X106934819Y-148779523D01*
X107934819Y-148350951D02*
X106934819Y-148350951D01*
X106934819Y-148350951D02*
X106934819Y-148112856D01*
X106934819Y-148112856D02*
X106982438Y-147969999D01*
X106982438Y-147969999D02*
X107077676Y-147874761D01*
X107077676Y-147874761D02*
X107172914Y-147827142D01*
X107172914Y-147827142D02*
X107363390Y-147779523D01*
X107363390Y-147779523D02*
X107506247Y-147779523D01*
X107506247Y-147779523D02*
X107696723Y-147827142D01*
X107696723Y-147827142D02*
X107791961Y-147874761D01*
X107791961Y-147874761D02*
X107887200Y-147969999D01*
X107887200Y-147969999D02*
X107934819Y-148112856D01*
X107934819Y-148112856D02*
X107934819Y-148350951D01*
X107030057Y-147398570D02*
X106982438Y-147350951D01*
X106982438Y-147350951D02*
X106934819Y-147255713D01*
X106934819Y-147255713D02*
X106934819Y-147017618D01*
X106934819Y-147017618D02*
X106982438Y-146922380D01*
X106982438Y-146922380D02*
X107030057Y-146874761D01*
X107030057Y-146874761D02*
X107125295Y-146827142D01*
X107125295Y-146827142D02*
X107220533Y-146827142D01*
X107220533Y-146827142D02*
X107363390Y-146874761D01*
X107363390Y-146874761D02*
X107934819Y-147446189D01*
X107934819Y-147446189D02*
X107934819Y-146827142D01*
X106074819Y-159162857D02*
X105598628Y-159496190D01*
X106074819Y-159734285D02*
X105074819Y-159734285D01*
X105074819Y-159734285D02*
X105074819Y-159353333D01*
X105074819Y-159353333D02*
X105122438Y-159258095D01*
X105122438Y-159258095D02*
X105170057Y-159210476D01*
X105170057Y-159210476D02*
X105265295Y-159162857D01*
X105265295Y-159162857D02*
X105408152Y-159162857D01*
X105408152Y-159162857D02*
X105503390Y-159210476D01*
X105503390Y-159210476D02*
X105551009Y-159258095D01*
X105551009Y-159258095D02*
X105598628Y-159353333D01*
X105598628Y-159353333D02*
X105598628Y-159734285D01*
X105170057Y-158781904D02*
X105122438Y-158734285D01*
X105122438Y-158734285D02*
X105074819Y-158639047D01*
X105074819Y-158639047D02*
X105074819Y-158400952D01*
X105074819Y-158400952D02*
X105122438Y-158305714D01*
X105122438Y-158305714D02*
X105170057Y-158258095D01*
X105170057Y-158258095D02*
X105265295Y-158210476D01*
X105265295Y-158210476D02*
X105360533Y-158210476D01*
X105360533Y-158210476D02*
X105503390Y-158258095D01*
X105503390Y-158258095D02*
X106074819Y-158829523D01*
X106074819Y-158829523D02*
X106074819Y-158210476D01*
X105408152Y-157353333D02*
X106074819Y-157353333D01*
X105027200Y-157591428D02*
X105741485Y-157829523D01*
X105741485Y-157829523D02*
X105741485Y-157210476D01*
X138623333Y-112984819D02*
X138147143Y-112984819D01*
X138147143Y-112984819D02*
X138147143Y-111984819D01*
X139480476Y-112984819D02*
X138909048Y-112984819D01*
X139194762Y-112984819D02*
X139194762Y-111984819D01*
X139194762Y-111984819D02*
X139099524Y-112127676D01*
X139099524Y-112127676D02*
X139004286Y-112222914D01*
X139004286Y-112222914D02*
X138909048Y-112270533D01*
X98468095Y-123594819D02*
X98468095Y-124404342D01*
X98468095Y-124404342D02*
X98515714Y-124499580D01*
X98515714Y-124499580D02*
X98563333Y-124547200D01*
X98563333Y-124547200D02*
X98658571Y-124594819D01*
X98658571Y-124594819D02*
X98849047Y-124594819D01*
X98849047Y-124594819D02*
X98944285Y-124547200D01*
X98944285Y-124547200D02*
X98991904Y-124499580D01*
X98991904Y-124499580D02*
X99039523Y-124404342D01*
X99039523Y-124404342D02*
X99039523Y-123594819D01*
X99944285Y-123928152D02*
X99944285Y-124594819D01*
X99706190Y-123547200D02*
X99468095Y-124261485D01*
X99468095Y-124261485D02*
X100087142Y-124261485D01*
X44273333Y-125174819D02*
X43797143Y-125174819D01*
X43797143Y-125174819D02*
X43797143Y-124174819D01*
X45035238Y-124508152D02*
X45035238Y-125174819D01*
X44797143Y-124127200D02*
X44559048Y-124841485D01*
X44559048Y-124841485D02*
X45178095Y-124841485D01*
X49319580Y-124886666D02*
X49367200Y-124934285D01*
X49367200Y-124934285D02*
X49414819Y-125077142D01*
X49414819Y-125077142D02*
X49414819Y-125172380D01*
X49414819Y-125172380D02*
X49367200Y-125315237D01*
X49367200Y-125315237D02*
X49271961Y-125410475D01*
X49271961Y-125410475D02*
X49176723Y-125458094D01*
X49176723Y-125458094D02*
X48986247Y-125505713D01*
X48986247Y-125505713D02*
X48843390Y-125505713D01*
X48843390Y-125505713D02*
X48652914Y-125458094D01*
X48652914Y-125458094D02*
X48557676Y-125410475D01*
X48557676Y-125410475D02*
X48462438Y-125315237D01*
X48462438Y-125315237D02*
X48414819Y-125172380D01*
X48414819Y-125172380D02*
X48414819Y-125077142D01*
X48414819Y-125077142D02*
X48462438Y-124934285D01*
X48462438Y-124934285D02*
X48510057Y-124886666D01*
X48414819Y-123981904D02*
X48414819Y-124458094D01*
X48414819Y-124458094D02*
X48891009Y-124505713D01*
X48891009Y-124505713D02*
X48843390Y-124458094D01*
X48843390Y-124458094D02*
X48795771Y-124362856D01*
X48795771Y-124362856D02*
X48795771Y-124124761D01*
X48795771Y-124124761D02*
X48843390Y-124029523D01*
X48843390Y-124029523D02*
X48891009Y-123981904D01*
X48891009Y-123981904D02*
X48986247Y-123934285D01*
X48986247Y-123934285D02*
X49224342Y-123934285D01*
X49224342Y-123934285D02*
X49319580Y-123981904D01*
X49319580Y-123981904D02*
X49367200Y-124029523D01*
X49367200Y-124029523D02*
X49414819Y-124124761D01*
X49414819Y-124124761D02*
X49414819Y-124362856D01*
X49414819Y-124362856D02*
X49367200Y-124458094D01*
X49367200Y-124458094D02*
X49319580Y-124505713D01*
X88777319Y-154678094D02*
X89586842Y-154678094D01*
X89586842Y-154678094D02*
X89682080Y-154630475D01*
X89682080Y-154630475D02*
X89729700Y-154582856D01*
X89729700Y-154582856D02*
X89777319Y-154487618D01*
X89777319Y-154487618D02*
X89777319Y-154297142D01*
X89777319Y-154297142D02*
X89729700Y-154201904D01*
X89729700Y-154201904D02*
X89682080Y-154154285D01*
X89682080Y-154154285D02*
X89586842Y-154106666D01*
X89586842Y-154106666D02*
X88777319Y-154106666D01*
X89729700Y-153678094D02*
X89777319Y-153535237D01*
X89777319Y-153535237D02*
X89777319Y-153297142D01*
X89777319Y-153297142D02*
X89729700Y-153201904D01*
X89729700Y-153201904D02*
X89682080Y-153154285D01*
X89682080Y-153154285D02*
X89586842Y-153106666D01*
X89586842Y-153106666D02*
X89491604Y-153106666D01*
X89491604Y-153106666D02*
X89396366Y-153154285D01*
X89396366Y-153154285D02*
X89348747Y-153201904D01*
X89348747Y-153201904D02*
X89301128Y-153297142D01*
X89301128Y-153297142D02*
X89253509Y-153487618D01*
X89253509Y-153487618D02*
X89205890Y-153582856D01*
X89205890Y-153582856D02*
X89158271Y-153630475D01*
X89158271Y-153630475D02*
X89063033Y-153678094D01*
X89063033Y-153678094D02*
X88967795Y-153678094D01*
X88967795Y-153678094D02*
X88872557Y-153630475D01*
X88872557Y-153630475D02*
X88824938Y-153582856D01*
X88824938Y-153582856D02*
X88777319Y-153487618D01*
X88777319Y-153487618D02*
X88777319Y-153249523D01*
X88777319Y-153249523D02*
X88824938Y-153106666D01*
X89253509Y-152344761D02*
X89301128Y-152201904D01*
X89301128Y-152201904D02*
X89348747Y-152154285D01*
X89348747Y-152154285D02*
X89443985Y-152106666D01*
X89443985Y-152106666D02*
X89586842Y-152106666D01*
X89586842Y-152106666D02*
X89682080Y-152154285D01*
X89682080Y-152154285D02*
X89729700Y-152201904D01*
X89729700Y-152201904D02*
X89777319Y-152297142D01*
X89777319Y-152297142D02*
X89777319Y-152678094D01*
X89777319Y-152678094D02*
X88777319Y-152678094D01*
X88777319Y-152678094D02*
X88777319Y-152344761D01*
X88777319Y-152344761D02*
X88824938Y-152249523D01*
X88824938Y-152249523D02*
X88872557Y-152201904D01*
X88872557Y-152201904D02*
X88967795Y-152154285D01*
X88967795Y-152154285D02*
X89063033Y-152154285D01*
X89063033Y-152154285D02*
X89158271Y-152201904D01*
X89158271Y-152201904D02*
X89205890Y-152249523D01*
X89205890Y-152249523D02*
X89253509Y-152344761D01*
X89253509Y-152344761D02*
X89253509Y-152678094D01*
X89777319Y-151154285D02*
X89777319Y-151725713D01*
X89777319Y-151439999D02*
X88777319Y-151439999D01*
X88777319Y-151439999D02*
X88920176Y-151535237D01*
X88920176Y-151535237D02*
X89015414Y-151630475D01*
X89015414Y-151630475D02*
X89063033Y-151725713D01*
X116737142Y-125119580D02*
X116689523Y-125167200D01*
X116689523Y-125167200D02*
X116546666Y-125214819D01*
X116546666Y-125214819D02*
X116451428Y-125214819D01*
X116451428Y-125214819D02*
X116308571Y-125167200D01*
X116308571Y-125167200D02*
X116213333Y-125071961D01*
X116213333Y-125071961D02*
X116165714Y-124976723D01*
X116165714Y-124976723D02*
X116118095Y-124786247D01*
X116118095Y-124786247D02*
X116118095Y-124643390D01*
X116118095Y-124643390D02*
X116165714Y-124452914D01*
X116165714Y-124452914D02*
X116213333Y-124357676D01*
X116213333Y-124357676D02*
X116308571Y-124262438D01*
X116308571Y-124262438D02*
X116451428Y-124214819D01*
X116451428Y-124214819D02*
X116546666Y-124214819D01*
X116546666Y-124214819D02*
X116689523Y-124262438D01*
X116689523Y-124262438D02*
X116737142Y-124310057D01*
X117594285Y-124548152D02*
X117594285Y-125214819D01*
X117356190Y-124167200D02*
X117118095Y-124881485D01*
X117118095Y-124881485D02*
X117737142Y-124881485D01*
X118022857Y-124214819D02*
X118641904Y-124214819D01*
X118641904Y-124214819D02*
X118308571Y-124595771D01*
X118308571Y-124595771D02*
X118451428Y-124595771D01*
X118451428Y-124595771D02*
X118546666Y-124643390D01*
X118546666Y-124643390D02*
X118594285Y-124691009D01*
X118594285Y-124691009D02*
X118641904Y-124786247D01*
X118641904Y-124786247D02*
X118641904Y-125024342D01*
X118641904Y-125024342D02*
X118594285Y-125119580D01*
X118594285Y-125119580D02*
X118546666Y-125167200D01*
X118546666Y-125167200D02*
X118451428Y-125214819D01*
X118451428Y-125214819D02*
X118165714Y-125214819D01*
X118165714Y-125214819D02*
X118070476Y-125167200D01*
X118070476Y-125167200D02*
X118022857Y-125119580D01*
X149402142Y-136724819D02*
X149068809Y-136248628D01*
X148830714Y-136724819D02*
X148830714Y-135724819D01*
X148830714Y-135724819D02*
X149211666Y-135724819D01*
X149211666Y-135724819D02*
X149306904Y-135772438D01*
X149306904Y-135772438D02*
X149354523Y-135820057D01*
X149354523Y-135820057D02*
X149402142Y-135915295D01*
X149402142Y-135915295D02*
X149402142Y-136058152D01*
X149402142Y-136058152D02*
X149354523Y-136153390D01*
X149354523Y-136153390D02*
X149306904Y-136201009D01*
X149306904Y-136201009D02*
X149211666Y-136248628D01*
X149211666Y-136248628D02*
X148830714Y-136248628D01*
X150354523Y-136724819D02*
X149783095Y-136724819D01*
X150068809Y-136724819D02*
X150068809Y-135724819D01*
X150068809Y-135724819D02*
X149973571Y-135867676D01*
X149973571Y-135867676D02*
X149878333Y-135962914D01*
X149878333Y-135962914D02*
X149783095Y-136010533D01*
X150735476Y-135820057D02*
X150783095Y-135772438D01*
X150783095Y-135772438D02*
X150878333Y-135724819D01*
X150878333Y-135724819D02*
X151116428Y-135724819D01*
X151116428Y-135724819D02*
X151211666Y-135772438D01*
X151211666Y-135772438D02*
X151259285Y-135820057D01*
X151259285Y-135820057D02*
X151306904Y-135915295D01*
X151306904Y-135915295D02*
X151306904Y-136010533D01*
X151306904Y-136010533D02*
X151259285Y-136153390D01*
X151259285Y-136153390D02*
X150687857Y-136724819D01*
X150687857Y-136724819D02*
X151306904Y-136724819D01*
X122447142Y-118369819D02*
X122113809Y-117893628D01*
X121875714Y-118369819D02*
X121875714Y-117369819D01*
X121875714Y-117369819D02*
X122256666Y-117369819D01*
X122256666Y-117369819D02*
X122351904Y-117417438D01*
X122351904Y-117417438D02*
X122399523Y-117465057D01*
X122399523Y-117465057D02*
X122447142Y-117560295D01*
X122447142Y-117560295D02*
X122447142Y-117703152D01*
X122447142Y-117703152D02*
X122399523Y-117798390D01*
X122399523Y-117798390D02*
X122351904Y-117846009D01*
X122351904Y-117846009D02*
X122256666Y-117893628D01*
X122256666Y-117893628D02*
X121875714Y-117893628D01*
X122828095Y-117465057D02*
X122875714Y-117417438D01*
X122875714Y-117417438D02*
X122970952Y-117369819D01*
X122970952Y-117369819D02*
X123209047Y-117369819D01*
X123209047Y-117369819D02*
X123304285Y-117417438D01*
X123304285Y-117417438D02*
X123351904Y-117465057D01*
X123351904Y-117465057D02*
X123399523Y-117560295D01*
X123399523Y-117560295D02*
X123399523Y-117655533D01*
X123399523Y-117655533D02*
X123351904Y-117798390D01*
X123351904Y-117798390D02*
X122780476Y-118369819D01*
X122780476Y-118369819D02*
X123399523Y-118369819D01*
X124256666Y-117369819D02*
X124066190Y-117369819D01*
X124066190Y-117369819D02*
X123970952Y-117417438D01*
X123970952Y-117417438D02*
X123923333Y-117465057D01*
X123923333Y-117465057D02*
X123828095Y-117607914D01*
X123828095Y-117607914D02*
X123780476Y-117798390D01*
X123780476Y-117798390D02*
X123780476Y-118179342D01*
X123780476Y-118179342D02*
X123828095Y-118274580D01*
X123828095Y-118274580D02*
X123875714Y-118322200D01*
X123875714Y-118322200D02*
X123970952Y-118369819D01*
X123970952Y-118369819D02*
X124161428Y-118369819D01*
X124161428Y-118369819D02*
X124256666Y-118322200D01*
X124256666Y-118322200D02*
X124304285Y-118274580D01*
X124304285Y-118274580D02*
X124351904Y-118179342D01*
X124351904Y-118179342D02*
X124351904Y-117941247D01*
X124351904Y-117941247D02*
X124304285Y-117846009D01*
X124304285Y-117846009D02*
X124256666Y-117798390D01*
X124256666Y-117798390D02*
X124161428Y-117750771D01*
X124161428Y-117750771D02*
X123970952Y-117750771D01*
X123970952Y-117750771D02*
X123875714Y-117798390D01*
X123875714Y-117798390D02*
X123828095Y-117846009D01*
X123828095Y-117846009D02*
X123780476Y-117941247D01*
X41650057Y-141805238D02*
X41602438Y-141900476D01*
X41602438Y-141900476D02*
X41507200Y-141995714D01*
X41507200Y-141995714D02*
X41364342Y-142138571D01*
X41364342Y-142138571D02*
X41316723Y-142233809D01*
X41316723Y-142233809D02*
X41316723Y-142329047D01*
X41554819Y-142281428D02*
X41507200Y-142376666D01*
X41507200Y-142376666D02*
X41411961Y-142471904D01*
X41411961Y-142471904D02*
X41221485Y-142519523D01*
X41221485Y-142519523D02*
X40888152Y-142519523D01*
X40888152Y-142519523D02*
X40697676Y-142471904D01*
X40697676Y-142471904D02*
X40602438Y-142376666D01*
X40602438Y-142376666D02*
X40554819Y-142281428D01*
X40554819Y-142281428D02*
X40554819Y-142090952D01*
X40554819Y-142090952D02*
X40602438Y-141995714D01*
X40602438Y-141995714D02*
X40697676Y-141900476D01*
X40697676Y-141900476D02*
X40888152Y-141852857D01*
X40888152Y-141852857D02*
X41221485Y-141852857D01*
X41221485Y-141852857D02*
X41411961Y-141900476D01*
X41411961Y-141900476D02*
X41507200Y-141995714D01*
X41507200Y-141995714D02*
X41554819Y-142090952D01*
X41554819Y-142090952D02*
X41554819Y-142281428D01*
X41554819Y-140900476D02*
X41554819Y-141471904D01*
X41554819Y-141186190D02*
X40554819Y-141186190D01*
X40554819Y-141186190D02*
X40697676Y-141281428D01*
X40697676Y-141281428D02*
X40792914Y-141376666D01*
X40792914Y-141376666D02*
X40840533Y-141471904D01*
X110367142Y-110629580D02*
X110319523Y-110677200D01*
X110319523Y-110677200D02*
X110176666Y-110724819D01*
X110176666Y-110724819D02*
X110081428Y-110724819D01*
X110081428Y-110724819D02*
X109938571Y-110677200D01*
X109938571Y-110677200D02*
X109843333Y-110581961D01*
X109843333Y-110581961D02*
X109795714Y-110486723D01*
X109795714Y-110486723D02*
X109748095Y-110296247D01*
X109748095Y-110296247D02*
X109748095Y-110153390D01*
X109748095Y-110153390D02*
X109795714Y-109962914D01*
X109795714Y-109962914D02*
X109843333Y-109867676D01*
X109843333Y-109867676D02*
X109938571Y-109772438D01*
X109938571Y-109772438D02*
X110081428Y-109724819D01*
X110081428Y-109724819D02*
X110176666Y-109724819D01*
X110176666Y-109724819D02*
X110319523Y-109772438D01*
X110319523Y-109772438D02*
X110367142Y-109820057D01*
X110700476Y-109724819D02*
X111319523Y-109724819D01*
X111319523Y-109724819D02*
X110986190Y-110105771D01*
X110986190Y-110105771D02*
X111129047Y-110105771D01*
X111129047Y-110105771D02*
X111224285Y-110153390D01*
X111224285Y-110153390D02*
X111271904Y-110201009D01*
X111271904Y-110201009D02*
X111319523Y-110296247D01*
X111319523Y-110296247D02*
X111319523Y-110534342D01*
X111319523Y-110534342D02*
X111271904Y-110629580D01*
X111271904Y-110629580D02*
X111224285Y-110677200D01*
X111224285Y-110677200D02*
X111129047Y-110724819D01*
X111129047Y-110724819D02*
X110843333Y-110724819D01*
X110843333Y-110724819D02*
X110748095Y-110677200D01*
X110748095Y-110677200D02*
X110700476Y-110629580D01*
X112271904Y-110724819D02*
X111700476Y-110724819D01*
X111986190Y-110724819D02*
X111986190Y-109724819D01*
X111986190Y-109724819D02*
X111890952Y-109867676D01*
X111890952Y-109867676D02*
X111795714Y-109962914D01*
X111795714Y-109962914D02*
X111700476Y-110010533D01*
X103467142Y-155564819D02*
X103133809Y-155088628D01*
X102895714Y-155564819D02*
X102895714Y-154564819D01*
X102895714Y-154564819D02*
X103276666Y-154564819D01*
X103276666Y-154564819D02*
X103371904Y-154612438D01*
X103371904Y-154612438D02*
X103419523Y-154660057D01*
X103419523Y-154660057D02*
X103467142Y-154755295D01*
X103467142Y-154755295D02*
X103467142Y-154898152D01*
X103467142Y-154898152D02*
X103419523Y-154993390D01*
X103419523Y-154993390D02*
X103371904Y-155041009D01*
X103371904Y-155041009D02*
X103276666Y-155088628D01*
X103276666Y-155088628D02*
X102895714Y-155088628D01*
X103848095Y-154660057D02*
X103895714Y-154612438D01*
X103895714Y-154612438D02*
X103990952Y-154564819D01*
X103990952Y-154564819D02*
X104229047Y-154564819D01*
X104229047Y-154564819D02*
X104324285Y-154612438D01*
X104324285Y-154612438D02*
X104371904Y-154660057D01*
X104371904Y-154660057D02*
X104419523Y-154755295D01*
X104419523Y-154755295D02*
X104419523Y-154850533D01*
X104419523Y-154850533D02*
X104371904Y-154993390D01*
X104371904Y-154993390D02*
X103800476Y-155564819D01*
X103800476Y-155564819D02*
X104419523Y-155564819D01*
X104752857Y-154564819D02*
X105371904Y-154564819D01*
X105371904Y-154564819D02*
X105038571Y-154945771D01*
X105038571Y-154945771D02*
X105181428Y-154945771D01*
X105181428Y-154945771D02*
X105276666Y-154993390D01*
X105276666Y-154993390D02*
X105324285Y-155041009D01*
X105324285Y-155041009D02*
X105371904Y-155136247D01*
X105371904Y-155136247D02*
X105371904Y-155374342D01*
X105371904Y-155374342D02*
X105324285Y-155469580D01*
X105324285Y-155469580D02*
X105276666Y-155517200D01*
X105276666Y-155517200D02*
X105181428Y-155564819D01*
X105181428Y-155564819D02*
X104895714Y-155564819D01*
X104895714Y-155564819D02*
X104800476Y-155517200D01*
X104800476Y-155517200D02*
X104752857Y-155469580D01*
X109544819Y-116378094D02*
X108544819Y-116378094D01*
X108544819Y-116378094D02*
X108544819Y-116139999D01*
X108544819Y-116139999D02*
X108592438Y-115997142D01*
X108592438Y-115997142D02*
X108687676Y-115901904D01*
X108687676Y-115901904D02*
X108782914Y-115854285D01*
X108782914Y-115854285D02*
X108973390Y-115806666D01*
X108973390Y-115806666D02*
X109116247Y-115806666D01*
X109116247Y-115806666D02*
X109306723Y-115854285D01*
X109306723Y-115854285D02*
X109401961Y-115901904D01*
X109401961Y-115901904D02*
X109497200Y-115997142D01*
X109497200Y-115997142D02*
X109544819Y-116139999D01*
X109544819Y-116139999D02*
X109544819Y-116378094D01*
X108640057Y-115425713D02*
X108592438Y-115378094D01*
X108592438Y-115378094D02*
X108544819Y-115282856D01*
X108544819Y-115282856D02*
X108544819Y-115044761D01*
X108544819Y-115044761D02*
X108592438Y-114949523D01*
X108592438Y-114949523D02*
X108640057Y-114901904D01*
X108640057Y-114901904D02*
X108735295Y-114854285D01*
X108735295Y-114854285D02*
X108830533Y-114854285D01*
X108830533Y-114854285D02*
X108973390Y-114901904D01*
X108973390Y-114901904D02*
X109544819Y-115473332D01*
X109544819Y-115473332D02*
X109544819Y-114854285D01*
X113244819Y-159652857D02*
X112768628Y-159986190D01*
X113244819Y-160224285D02*
X112244819Y-160224285D01*
X112244819Y-160224285D02*
X112244819Y-159843333D01*
X112244819Y-159843333D02*
X112292438Y-159748095D01*
X112292438Y-159748095D02*
X112340057Y-159700476D01*
X112340057Y-159700476D02*
X112435295Y-159652857D01*
X112435295Y-159652857D02*
X112578152Y-159652857D01*
X112578152Y-159652857D02*
X112673390Y-159700476D01*
X112673390Y-159700476D02*
X112721009Y-159748095D01*
X112721009Y-159748095D02*
X112768628Y-159843333D01*
X112768628Y-159843333D02*
X112768628Y-160224285D01*
X113244819Y-158700476D02*
X113244819Y-159271904D01*
X113244819Y-158986190D02*
X112244819Y-158986190D01*
X112244819Y-158986190D02*
X112387676Y-159081428D01*
X112387676Y-159081428D02*
X112482914Y-159176666D01*
X112482914Y-159176666D02*
X112530533Y-159271904D01*
X112673390Y-158129047D02*
X112625771Y-158224285D01*
X112625771Y-158224285D02*
X112578152Y-158271904D01*
X112578152Y-158271904D02*
X112482914Y-158319523D01*
X112482914Y-158319523D02*
X112435295Y-158319523D01*
X112435295Y-158319523D02*
X112340057Y-158271904D01*
X112340057Y-158271904D02*
X112292438Y-158224285D01*
X112292438Y-158224285D02*
X112244819Y-158129047D01*
X112244819Y-158129047D02*
X112244819Y-157938571D01*
X112244819Y-157938571D02*
X112292438Y-157843333D01*
X112292438Y-157843333D02*
X112340057Y-157795714D01*
X112340057Y-157795714D02*
X112435295Y-157748095D01*
X112435295Y-157748095D02*
X112482914Y-157748095D01*
X112482914Y-157748095D02*
X112578152Y-157795714D01*
X112578152Y-157795714D02*
X112625771Y-157843333D01*
X112625771Y-157843333D02*
X112673390Y-157938571D01*
X112673390Y-157938571D02*
X112673390Y-158129047D01*
X112673390Y-158129047D02*
X112721009Y-158224285D01*
X112721009Y-158224285D02*
X112768628Y-158271904D01*
X112768628Y-158271904D02*
X112863866Y-158319523D01*
X112863866Y-158319523D02*
X113054342Y-158319523D01*
X113054342Y-158319523D02*
X113149580Y-158271904D01*
X113149580Y-158271904D02*
X113197200Y-158224285D01*
X113197200Y-158224285D02*
X113244819Y-158129047D01*
X113244819Y-158129047D02*
X113244819Y-157938571D01*
X113244819Y-157938571D02*
X113197200Y-157843333D01*
X113197200Y-157843333D02*
X113149580Y-157795714D01*
X113149580Y-157795714D02*
X113054342Y-157748095D01*
X113054342Y-157748095D02*
X112863866Y-157748095D01*
X112863866Y-157748095D02*
X112768628Y-157795714D01*
X112768628Y-157795714D02*
X112721009Y-157843333D01*
X112721009Y-157843333D02*
X112673390Y-157938571D01*
X105482142Y-147919580D02*
X105434523Y-147967200D01*
X105434523Y-147967200D02*
X105291666Y-148014819D01*
X105291666Y-148014819D02*
X105196428Y-148014819D01*
X105196428Y-148014819D02*
X105053571Y-147967200D01*
X105053571Y-147967200D02*
X104958333Y-147871961D01*
X104958333Y-147871961D02*
X104910714Y-147776723D01*
X104910714Y-147776723D02*
X104863095Y-147586247D01*
X104863095Y-147586247D02*
X104863095Y-147443390D01*
X104863095Y-147443390D02*
X104910714Y-147252914D01*
X104910714Y-147252914D02*
X104958333Y-147157676D01*
X104958333Y-147157676D02*
X105053571Y-147062438D01*
X105053571Y-147062438D02*
X105196428Y-147014819D01*
X105196428Y-147014819D02*
X105291666Y-147014819D01*
X105291666Y-147014819D02*
X105434523Y-147062438D01*
X105434523Y-147062438D02*
X105482142Y-147110057D01*
X105815476Y-147014819D02*
X106434523Y-147014819D01*
X106434523Y-147014819D02*
X106101190Y-147395771D01*
X106101190Y-147395771D02*
X106244047Y-147395771D01*
X106244047Y-147395771D02*
X106339285Y-147443390D01*
X106339285Y-147443390D02*
X106386904Y-147491009D01*
X106386904Y-147491009D02*
X106434523Y-147586247D01*
X106434523Y-147586247D02*
X106434523Y-147824342D01*
X106434523Y-147824342D02*
X106386904Y-147919580D01*
X106386904Y-147919580D02*
X106339285Y-147967200D01*
X106339285Y-147967200D02*
X106244047Y-148014819D01*
X106244047Y-148014819D02*
X105958333Y-148014819D01*
X105958333Y-148014819D02*
X105863095Y-147967200D01*
X105863095Y-147967200D02*
X105815476Y-147919580D01*
X106815476Y-147110057D02*
X106863095Y-147062438D01*
X106863095Y-147062438D02*
X106958333Y-147014819D01*
X106958333Y-147014819D02*
X107196428Y-147014819D01*
X107196428Y-147014819D02*
X107291666Y-147062438D01*
X107291666Y-147062438D02*
X107339285Y-147110057D01*
X107339285Y-147110057D02*
X107386904Y-147205295D01*
X107386904Y-147205295D02*
X107386904Y-147300533D01*
X107386904Y-147300533D02*
X107339285Y-147443390D01*
X107339285Y-147443390D02*
X106767857Y-148014819D01*
X106767857Y-148014819D02*
X107386904Y-148014819D01*
X100089580Y-109912857D02*
X100137200Y-109960476D01*
X100137200Y-109960476D02*
X100184819Y-110103333D01*
X100184819Y-110103333D02*
X100184819Y-110198571D01*
X100184819Y-110198571D02*
X100137200Y-110341428D01*
X100137200Y-110341428D02*
X100041961Y-110436666D01*
X100041961Y-110436666D02*
X99946723Y-110484285D01*
X99946723Y-110484285D02*
X99756247Y-110531904D01*
X99756247Y-110531904D02*
X99613390Y-110531904D01*
X99613390Y-110531904D02*
X99422914Y-110484285D01*
X99422914Y-110484285D02*
X99327676Y-110436666D01*
X99327676Y-110436666D02*
X99232438Y-110341428D01*
X99232438Y-110341428D02*
X99184819Y-110198571D01*
X99184819Y-110198571D02*
X99184819Y-110103333D01*
X99184819Y-110103333D02*
X99232438Y-109960476D01*
X99232438Y-109960476D02*
X99280057Y-109912857D01*
X99518152Y-109055714D02*
X100184819Y-109055714D01*
X99137200Y-109293809D02*
X99851485Y-109531904D01*
X99851485Y-109531904D02*
X99851485Y-108912857D01*
X99184819Y-108341428D02*
X99184819Y-108246190D01*
X99184819Y-108246190D02*
X99232438Y-108150952D01*
X99232438Y-108150952D02*
X99280057Y-108103333D01*
X99280057Y-108103333D02*
X99375295Y-108055714D01*
X99375295Y-108055714D02*
X99565771Y-108008095D01*
X99565771Y-108008095D02*
X99803866Y-108008095D01*
X99803866Y-108008095D02*
X99994342Y-108055714D01*
X99994342Y-108055714D02*
X100089580Y-108103333D01*
X100089580Y-108103333D02*
X100137200Y-108150952D01*
X100137200Y-108150952D02*
X100184819Y-108246190D01*
X100184819Y-108246190D02*
X100184819Y-108341428D01*
X100184819Y-108341428D02*
X100137200Y-108436666D01*
X100137200Y-108436666D02*
X100089580Y-108484285D01*
X100089580Y-108484285D02*
X99994342Y-108531904D01*
X99994342Y-108531904D02*
X99803866Y-108579523D01*
X99803866Y-108579523D02*
X99565771Y-108579523D01*
X99565771Y-108579523D02*
X99375295Y-108531904D01*
X99375295Y-108531904D02*
X99280057Y-108484285D01*
X99280057Y-108484285D02*
X99232438Y-108436666D01*
X99232438Y-108436666D02*
X99184819Y-108341428D01*
X87874819Y-150266666D02*
X87398628Y-150599999D01*
X87874819Y-150838094D02*
X86874819Y-150838094D01*
X86874819Y-150838094D02*
X86874819Y-150457142D01*
X86874819Y-150457142D02*
X86922438Y-150361904D01*
X86922438Y-150361904D02*
X86970057Y-150314285D01*
X86970057Y-150314285D02*
X87065295Y-150266666D01*
X87065295Y-150266666D02*
X87208152Y-150266666D01*
X87208152Y-150266666D02*
X87303390Y-150314285D01*
X87303390Y-150314285D02*
X87351009Y-150361904D01*
X87351009Y-150361904D02*
X87398628Y-150457142D01*
X87398628Y-150457142D02*
X87398628Y-150838094D01*
X86874819Y-149933332D02*
X86874819Y-149314285D01*
X86874819Y-149314285D02*
X87255771Y-149647618D01*
X87255771Y-149647618D02*
X87255771Y-149504761D01*
X87255771Y-149504761D02*
X87303390Y-149409523D01*
X87303390Y-149409523D02*
X87351009Y-149361904D01*
X87351009Y-149361904D02*
X87446247Y-149314285D01*
X87446247Y-149314285D02*
X87684342Y-149314285D01*
X87684342Y-149314285D02*
X87779580Y-149361904D01*
X87779580Y-149361904D02*
X87827200Y-149409523D01*
X87827200Y-149409523D02*
X87874819Y-149504761D01*
X87874819Y-149504761D02*
X87874819Y-149790475D01*
X87874819Y-149790475D02*
X87827200Y-149885713D01*
X87827200Y-149885713D02*
X87779580Y-149933332D01*
X107839580Y-159492857D02*
X107887200Y-159540476D01*
X107887200Y-159540476D02*
X107934819Y-159683333D01*
X107934819Y-159683333D02*
X107934819Y-159778571D01*
X107934819Y-159778571D02*
X107887200Y-159921428D01*
X107887200Y-159921428D02*
X107791961Y-160016666D01*
X107791961Y-160016666D02*
X107696723Y-160064285D01*
X107696723Y-160064285D02*
X107506247Y-160111904D01*
X107506247Y-160111904D02*
X107363390Y-160111904D01*
X107363390Y-160111904D02*
X107172914Y-160064285D01*
X107172914Y-160064285D02*
X107077676Y-160016666D01*
X107077676Y-160016666D02*
X106982438Y-159921428D01*
X106982438Y-159921428D02*
X106934819Y-159778571D01*
X106934819Y-159778571D02*
X106934819Y-159683333D01*
X106934819Y-159683333D02*
X106982438Y-159540476D01*
X106982438Y-159540476D02*
X107030057Y-159492857D01*
X106934819Y-159159523D02*
X106934819Y-158540476D01*
X106934819Y-158540476D02*
X107315771Y-158873809D01*
X107315771Y-158873809D02*
X107315771Y-158730952D01*
X107315771Y-158730952D02*
X107363390Y-158635714D01*
X107363390Y-158635714D02*
X107411009Y-158588095D01*
X107411009Y-158588095D02*
X107506247Y-158540476D01*
X107506247Y-158540476D02*
X107744342Y-158540476D01*
X107744342Y-158540476D02*
X107839580Y-158588095D01*
X107839580Y-158588095D02*
X107887200Y-158635714D01*
X107887200Y-158635714D02*
X107934819Y-158730952D01*
X107934819Y-158730952D02*
X107934819Y-159016666D01*
X107934819Y-159016666D02*
X107887200Y-159111904D01*
X107887200Y-159111904D02*
X107839580Y-159159523D01*
X106934819Y-158207142D02*
X106934819Y-157588095D01*
X106934819Y-157588095D02*
X107315771Y-157921428D01*
X107315771Y-157921428D02*
X107315771Y-157778571D01*
X107315771Y-157778571D02*
X107363390Y-157683333D01*
X107363390Y-157683333D02*
X107411009Y-157635714D01*
X107411009Y-157635714D02*
X107506247Y-157588095D01*
X107506247Y-157588095D02*
X107744342Y-157588095D01*
X107744342Y-157588095D02*
X107839580Y-157635714D01*
X107839580Y-157635714D02*
X107887200Y-157683333D01*
X107887200Y-157683333D02*
X107934819Y-157778571D01*
X107934819Y-157778571D02*
X107934819Y-158064285D01*
X107934819Y-158064285D02*
X107887200Y-158159523D01*
X107887200Y-158159523D02*
X107839580Y-158207142D01*
X151389580Y-111052857D02*
X151437200Y-111100476D01*
X151437200Y-111100476D02*
X151484819Y-111243333D01*
X151484819Y-111243333D02*
X151484819Y-111338571D01*
X151484819Y-111338571D02*
X151437200Y-111481428D01*
X151437200Y-111481428D02*
X151341961Y-111576666D01*
X151341961Y-111576666D02*
X151246723Y-111624285D01*
X151246723Y-111624285D02*
X151056247Y-111671904D01*
X151056247Y-111671904D02*
X150913390Y-111671904D01*
X150913390Y-111671904D02*
X150722914Y-111624285D01*
X150722914Y-111624285D02*
X150627676Y-111576666D01*
X150627676Y-111576666D02*
X150532438Y-111481428D01*
X150532438Y-111481428D02*
X150484819Y-111338571D01*
X150484819Y-111338571D02*
X150484819Y-111243333D01*
X150484819Y-111243333D02*
X150532438Y-111100476D01*
X150532438Y-111100476D02*
X150580057Y-111052857D01*
X150580057Y-110671904D02*
X150532438Y-110624285D01*
X150532438Y-110624285D02*
X150484819Y-110529047D01*
X150484819Y-110529047D02*
X150484819Y-110290952D01*
X150484819Y-110290952D02*
X150532438Y-110195714D01*
X150532438Y-110195714D02*
X150580057Y-110148095D01*
X150580057Y-110148095D02*
X150675295Y-110100476D01*
X150675295Y-110100476D02*
X150770533Y-110100476D01*
X150770533Y-110100476D02*
X150913390Y-110148095D01*
X150913390Y-110148095D02*
X151484819Y-110719523D01*
X151484819Y-110719523D02*
X151484819Y-110100476D01*
X151484819Y-109148095D02*
X151484819Y-109719523D01*
X151484819Y-109433809D02*
X150484819Y-109433809D01*
X150484819Y-109433809D02*
X150627676Y-109529047D01*
X150627676Y-109529047D02*
X150722914Y-109624285D01*
X150722914Y-109624285D02*
X150770533Y-109719523D01*
X110347142Y-117769580D02*
X110299523Y-117817200D01*
X110299523Y-117817200D02*
X110156666Y-117864819D01*
X110156666Y-117864819D02*
X110061428Y-117864819D01*
X110061428Y-117864819D02*
X109918571Y-117817200D01*
X109918571Y-117817200D02*
X109823333Y-117721961D01*
X109823333Y-117721961D02*
X109775714Y-117626723D01*
X109775714Y-117626723D02*
X109728095Y-117436247D01*
X109728095Y-117436247D02*
X109728095Y-117293390D01*
X109728095Y-117293390D02*
X109775714Y-117102914D01*
X109775714Y-117102914D02*
X109823333Y-117007676D01*
X109823333Y-117007676D02*
X109918571Y-116912438D01*
X109918571Y-116912438D02*
X110061428Y-116864819D01*
X110061428Y-116864819D02*
X110156666Y-116864819D01*
X110156666Y-116864819D02*
X110299523Y-116912438D01*
X110299523Y-116912438D02*
X110347142Y-116960057D01*
X110680476Y-116864819D02*
X111299523Y-116864819D01*
X111299523Y-116864819D02*
X110966190Y-117245771D01*
X110966190Y-117245771D02*
X111109047Y-117245771D01*
X111109047Y-117245771D02*
X111204285Y-117293390D01*
X111204285Y-117293390D02*
X111251904Y-117341009D01*
X111251904Y-117341009D02*
X111299523Y-117436247D01*
X111299523Y-117436247D02*
X111299523Y-117674342D01*
X111299523Y-117674342D02*
X111251904Y-117769580D01*
X111251904Y-117769580D02*
X111204285Y-117817200D01*
X111204285Y-117817200D02*
X111109047Y-117864819D01*
X111109047Y-117864819D02*
X110823333Y-117864819D01*
X110823333Y-117864819D02*
X110728095Y-117817200D01*
X110728095Y-117817200D02*
X110680476Y-117769580D01*
X111775714Y-117864819D02*
X111966190Y-117864819D01*
X111966190Y-117864819D02*
X112061428Y-117817200D01*
X112061428Y-117817200D02*
X112109047Y-117769580D01*
X112109047Y-117769580D02*
X112204285Y-117626723D01*
X112204285Y-117626723D02*
X112251904Y-117436247D01*
X112251904Y-117436247D02*
X112251904Y-117055295D01*
X112251904Y-117055295D02*
X112204285Y-116960057D01*
X112204285Y-116960057D02*
X112156666Y-116912438D01*
X112156666Y-116912438D02*
X112061428Y-116864819D01*
X112061428Y-116864819D02*
X111870952Y-116864819D01*
X111870952Y-116864819D02*
X111775714Y-116912438D01*
X111775714Y-116912438D02*
X111728095Y-116960057D01*
X111728095Y-116960057D02*
X111680476Y-117055295D01*
X111680476Y-117055295D02*
X111680476Y-117293390D01*
X111680476Y-117293390D02*
X111728095Y-117388628D01*
X111728095Y-117388628D02*
X111775714Y-117436247D01*
X111775714Y-117436247D02*
X111870952Y-117483866D01*
X111870952Y-117483866D02*
X112061428Y-117483866D01*
X112061428Y-117483866D02*
X112156666Y-117436247D01*
X112156666Y-117436247D02*
X112204285Y-117388628D01*
X112204285Y-117388628D02*
X112251904Y-117293390D01*
X44683333Y-150584819D02*
X44350000Y-150108628D01*
X44111905Y-150584819D02*
X44111905Y-149584819D01*
X44111905Y-149584819D02*
X44492857Y-149584819D01*
X44492857Y-149584819D02*
X44588095Y-149632438D01*
X44588095Y-149632438D02*
X44635714Y-149680057D01*
X44635714Y-149680057D02*
X44683333Y-149775295D01*
X44683333Y-149775295D02*
X44683333Y-149918152D01*
X44683333Y-149918152D02*
X44635714Y-150013390D01*
X44635714Y-150013390D02*
X44588095Y-150061009D01*
X44588095Y-150061009D02*
X44492857Y-150108628D01*
X44492857Y-150108628D02*
X44111905Y-150108628D01*
X45540476Y-149584819D02*
X45350000Y-149584819D01*
X45350000Y-149584819D02*
X45254762Y-149632438D01*
X45254762Y-149632438D02*
X45207143Y-149680057D01*
X45207143Y-149680057D02*
X45111905Y-149822914D01*
X45111905Y-149822914D02*
X45064286Y-150013390D01*
X45064286Y-150013390D02*
X45064286Y-150394342D01*
X45064286Y-150394342D02*
X45111905Y-150489580D01*
X45111905Y-150489580D02*
X45159524Y-150537200D01*
X45159524Y-150537200D02*
X45254762Y-150584819D01*
X45254762Y-150584819D02*
X45445238Y-150584819D01*
X45445238Y-150584819D02*
X45540476Y-150537200D01*
X45540476Y-150537200D02*
X45588095Y-150489580D01*
X45588095Y-150489580D02*
X45635714Y-150394342D01*
X45635714Y-150394342D02*
X45635714Y-150156247D01*
X45635714Y-150156247D02*
X45588095Y-150061009D01*
X45588095Y-150061009D02*
X45540476Y-150013390D01*
X45540476Y-150013390D02*
X45445238Y-149965771D01*
X45445238Y-149965771D02*
X45254762Y-149965771D01*
X45254762Y-149965771D02*
X45159524Y-150013390D01*
X45159524Y-150013390D02*
X45111905Y-150061009D01*
X45111905Y-150061009D02*
X45064286Y-150156247D01*
X102009819Y-154341904D02*
X102819342Y-154341904D01*
X102819342Y-154341904D02*
X102914580Y-154294285D01*
X102914580Y-154294285D02*
X102962200Y-154246666D01*
X102962200Y-154246666D02*
X103009819Y-154151428D01*
X103009819Y-154151428D02*
X103009819Y-153960952D01*
X103009819Y-153960952D02*
X102962200Y-153865714D01*
X102962200Y-153865714D02*
X102914580Y-153818095D01*
X102914580Y-153818095D02*
X102819342Y-153770476D01*
X102819342Y-153770476D02*
X102009819Y-153770476D01*
X102009819Y-152818095D02*
X102009819Y-153294285D01*
X102009819Y-153294285D02*
X102486009Y-153341904D01*
X102486009Y-153341904D02*
X102438390Y-153294285D01*
X102438390Y-153294285D02*
X102390771Y-153199047D01*
X102390771Y-153199047D02*
X102390771Y-152960952D01*
X102390771Y-152960952D02*
X102438390Y-152865714D01*
X102438390Y-152865714D02*
X102486009Y-152818095D01*
X102486009Y-152818095D02*
X102581247Y-152770476D01*
X102581247Y-152770476D02*
X102819342Y-152770476D01*
X102819342Y-152770476D02*
X102914580Y-152818095D01*
X102914580Y-152818095D02*
X102962200Y-152865714D01*
X102962200Y-152865714D02*
X103009819Y-152960952D01*
X103009819Y-152960952D02*
X103009819Y-153199047D01*
X103009819Y-153199047D02*
X102962200Y-153294285D01*
X102962200Y-153294285D02*
X102914580Y-153341904D01*
X44187142Y-142809580D02*
X44139523Y-142857200D01*
X44139523Y-142857200D02*
X43996666Y-142904819D01*
X43996666Y-142904819D02*
X43901428Y-142904819D01*
X43901428Y-142904819D02*
X43758571Y-142857200D01*
X43758571Y-142857200D02*
X43663333Y-142761961D01*
X43663333Y-142761961D02*
X43615714Y-142666723D01*
X43615714Y-142666723D02*
X43568095Y-142476247D01*
X43568095Y-142476247D02*
X43568095Y-142333390D01*
X43568095Y-142333390D02*
X43615714Y-142142914D01*
X43615714Y-142142914D02*
X43663333Y-142047676D01*
X43663333Y-142047676D02*
X43758571Y-141952438D01*
X43758571Y-141952438D02*
X43901428Y-141904819D01*
X43901428Y-141904819D02*
X43996666Y-141904819D01*
X43996666Y-141904819D02*
X44139523Y-141952438D01*
X44139523Y-141952438D02*
X44187142Y-142000057D01*
X45139523Y-142904819D02*
X44568095Y-142904819D01*
X44853809Y-142904819D02*
X44853809Y-141904819D01*
X44853809Y-141904819D02*
X44758571Y-142047676D01*
X44758571Y-142047676D02*
X44663333Y-142142914D01*
X44663333Y-142142914D02*
X44568095Y-142190533D01*
X45996666Y-142238152D02*
X45996666Y-142904819D01*
X45758571Y-141857200D02*
X45520476Y-142571485D01*
X45520476Y-142571485D02*
X46139523Y-142571485D01*
X144949580Y-110820357D02*
X144997200Y-110867976D01*
X144997200Y-110867976D02*
X145044819Y-111010833D01*
X145044819Y-111010833D02*
X145044819Y-111106071D01*
X145044819Y-111106071D02*
X144997200Y-111248928D01*
X144997200Y-111248928D02*
X144901961Y-111344166D01*
X144901961Y-111344166D02*
X144806723Y-111391785D01*
X144806723Y-111391785D02*
X144616247Y-111439404D01*
X144616247Y-111439404D02*
X144473390Y-111439404D01*
X144473390Y-111439404D02*
X144282914Y-111391785D01*
X144282914Y-111391785D02*
X144187676Y-111344166D01*
X144187676Y-111344166D02*
X144092438Y-111248928D01*
X144092438Y-111248928D02*
X144044819Y-111106071D01*
X144044819Y-111106071D02*
X144044819Y-111010833D01*
X144044819Y-111010833D02*
X144092438Y-110867976D01*
X144092438Y-110867976D02*
X144140057Y-110820357D01*
X144140057Y-110439404D02*
X144092438Y-110391785D01*
X144092438Y-110391785D02*
X144044819Y-110296547D01*
X144044819Y-110296547D02*
X144044819Y-110058452D01*
X144044819Y-110058452D02*
X144092438Y-109963214D01*
X144092438Y-109963214D02*
X144140057Y-109915595D01*
X144140057Y-109915595D02*
X144235295Y-109867976D01*
X144235295Y-109867976D02*
X144330533Y-109867976D01*
X144330533Y-109867976D02*
X144473390Y-109915595D01*
X144473390Y-109915595D02*
X145044819Y-110487023D01*
X145044819Y-110487023D02*
X145044819Y-109867976D01*
X144378152Y-109010833D02*
X145044819Y-109010833D01*
X143997200Y-109248928D02*
X144711485Y-109487023D01*
X144711485Y-109487023D02*
X144711485Y-108867976D01*
X100744819Y-109147857D02*
X100268628Y-109481190D01*
X100744819Y-109719285D02*
X99744819Y-109719285D01*
X99744819Y-109719285D02*
X99744819Y-109338333D01*
X99744819Y-109338333D02*
X99792438Y-109243095D01*
X99792438Y-109243095D02*
X99840057Y-109195476D01*
X99840057Y-109195476D02*
X99935295Y-109147857D01*
X99935295Y-109147857D02*
X100078152Y-109147857D01*
X100078152Y-109147857D02*
X100173390Y-109195476D01*
X100173390Y-109195476D02*
X100221009Y-109243095D01*
X100221009Y-109243095D02*
X100268628Y-109338333D01*
X100268628Y-109338333D02*
X100268628Y-109719285D01*
X100744819Y-108195476D02*
X100744819Y-108766904D01*
X100744819Y-108481190D02*
X99744819Y-108481190D01*
X99744819Y-108481190D02*
X99887676Y-108576428D01*
X99887676Y-108576428D02*
X99982914Y-108671666D01*
X99982914Y-108671666D02*
X100030533Y-108766904D01*
X100078152Y-107338333D02*
X100744819Y-107338333D01*
X99697200Y-107576428D02*
X100411485Y-107814523D01*
X100411485Y-107814523D02*
X100411485Y-107195476D01*
X121074819Y-119767857D02*
X120598628Y-120101190D01*
X121074819Y-120339285D02*
X120074819Y-120339285D01*
X120074819Y-120339285D02*
X120074819Y-119958333D01*
X120074819Y-119958333D02*
X120122438Y-119863095D01*
X120122438Y-119863095D02*
X120170057Y-119815476D01*
X120170057Y-119815476D02*
X120265295Y-119767857D01*
X120265295Y-119767857D02*
X120408152Y-119767857D01*
X120408152Y-119767857D02*
X120503390Y-119815476D01*
X120503390Y-119815476D02*
X120551009Y-119863095D01*
X120551009Y-119863095D02*
X120598628Y-119958333D01*
X120598628Y-119958333D02*
X120598628Y-120339285D01*
X120170057Y-119386904D02*
X120122438Y-119339285D01*
X120122438Y-119339285D02*
X120074819Y-119244047D01*
X120074819Y-119244047D02*
X120074819Y-119005952D01*
X120074819Y-119005952D02*
X120122438Y-118910714D01*
X120122438Y-118910714D02*
X120170057Y-118863095D01*
X120170057Y-118863095D02*
X120265295Y-118815476D01*
X120265295Y-118815476D02*
X120360533Y-118815476D01*
X120360533Y-118815476D02*
X120503390Y-118863095D01*
X120503390Y-118863095D02*
X121074819Y-119434523D01*
X121074819Y-119434523D02*
X121074819Y-118815476D01*
X120074819Y-118482142D02*
X120074819Y-117815476D01*
X120074819Y-117815476D02*
X121074819Y-118244047D01*
X119777142Y-151899580D02*
X119729523Y-151947200D01*
X119729523Y-151947200D02*
X119586666Y-151994819D01*
X119586666Y-151994819D02*
X119491428Y-151994819D01*
X119491428Y-151994819D02*
X119348571Y-151947200D01*
X119348571Y-151947200D02*
X119253333Y-151851961D01*
X119253333Y-151851961D02*
X119205714Y-151756723D01*
X119205714Y-151756723D02*
X119158095Y-151566247D01*
X119158095Y-151566247D02*
X119158095Y-151423390D01*
X119158095Y-151423390D02*
X119205714Y-151232914D01*
X119205714Y-151232914D02*
X119253333Y-151137676D01*
X119253333Y-151137676D02*
X119348571Y-151042438D01*
X119348571Y-151042438D02*
X119491428Y-150994819D01*
X119491428Y-150994819D02*
X119586666Y-150994819D01*
X119586666Y-150994819D02*
X119729523Y-151042438D01*
X119729523Y-151042438D02*
X119777142Y-151090057D01*
X120110476Y-150994819D02*
X120729523Y-150994819D01*
X120729523Y-150994819D02*
X120396190Y-151375771D01*
X120396190Y-151375771D02*
X120539047Y-151375771D01*
X120539047Y-151375771D02*
X120634285Y-151423390D01*
X120634285Y-151423390D02*
X120681904Y-151471009D01*
X120681904Y-151471009D02*
X120729523Y-151566247D01*
X120729523Y-151566247D02*
X120729523Y-151804342D01*
X120729523Y-151804342D02*
X120681904Y-151899580D01*
X120681904Y-151899580D02*
X120634285Y-151947200D01*
X120634285Y-151947200D02*
X120539047Y-151994819D01*
X120539047Y-151994819D02*
X120253333Y-151994819D01*
X120253333Y-151994819D02*
X120158095Y-151947200D01*
X120158095Y-151947200D02*
X120110476Y-151899580D01*
X121062857Y-150994819D02*
X121729523Y-150994819D01*
X121729523Y-150994819D02*
X121300952Y-151994819D01*
X95203333Y-146419580D02*
X95155714Y-146467200D01*
X95155714Y-146467200D02*
X95012857Y-146514819D01*
X95012857Y-146514819D02*
X94917619Y-146514819D01*
X94917619Y-146514819D02*
X94774762Y-146467200D01*
X94774762Y-146467200D02*
X94679524Y-146371961D01*
X94679524Y-146371961D02*
X94631905Y-146276723D01*
X94631905Y-146276723D02*
X94584286Y-146086247D01*
X94584286Y-146086247D02*
X94584286Y-145943390D01*
X94584286Y-145943390D02*
X94631905Y-145752914D01*
X94631905Y-145752914D02*
X94679524Y-145657676D01*
X94679524Y-145657676D02*
X94774762Y-145562438D01*
X94774762Y-145562438D02*
X94917619Y-145514819D01*
X94917619Y-145514819D02*
X95012857Y-145514819D01*
X95012857Y-145514819D02*
X95155714Y-145562438D01*
X95155714Y-145562438D02*
X95203333Y-145610057D01*
X95536667Y-145514819D02*
X96203333Y-145514819D01*
X96203333Y-145514819D02*
X95774762Y-146514819D01*
X110477142Y-105829580D02*
X110429523Y-105877200D01*
X110429523Y-105877200D02*
X110286666Y-105924819D01*
X110286666Y-105924819D02*
X110191428Y-105924819D01*
X110191428Y-105924819D02*
X110048571Y-105877200D01*
X110048571Y-105877200D02*
X109953333Y-105781961D01*
X109953333Y-105781961D02*
X109905714Y-105686723D01*
X109905714Y-105686723D02*
X109858095Y-105496247D01*
X109858095Y-105496247D02*
X109858095Y-105353390D01*
X109858095Y-105353390D02*
X109905714Y-105162914D01*
X109905714Y-105162914D02*
X109953333Y-105067676D01*
X109953333Y-105067676D02*
X110048571Y-104972438D01*
X110048571Y-104972438D02*
X110191428Y-104924819D01*
X110191428Y-104924819D02*
X110286666Y-104924819D01*
X110286666Y-104924819D02*
X110429523Y-104972438D01*
X110429523Y-104972438D02*
X110477142Y-105020057D01*
X110858095Y-105020057D02*
X110905714Y-104972438D01*
X110905714Y-104972438D02*
X111000952Y-104924819D01*
X111000952Y-104924819D02*
X111239047Y-104924819D01*
X111239047Y-104924819D02*
X111334285Y-104972438D01*
X111334285Y-104972438D02*
X111381904Y-105020057D01*
X111381904Y-105020057D02*
X111429523Y-105115295D01*
X111429523Y-105115295D02*
X111429523Y-105210533D01*
X111429523Y-105210533D02*
X111381904Y-105353390D01*
X111381904Y-105353390D02*
X110810476Y-105924819D01*
X110810476Y-105924819D02*
X111429523Y-105924819D01*
X111905714Y-105924819D02*
X112096190Y-105924819D01*
X112096190Y-105924819D02*
X112191428Y-105877200D01*
X112191428Y-105877200D02*
X112239047Y-105829580D01*
X112239047Y-105829580D02*
X112334285Y-105686723D01*
X112334285Y-105686723D02*
X112381904Y-105496247D01*
X112381904Y-105496247D02*
X112381904Y-105115295D01*
X112381904Y-105115295D02*
X112334285Y-105020057D01*
X112334285Y-105020057D02*
X112286666Y-104972438D01*
X112286666Y-104972438D02*
X112191428Y-104924819D01*
X112191428Y-104924819D02*
X112000952Y-104924819D01*
X112000952Y-104924819D02*
X111905714Y-104972438D01*
X111905714Y-104972438D02*
X111858095Y-105020057D01*
X111858095Y-105020057D02*
X111810476Y-105115295D01*
X111810476Y-105115295D02*
X111810476Y-105353390D01*
X111810476Y-105353390D02*
X111858095Y-105448628D01*
X111858095Y-105448628D02*
X111905714Y-105496247D01*
X111905714Y-105496247D02*
X112000952Y-105543866D01*
X112000952Y-105543866D02*
X112191428Y-105543866D01*
X112191428Y-105543866D02*
X112286666Y-105496247D01*
X112286666Y-105496247D02*
X112334285Y-105448628D01*
X112334285Y-105448628D02*
X112381904Y-105353390D01*
X113564819Y-127636666D02*
X113564819Y-128112856D01*
X113564819Y-128112856D02*
X112564819Y-128112856D01*
X112660057Y-127350951D02*
X112612438Y-127303332D01*
X112612438Y-127303332D02*
X112564819Y-127208094D01*
X112564819Y-127208094D02*
X112564819Y-126969999D01*
X112564819Y-126969999D02*
X112612438Y-126874761D01*
X112612438Y-126874761D02*
X112660057Y-126827142D01*
X112660057Y-126827142D02*
X112755295Y-126779523D01*
X112755295Y-126779523D02*
X112850533Y-126779523D01*
X112850533Y-126779523D02*
X112993390Y-126827142D01*
X112993390Y-126827142D02*
X113564819Y-127398570D01*
X113564819Y-127398570D02*
X113564819Y-126779523D01*
X126479580Y-125152857D02*
X126527200Y-125200476D01*
X126527200Y-125200476D02*
X126574819Y-125343333D01*
X126574819Y-125343333D02*
X126574819Y-125438571D01*
X126574819Y-125438571D02*
X126527200Y-125581428D01*
X126527200Y-125581428D02*
X126431961Y-125676666D01*
X126431961Y-125676666D02*
X126336723Y-125724285D01*
X126336723Y-125724285D02*
X126146247Y-125771904D01*
X126146247Y-125771904D02*
X126003390Y-125771904D01*
X126003390Y-125771904D02*
X125812914Y-125724285D01*
X125812914Y-125724285D02*
X125717676Y-125676666D01*
X125717676Y-125676666D02*
X125622438Y-125581428D01*
X125622438Y-125581428D02*
X125574819Y-125438571D01*
X125574819Y-125438571D02*
X125574819Y-125343333D01*
X125574819Y-125343333D02*
X125622438Y-125200476D01*
X125622438Y-125200476D02*
X125670057Y-125152857D01*
X125670057Y-124771904D02*
X125622438Y-124724285D01*
X125622438Y-124724285D02*
X125574819Y-124629047D01*
X125574819Y-124629047D02*
X125574819Y-124390952D01*
X125574819Y-124390952D02*
X125622438Y-124295714D01*
X125622438Y-124295714D02*
X125670057Y-124248095D01*
X125670057Y-124248095D02*
X125765295Y-124200476D01*
X125765295Y-124200476D02*
X125860533Y-124200476D01*
X125860533Y-124200476D02*
X126003390Y-124248095D01*
X126003390Y-124248095D02*
X126574819Y-124819523D01*
X126574819Y-124819523D02*
X126574819Y-124200476D01*
X125574819Y-123343333D02*
X125574819Y-123533809D01*
X125574819Y-123533809D02*
X125622438Y-123629047D01*
X125622438Y-123629047D02*
X125670057Y-123676666D01*
X125670057Y-123676666D02*
X125812914Y-123771904D01*
X125812914Y-123771904D02*
X126003390Y-123819523D01*
X126003390Y-123819523D02*
X126384342Y-123819523D01*
X126384342Y-123819523D02*
X126479580Y-123771904D01*
X126479580Y-123771904D02*
X126527200Y-123724285D01*
X126527200Y-123724285D02*
X126574819Y-123629047D01*
X126574819Y-123629047D02*
X126574819Y-123438571D01*
X126574819Y-123438571D02*
X126527200Y-123343333D01*
X126527200Y-123343333D02*
X126479580Y-123295714D01*
X126479580Y-123295714D02*
X126384342Y-123248095D01*
X126384342Y-123248095D02*
X126146247Y-123248095D01*
X126146247Y-123248095D02*
X126051009Y-123295714D01*
X126051009Y-123295714D02*
X126003390Y-123343333D01*
X126003390Y-123343333D02*
X125955771Y-123438571D01*
X125955771Y-123438571D02*
X125955771Y-123629047D01*
X125955771Y-123629047D02*
X126003390Y-123724285D01*
X126003390Y-123724285D02*
X126051009Y-123771904D01*
X126051009Y-123771904D02*
X126146247Y-123819523D01*
X44237142Y-140339580D02*
X44189523Y-140387200D01*
X44189523Y-140387200D02*
X44046666Y-140434819D01*
X44046666Y-140434819D02*
X43951428Y-140434819D01*
X43951428Y-140434819D02*
X43808571Y-140387200D01*
X43808571Y-140387200D02*
X43713333Y-140291961D01*
X43713333Y-140291961D02*
X43665714Y-140196723D01*
X43665714Y-140196723D02*
X43618095Y-140006247D01*
X43618095Y-140006247D02*
X43618095Y-139863390D01*
X43618095Y-139863390D02*
X43665714Y-139672914D01*
X43665714Y-139672914D02*
X43713333Y-139577676D01*
X43713333Y-139577676D02*
X43808571Y-139482438D01*
X43808571Y-139482438D02*
X43951428Y-139434819D01*
X43951428Y-139434819D02*
X44046666Y-139434819D01*
X44046666Y-139434819D02*
X44189523Y-139482438D01*
X44189523Y-139482438D02*
X44237142Y-139530057D01*
X45189523Y-140434819D02*
X44618095Y-140434819D01*
X44903809Y-140434819D02*
X44903809Y-139434819D01*
X44903809Y-139434819D02*
X44808571Y-139577676D01*
X44808571Y-139577676D02*
X44713333Y-139672914D01*
X44713333Y-139672914D02*
X44618095Y-139720533D01*
X45522857Y-139434819D02*
X46141904Y-139434819D01*
X46141904Y-139434819D02*
X45808571Y-139815771D01*
X45808571Y-139815771D02*
X45951428Y-139815771D01*
X45951428Y-139815771D02*
X46046666Y-139863390D01*
X46046666Y-139863390D02*
X46094285Y-139911009D01*
X46094285Y-139911009D02*
X46141904Y-140006247D01*
X46141904Y-140006247D02*
X46141904Y-140244342D01*
X46141904Y-140244342D02*
X46094285Y-140339580D01*
X46094285Y-140339580D02*
X46046666Y-140387200D01*
X46046666Y-140387200D02*
X45951428Y-140434819D01*
X45951428Y-140434819D02*
X45665714Y-140434819D01*
X45665714Y-140434819D02*
X45570476Y-140387200D01*
X45570476Y-140387200D02*
X45522857Y-140339580D01*
X119837142Y-157859580D02*
X119789523Y-157907200D01*
X119789523Y-157907200D02*
X119646666Y-157954819D01*
X119646666Y-157954819D02*
X119551428Y-157954819D01*
X119551428Y-157954819D02*
X119408571Y-157907200D01*
X119408571Y-157907200D02*
X119313333Y-157811961D01*
X119313333Y-157811961D02*
X119265714Y-157716723D01*
X119265714Y-157716723D02*
X119218095Y-157526247D01*
X119218095Y-157526247D02*
X119218095Y-157383390D01*
X119218095Y-157383390D02*
X119265714Y-157192914D01*
X119265714Y-157192914D02*
X119313333Y-157097676D01*
X119313333Y-157097676D02*
X119408571Y-157002438D01*
X119408571Y-157002438D02*
X119551428Y-156954819D01*
X119551428Y-156954819D02*
X119646666Y-156954819D01*
X119646666Y-156954819D02*
X119789523Y-157002438D01*
X119789523Y-157002438D02*
X119837142Y-157050057D01*
X120170476Y-156954819D02*
X120789523Y-156954819D01*
X120789523Y-156954819D02*
X120456190Y-157335771D01*
X120456190Y-157335771D02*
X120599047Y-157335771D01*
X120599047Y-157335771D02*
X120694285Y-157383390D01*
X120694285Y-157383390D02*
X120741904Y-157431009D01*
X120741904Y-157431009D02*
X120789523Y-157526247D01*
X120789523Y-157526247D02*
X120789523Y-157764342D01*
X120789523Y-157764342D02*
X120741904Y-157859580D01*
X120741904Y-157859580D02*
X120694285Y-157907200D01*
X120694285Y-157907200D02*
X120599047Y-157954819D01*
X120599047Y-157954819D02*
X120313333Y-157954819D01*
X120313333Y-157954819D02*
X120218095Y-157907200D01*
X120218095Y-157907200D02*
X120170476Y-157859580D01*
X121646666Y-156954819D02*
X121456190Y-156954819D01*
X121456190Y-156954819D02*
X121360952Y-157002438D01*
X121360952Y-157002438D02*
X121313333Y-157050057D01*
X121313333Y-157050057D02*
X121218095Y-157192914D01*
X121218095Y-157192914D02*
X121170476Y-157383390D01*
X121170476Y-157383390D02*
X121170476Y-157764342D01*
X121170476Y-157764342D02*
X121218095Y-157859580D01*
X121218095Y-157859580D02*
X121265714Y-157907200D01*
X121265714Y-157907200D02*
X121360952Y-157954819D01*
X121360952Y-157954819D02*
X121551428Y-157954819D01*
X121551428Y-157954819D02*
X121646666Y-157907200D01*
X121646666Y-157907200D02*
X121694285Y-157859580D01*
X121694285Y-157859580D02*
X121741904Y-157764342D01*
X121741904Y-157764342D02*
X121741904Y-157526247D01*
X121741904Y-157526247D02*
X121694285Y-157431009D01*
X121694285Y-157431009D02*
X121646666Y-157383390D01*
X121646666Y-157383390D02*
X121551428Y-157335771D01*
X121551428Y-157335771D02*
X121360952Y-157335771D01*
X121360952Y-157335771D02*
X121265714Y-157383390D01*
X121265714Y-157383390D02*
X121218095Y-157431009D01*
X121218095Y-157431009D02*
X121170476Y-157526247D01*
X111397142Y-124959580D02*
X111349523Y-125007200D01*
X111349523Y-125007200D02*
X111206666Y-125054819D01*
X111206666Y-125054819D02*
X111111428Y-125054819D01*
X111111428Y-125054819D02*
X110968571Y-125007200D01*
X110968571Y-125007200D02*
X110873333Y-124911961D01*
X110873333Y-124911961D02*
X110825714Y-124816723D01*
X110825714Y-124816723D02*
X110778095Y-124626247D01*
X110778095Y-124626247D02*
X110778095Y-124483390D01*
X110778095Y-124483390D02*
X110825714Y-124292914D01*
X110825714Y-124292914D02*
X110873333Y-124197676D01*
X110873333Y-124197676D02*
X110968571Y-124102438D01*
X110968571Y-124102438D02*
X111111428Y-124054819D01*
X111111428Y-124054819D02*
X111206666Y-124054819D01*
X111206666Y-124054819D02*
X111349523Y-124102438D01*
X111349523Y-124102438D02*
X111397142Y-124150057D01*
X112254285Y-124388152D02*
X112254285Y-125054819D01*
X112016190Y-124007200D02*
X111778095Y-124721485D01*
X111778095Y-124721485D02*
X112397142Y-124721485D01*
X113206666Y-124388152D02*
X113206666Y-125054819D01*
X112968571Y-124007200D02*
X112730476Y-124721485D01*
X112730476Y-124721485D02*
X113349523Y-124721485D01*
X119837142Y-151489580D02*
X119789523Y-151537200D01*
X119789523Y-151537200D02*
X119646666Y-151584819D01*
X119646666Y-151584819D02*
X119551428Y-151584819D01*
X119551428Y-151584819D02*
X119408571Y-151537200D01*
X119408571Y-151537200D02*
X119313333Y-151441961D01*
X119313333Y-151441961D02*
X119265714Y-151346723D01*
X119265714Y-151346723D02*
X119218095Y-151156247D01*
X119218095Y-151156247D02*
X119218095Y-151013390D01*
X119218095Y-151013390D02*
X119265714Y-150822914D01*
X119265714Y-150822914D02*
X119313333Y-150727676D01*
X119313333Y-150727676D02*
X119408571Y-150632438D01*
X119408571Y-150632438D02*
X119551428Y-150584819D01*
X119551428Y-150584819D02*
X119646666Y-150584819D01*
X119646666Y-150584819D02*
X119789523Y-150632438D01*
X119789523Y-150632438D02*
X119837142Y-150680057D01*
X120170476Y-150584819D02*
X120789523Y-150584819D01*
X120789523Y-150584819D02*
X120456190Y-150965771D01*
X120456190Y-150965771D02*
X120599047Y-150965771D01*
X120599047Y-150965771D02*
X120694285Y-151013390D01*
X120694285Y-151013390D02*
X120741904Y-151061009D01*
X120741904Y-151061009D02*
X120789523Y-151156247D01*
X120789523Y-151156247D02*
X120789523Y-151394342D01*
X120789523Y-151394342D02*
X120741904Y-151489580D01*
X120741904Y-151489580D02*
X120694285Y-151537200D01*
X120694285Y-151537200D02*
X120599047Y-151584819D01*
X120599047Y-151584819D02*
X120313333Y-151584819D01*
X120313333Y-151584819D02*
X120218095Y-151537200D01*
X120218095Y-151537200D02*
X120170476Y-151489580D01*
X121694285Y-150584819D02*
X121218095Y-150584819D01*
X121218095Y-150584819D02*
X121170476Y-151061009D01*
X121170476Y-151061009D02*
X121218095Y-151013390D01*
X121218095Y-151013390D02*
X121313333Y-150965771D01*
X121313333Y-150965771D02*
X121551428Y-150965771D01*
X121551428Y-150965771D02*
X121646666Y-151013390D01*
X121646666Y-151013390D02*
X121694285Y-151061009D01*
X121694285Y-151061009D02*
X121741904Y-151156247D01*
X121741904Y-151156247D02*
X121741904Y-151394342D01*
X121741904Y-151394342D02*
X121694285Y-151489580D01*
X121694285Y-151489580D02*
X121646666Y-151537200D01*
X121646666Y-151537200D02*
X121551428Y-151584819D01*
X121551428Y-151584819D02*
X121313333Y-151584819D01*
X121313333Y-151584819D02*
X121218095Y-151537200D01*
X121218095Y-151537200D02*
X121170476Y-151489580D01*
X111977142Y-153234819D02*
X111643809Y-152758628D01*
X111405714Y-153234819D02*
X111405714Y-152234819D01*
X111405714Y-152234819D02*
X111786666Y-152234819D01*
X111786666Y-152234819D02*
X111881904Y-152282438D01*
X111881904Y-152282438D02*
X111929523Y-152330057D01*
X111929523Y-152330057D02*
X111977142Y-152425295D01*
X111977142Y-152425295D02*
X111977142Y-152568152D01*
X111977142Y-152568152D02*
X111929523Y-152663390D01*
X111929523Y-152663390D02*
X111881904Y-152711009D01*
X111881904Y-152711009D02*
X111786666Y-152758628D01*
X111786666Y-152758628D02*
X111405714Y-152758628D01*
X112929523Y-153234819D02*
X112358095Y-153234819D01*
X112643809Y-153234819D02*
X112643809Y-152234819D01*
X112643809Y-152234819D02*
X112548571Y-152377676D01*
X112548571Y-152377676D02*
X112453333Y-152472914D01*
X112453333Y-152472914D02*
X112358095Y-152520533D01*
X113786666Y-152234819D02*
X113596190Y-152234819D01*
X113596190Y-152234819D02*
X113500952Y-152282438D01*
X113500952Y-152282438D02*
X113453333Y-152330057D01*
X113453333Y-152330057D02*
X113358095Y-152472914D01*
X113358095Y-152472914D02*
X113310476Y-152663390D01*
X113310476Y-152663390D02*
X113310476Y-153044342D01*
X113310476Y-153044342D02*
X113358095Y-153139580D01*
X113358095Y-153139580D02*
X113405714Y-153187200D01*
X113405714Y-153187200D02*
X113500952Y-153234819D01*
X113500952Y-153234819D02*
X113691428Y-153234819D01*
X113691428Y-153234819D02*
X113786666Y-153187200D01*
X113786666Y-153187200D02*
X113834285Y-153139580D01*
X113834285Y-153139580D02*
X113881904Y-153044342D01*
X113881904Y-153044342D02*
X113881904Y-152806247D01*
X113881904Y-152806247D02*
X113834285Y-152711009D01*
X113834285Y-152711009D02*
X113786666Y-152663390D01*
X113786666Y-152663390D02*
X113691428Y-152615771D01*
X113691428Y-152615771D02*
X113500952Y-152615771D01*
X113500952Y-152615771D02*
X113405714Y-152663390D01*
X113405714Y-152663390D02*
X113358095Y-152711009D01*
X113358095Y-152711009D02*
X113310476Y-152806247D01*
X38512142Y-115699580D02*
X38464523Y-115747200D01*
X38464523Y-115747200D02*
X38321666Y-115794819D01*
X38321666Y-115794819D02*
X38226428Y-115794819D01*
X38226428Y-115794819D02*
X38083571Y-115747200D01*
X38083571Y-115747200D02*
X37988333Y-115651961D01*
X37988333Y-115651961D02*
X37940714Y-115556723D01*
X37940714Y-115556723D02*
X37893095Y-115366247D01*
X37893095Y-115366247D02*
X37893095Y-115223390D01*
X37893095Y-115223390D02*
X37940714Y-115032914D01*
X37940714Y-115032914D02*
X37988333Y-114937676D01*
X37988333Y-114937676D02*
X38083571Y-114842438D01*
X38083571Y-114842438D02*
X38226428Y-114794819D01*
X38226428Y-114794819D02*
X38321666Y-114794819D01*
X38321666Y-114794819D02*
X38464523Y-114842438D01*
X38464523Y-114842438D02*
X38512142Y-114890057D01*
X39464523Y-115794819D02*
X38893095Y-115794819D01*
X39178809Y-115794819D02*
X39178809Y-114794819D01*
X39178809Y-114794819D02*
X39083571Y-114937676D01*
X39083571Y-114937676D02*
X38988333Y-115032914D01*
X38988333Y-115032914D02*
X38893095Y-115080533D01*
X40083571Y-114794819D02*
X40178809Y-114794819D01*
X40178809Y-114794819D02*
X40274047Y-114842438D01*
X40274047Y-114842438D02*
X40321666Y-114890057D01*
X40321666Y-114890057D02*
X40369285Y-114985295D01*
X40369285Y-114985295D02*
X40416904Y-115175771D01*
X40416904Y-115175771D02*
X40416904Y-115413866D01*
X40416904Y-115413866D02*
X40369285Y-115604342D01*
X40369285Y-115604342D02*
X40321666Y-115699580D01*
X40321666Y-115699580D02*
X40274047Y-115747200D01*
X40274047Y-115747200D02*
X40178809Y-115794819D01*
X40178809Y-115794819D02*
X40083571Y-115794819D01*
X40083571Y-115794819D02*
X39988333Y-115747200D01*
X39988333Y-115747200D02*
X39940714Y-115699580D01*
X39940714Y-115699580D02*
X39893095Y-115604342D01*
X39893095Y-115604342D02*
X39845476Y-115413866D01*
X39845476Y-115413866D02*
X39845476Y-115175771D01*
X39845476Y-115175771D02*
X39893095Y-114985295D01*
X39893095Y-114985295D02*
X39940714Y-114890057D01*
X39940714Y-114890057D02*
X39988333Y-114842438D01*
X39988333Y-114842438D02*
X40083571Y-114794819D01*
X44187142Y-145269580D02*
X44139523Y-145317200D01*
X44139523Y-145317200D02*
X43996666Y-145364819D01*
X43996666Y-145364819D02*
X43901428Y-145364819D01*
X43901428Y-145364819D02*
X43758571Y-145317200D01*
X43758571Y-145317200D02*
X43663333Y-145221961D01*
X43663333Y-145221961D02*
X43615714Y-145126723D01*
X43615714Y-145126723D02*
X43568095Y-144936247D01*
X43568095Y-144936247D02*
X43568095Y-144793390D01*
X43568095Y-144793390D02*
X43615714Y-144602914D01*
X43615714Y-144602914D02*
X43663333Y-144507676D01*
X43663333Y-144507676D02*
X43758571Y-144412438D01*
X43758571Y-144412438D02*
X43901428Y-144364819D01*
X43901428Y-144364819D02*
X43996666Y-144364819D01*
X43996666Y-144364819D02*
X44139523Y-144412438D01*
X44139523Y-144412438D02*
X44187142Y-144460057D01*
X45139523Y-145364819D02*
X44568095Y-145364819D01*
X44853809Y-145364819D02*
X44853809Y-144364819D01*
X44853809Y-144364819D02*
X44758571Y-144507676D01*
X44758571Y-144507676D02*
X44663333Y-144602914D01*
X44663333Y-144602914D02*
X44568095Y-144650533D01*
X46044285Y-144364819D02*
X45568095Y-144364819D01*
X45568095Y-144364819D02*
X45520476Y-144841009D01*
X45520476Y-144841009D02*
X45568095Y-144793390D01*
X45568095Y-144793390D02*
X45663333Y-144745771D01*
X45663333Y-144745771D02*
X45901428Y-144745771D01*
X45901428Y-144745771D02*
X45996666Y-144793390D01*
X45996666Y-144793390D02*
X46044285Y-144841009D01*
X46044285Y-144841009D02*
X46091904Y-144936247D01*
X46091904Y-144936247D02*
X46091904Y-145174342D01*
X46091904Y-145174342D02*
X46044285Y-145269580D01*
X46044285Y-145269580D02*
X45996666Y-145317200D01*
X45996666Y-145317200D02*
X45901428Y-145364819D01*
X45901428Y-145364819D02*
X45663333Y-145364819D01*
X45663333Y-145364819D02*
X45568095Y-145317200D01*
X45568095Y-145317200D02*
X45520476Y-145269580D01*
X149125952Y-136084819D02*
X148649762Y-136084819D01*
X148649762Y-136084819D02*
X148649762Y-135084819D01*
X149459286Y-135561009D02*
X149792619Y-135561009D01*
X149935476Y-136084819D02*
X149459286Y-136084819D01*
X149459286Y-136084819D02*
X149459286Y-135084819D01*
X149459286Y-135084819D02*
X149935476Y-135084819D01*
X150364048Y-136084819D02*
X150364048Y-135084819D01*
X150364048Y-135084819D02*
X150602143Y-135084819D01*
X150602143Y-135084819D02*
X150745000Y-135132438D01*
X150745000Y-135132438D02*
X150840238Y-135227676D01*
X150840238Y-135227676D02*
X150887857Y-135322914D01*
X150887857Y-135322914D02*
X150935476Y-135513390D01*
X150935476Y-135513390D02*
X150935476Y-135656247D01*
X150935476Y-135656247D02*
X150887857Y-135846723D01*
X150887857Y-135846723D02*
X150840238Y-135941961D01*
X150840238Y-135941961D02*
X150745000Y-136037200D01*
X150745000Y-136037200D02*
X150602143Y-136084819D01*
X150602143Y-136084819D02*
X150364048Y-136084819D01*
X151887857Y-136084819D02*
X151316429Y-136084819D01*
X151602143Y-136084819D02*
X151602143Y-135084819D01*
X151602143Y-135084819D02*
X151506905Y-135227676D01*
X151506905Y-135227676D02*
X151411667Y-135322914D01*
X151411667Y-135322914D02*
X151316429Y-135370533D01*
X114219580Y-110542857D02*
X114267200Y-110590476D01*
X114267200Y-110590476D02*
X114314819Y-110733333D01*
X114314819Y-110733333D02*
X114314819Y-110828571D01*
X114314819Y-110828571D02*
X114267200Y-110971428D01*
X114267200Y-110971428D02*
X114171961Y-111066666D01*
X114171961Y-111066666D02*
X114076723Y-111114285D01*
X114076723Y-111114285D02*
X113886247Y-111161904D01*
X113886247Y-111161904D02*
X113743390Y-111161904D01*
X113743390Y-111161904D02*
X113552914Y-111114285D01*
X113552914Y-111114285D02*
X113457676Y-111066666D01*
X113457676Y-111066666D02*
X113362438Y-110971428D01*
X113362438Y-110971428D02*
X113314819Y-110828571D01*
X113314819Y-110828571D02*
X113314819Y-110733333D01*
X113314819Y-110733333D02*
X113362438Y-110590476D01*
X113362438Y-110590476D02*
X113410057Y-110542857D01*
X113314819Y-110209523D02*
X113314819Y-109590476D01*
X113314819Y-109590476D02*
X113695771Y-109923809D01*
X113695771Y-109923809D02*
X113695771Y-109780952D01*
X113695771Y-109780952D02*
X113743390Y-109685714D01*
X113743390Y-109685714D02*
X113791009Y-109638095D01*
X113791009Y-109638095D02*
X113886247Y-109590476D01*
X113886247Y-109590476D02*
X114124342Y-109590476D01*
X114124342Y-109590476D02*
X114219580Y-109638095D01*
X114219580Y-109638095D02*
X114267200Y-109685714D01*
X114267200Y-109685714D02*
X114314819Y-109780952D01*
X114314819Y-109780952D02*
X114314819Y-110066666D01*
X114314819Y-110066666D02*
X114267200Y-110161904D01*
X114267200Y-110161904D02*
X114219580Y-110209523D01*
X113314819Y-108971428D02*
X113314819Y-108876190D01*
X113314819Y-108876190D02*
X113362438Y-108780952D01*
X113362438Y-108780952D02*
X113410057Y-108733333D01*
X113410057Y-108733333D02*
X113505295Y-108685714D01*
X113505295Y-108685714D02*
X113695771Y-108638095D01*
X113695771Y-108638095D02*
X113933866Y-108638095D01*
X113933866Y-108638095D02*
X114124342Y-108685714D01*
X114124342Y-108685714D02*
X114219580Y-108733333D01*
X114219580Y-108733333D02*
X114267200Y-108780952D01*
X114267200Y-108780952D02*
X114314819Y-108876190D01*
X114314819Y-108876190D02*
X114314819Y-108971428D01*
X114314819Y-108971428D02*
X114267200Y-109066666D01*
X114267200Y-109066666D02*
X114219580Y-109114285D01*
X114219580Y-109114285D02*
X114124342Y-109161904D01*
X114124342Y-109161904D02*
X113933866Y-109209523D01*
X113933866Y-109209523D02*
X113695771Y-109209523D01*
X113695771Y-109209523D02*
X113505295Y-109161904D01*
X113505295Y-109161904D02*
X113410057Y-109114285D01*
X113410057Y-109114285D02*
X113362438Y-109066666D01*
X113362438Y-109066666D02*
X113314819Y-108971428D01*
X70853333Y-152664819D02*
X70520000Y-152188628D01*
X70281905Y-152664819D02*
X70281905Y-151664819D01*
X70281905Y-151664819D02*
X70662857Y-151664819D01*
X70662857Y-151664819D02*
X70758095Y-151712438D01*
X70758095Y-151712438D02*
X70805714Y-151760057D01*
X70805714Y-151760057D02*
X70853333Y-151855295D01*
X70853333Y-151855295D02*
X70853333Y-151998152D01*
X70853333Y-151998152D02*
X70805714Y-152093390D01*
X70805714Y-152093390D02*
X70758095Y-152141009D01*
X70758095Y-152141009D02*
X70662857Y-152188628D01*
X70662857Y-152188628D02*
X70281905Y-152188628D01*
X71186667Y-151664819D02*
X71853333Y-151664819D01*
X71853333Y-151664819D02*
X71424762Y-152664819D01*
X133167142Y-139559580D02*
X133119523Y-139607200D01*
X133119523Y-139607200D02*
X132976666Y-139654819D01*
X132976666Y-139654819D02*
X132881428Y-139654819D01*
X132881428Y-139654819D02*
X132738571Y-139607200D01*
X132738571Y-139607200D02*
X132643333Y-139511961D01*
X132643333Y-139511961D02*
X132595714Y-139416723D01*
X132595714Y-139416723D02*
X132548095Y-139226247D01*
X132548095Y-139226247D02*
X132548095Y-139083390D01*
X132548095Y-139083390D02*
X132595714Y-138892914D01*
X132595714Y-138892914D02*
X132643333Y-138797676D01*
X132643333Y-138797676D02*
X132738571Y-138702438D01*
X132738571Y-138702438D02*
X132881428Y-138654819D01*
X132881428Y-138654819D02*
X132976666Y-138654819D01*
X132976666Y-138654819D02*
X133119523Y-138702438D01*
X133119523Y-138702438D02*
X133167142Y-138750057D01*
X133548095Y-138750057D02*
X133595714Y-138702438D01*
X133595714Y-138702438D02*
X133690952Y-138654819D01*
X133690952Y-138654819D02*
X133929047Y-138654819D01*
X133929047Y-138654819D02*
X134024285Y-138702438D01*
X134024285Y-138702438D02*
X134071904Y-138750057D01*
X134071904Y-138750057D02*
X134119523Y-138845295D01*
X134119523Y-138845295D02*
X134119523Y-138940533D01*
X134119523Y-138940533D02*
X134071904Y-139083390D01*
X134071904Y-139083390D02*
X133500476Y-139654819D01*
X133500476Y-139654819D02*
X134119523Y-139654819D01*
X134452857Y-138654819D02*
X135071904Y-138654819D01*
X135071904Y-138654819D02*
X134738571Y-139035771D01*
X134738571Y-139035771D02*
X134881428Y-139035771D01*
X134881428Y-139035771D02*
X134976666Y-139083390D01*
X134976666Y-139083390D02*
X135024285Y-139131009D01*
X135024285Y-139131009D02*
X135071904Y-139226247D01*
X135071904Y-139226247D02*
X135071904Y-139464342D01*
X135071904Y-139464342D02*
X135024285Y-139559580D01*
X135024285Y-139559580D02*
X134976666Y-139607200D01*
X134976666Y-139607200D02*
X134881428Y-139654819D01*
X134881428Y-139654819D02*
X134595714Y-139654819D01*
X134595714Y-139654819D02*
X134500476Y-139607200D01*
X134500476Y-139607200D02*
X134452857Y-139559580D01*
X95283333Y-143819580D02*
X95235714Y-143867200D01*
X95235714Y-143867200D02*
X95092857Y-143914819D01*
X95092857Y-143914819D02*
X94997619Y-143914819D01*
X94997619Y-143914819D02*
X94854762Y-143867200D01*
X94854762Y-143867200D02*
X94759524Y-143771961D01*
X94759524Y-143771961D02*
X94711905Y-143676723D01*
X94711905Y-143676723D02*
X94664286Y-143486247D01*
X94664286Y-143486247D02*
X94664286Y-143343390D01*
X94664286Y-143343390D02*
X94711905Y-143152914D01*
X94711905Y-143152914D02*
X94759524Y-143057676D01*
X94759524Y-143057676D02*
X94854762Y-142962438D01*
X94854762Y-142962438D02*
X94997619Y-142914819D01*
X94997619Y-142914819D02*
X95092857Y-142914819D01*
X95092857Y-142914819D02*
X95235714Y-142962438D01*
X95235714Y-142962438D02*
X95283333Y-143010057D01*
X96140476Y-142914819D02*
X95950000Y-142914819D01*
X95950000Y-142914819D02*
X95854762Y-142962438D01*
X95854762Y-142962438D02*
X95807143Y-143010057D01*
X95807143Y-143010057D02*
X95711905Y-143152914D01*
X95711905Y-143152914D02*
X95664286Y-143343390D01*
X95664286Y-143343390D02*
X95664286Y-143724342D01*
X95664286Y-143724342D02*
X95711905Y-143819580D01*
X95711905Y-143819580D02*
X95759524Y-143867200D01*
X95759524Y-143867200D02*
X95854762Y-143914819D01*
X95854762Y-143914819D02*
X96045238Y-143914819D01*
X96045238Y-143914819D02*
X96140476Y-143867200D01*
X96140476Y-143867200D02*
X96188095Y-143819580D01*
X96188095Y-143819580D02*
X96235714Y-143724342D01*
X96235714Y-143724342D02*
X96235714Y-143486247D01*
X96235714Y-143486247D02*
X96188095Y-143391009D01*
X96188095Y-143391009D02*
X96140476Y-143343390D01*
X96140476Y-143343390D02*
X96045238Y-143295771D01*
X96045238Y-143295771D02*
X95854762Y-143295771D01*
X95854762Y-143295771D02*
X95759524Y-143343390D01*
X95759524Y-143343390D02*
X95711905Y-143391009D01*
X95711905Y-143391009D02*
X95664286Y-143486247D01*
X124497142Y-138669580D02*
X124449523Y-138717200D01*
X124449523Y-138717200D02*
X124306666Y-138764819D01*
X124306666Y-138764819D02*
X124211428Y-138764819D01*
X124211428Y-138764819D02*
X124068571Y-138717200D01*
X124068571Y-138717200D02*
X123973333Y-138621961D01*
X123973333Y-138621961D02*
X123925714Y-138526723D01*
X123925714Y-138526723D02*
X123878095Y-138336247D01*
X123878095Y-138336247D02*
X123878095Y-138193390D01*
X123878095Y-138193390D02*
X123925714Y-138002914D01*
X123925714Y-138002914D02*
X123973333Y-137907676D01*
X123973333Y-137907676D02*
X124068571Y-137812438D01*
X124068571Y-137812438D02*
X124211428Y-137764819D01*
X124211428Y-137764819D02*
X124306666Y-137764819D01*
X124306666Y-137764819D02*
X124449523Y-137812438D01*
X124449523Y-137812438D02*
X124497142Y-137860057D01*
X124878095Y-137860057D02*
X124925714Y-137812438D01*
X124925714Y-137812438D02*
X125020952Y-137764819D01*
X125020952Y-137764819D02*
X125259047Y-137764819D01*
X125259047Y-137764819D02*
X125354285Y-137812438D01*
X125354285Y-137812438D02*
X125401904Y-137860057D01*
X125401904Y-137860057D02*
X125449523Y-137955295D01*
X125449523Y-137955295D02*
X125449523Y-138050533D01*
X125449523Y-138050533D02*
X125401904Y-138193390D01*
X125401904Y-138193390D02*
X124830476Y-138764819D01*
X124830476Y-138764819D02*
X125449523Y-138764819D01*
X125830476Y-137860057D02*
X125878095Y-137812438D01*
X125878095Y-137812438D02*
X125973333Y-137764819D01*
X125973333Y-137764819D02*
X126211428Y-137764819D01*
X126211428Y-137764819D02*
X126306666Y-137812438D01*
X126306666Y-137812438D02*
X126354285Y-137860057D01*
X126354285Y-137860057D02*
X126401904Y-137955295D01*
X126401904Y-137955295D02*
X126401904Y-138050533D01*
X126401904Y-138050533D02*
X126354285Y-138193390D01*
X126354285Y-138193390D02*
X125782857Y-138764819D01*
X125782857Y-138764819D02*
X126401904Y-138764819D01*
X102691905Y-121764819D02*
X102691905Y-120764819D01*
X102691905Y-120764819D02*
X102930000Y-120764819D01*
X102930000Y-120764819D02*
X103072857Y-120812438D01*
X103072857Y-120812438D02*
X103168095Y-120907676D01*
X103168095Y-120907676D02*
X103215714Y-121002914D01*
X103215714Y-121002914D02*
X103263333Y-121193390D01*
X103263333Y-121193390D02*
X103263333Y-121336247D01*
X103263333Y-121336247D02*
X103215714Y-121526723D01*
X103215714Y-121526723D02*
X103168095Y-121621961D01*
X103168095Y-121621961D02*
X103072857Y-121717200D01*
X103072857Y-121717200D02*
X102930000Y-121764819D01*
X102930000Y-121764819D02*
X102691905Y-121764819D01*
X104215714Y-121764819D02*
X103644286Y-121764819D01*
X103930000Y-121764819D02*
X103930000Y-120764819D01*
X103930000Y-120764819D02*
X103834762Y-120907676D01*
X103834762Y-120907676D02*
X103739524Y-121002914D01*
X103739524Y-121002914D02*
X103644286Y-121050533D01*
X86944819Y-116279404D02*
X87754342Y-116279404D01*
X87754342Y-116279404D02*
X87849580Y-116231785D01*
X87849580Y-116231785D02*
X87897200Y-116184166D01*
X87897200Y-116184166D02*
X87944819Y-116088928D01*
X87944819Y-116088928D02*
X87944819Y-115898452D01*
X87944819Y-115898452D02*
X87897200Y-115803214D01*
X87897200Y-115803214D02*
X87849580Y-115755595D01*
X87849580Y-115755595D02*
X87754342Y-115707976D01*
X87754342Y-115707976D02*
X86944819Y-115707976D01*
X87040057Y-115279404D02*
X86992438Y-115231785D01*
X86992438Y-115231785D02*
X86944819Y-115136547D01*
X86944819Y-115136547D02*
X86944819Y-114898452D01*
X86944819Y-114898452D02*
X86992438Y-114803214D01*
X86992438Y-114803214D02*
X87040057Y-114755595D01*
X87040057Y-114755595D02*
X87135295Y-114707976D01*
X87135295Y-114707976D02*
X87230533Y-114707976D01*
X87230533Y-114707976D02*
X87373390Y-114755595D01*
X87373390Y-114755595D02*
X87944819Y-115327023D01*
X87944819Y-115327023D02*
X87944819Y-114707976D01*
D11*
%TO.C,R2*%
X90117500Y-149672742D02*
X90117500Y-150147258D01*
X91162500Y-149672742D02*
X91162500Y-150147258D01*
%TO.C,C25*%
X129505000Y-133221252D02*
X129505000Y-132698748D01*
X130975000Y-133221252D02*
X130975000Y-132698748D01*
D12*
%TO.C,Card1*%
X130040000Y-149907231D02*
X130040000Y-159457231D01*
X131560000Y-151157231D02*
X135330000Y-151157231D01*
X131560000Y-156227231D02*
X131560000Y-151157231D01*
X132710000Y-152797231D02*
X132710000Y-153057231D01*
X132710000Y-153057231D02*
X132980000Y-153057231D01*
X132980000Y-153057231D02*
X133240000Y-152797231D01*
X133240000Y-152797231D02*
X133240000Y-155007231D01*
X133240000Y-155007231D02*
X133500000Y-155007231D01*
X133360000Y-152147231D02*
X132710000Y-152797231D01*
X133500000Y-152797231D02*
X133760000Y-153057231D01*
X133500000Y-155007231D02*
X133500000Y-152797231D01*
X133760000Y-153057231D02*
X134020000Y-153057231D01*
X133940000Y-162527231D02*
X131020000Y-162527231D01*
X134020000Y-152797231D02*
X133360000Y-152147231D01*
X134020000Y-153057231D02*
X134020000Y-152797231D01*
X134160000Y-156227231D02*
X131560000Y-156227231D01*
X135330000Y-151157231D02*
X135330000Y-155057231D01*
X135330000Y-155057231D02*
X134160000Y-156227231D01*
X140450000Y-145377231D02*
X140450000Y-146867231D01*
X140450000Y-146867231D02*
X138150000Y-146867231D01*
X141870000Y-162527231D02*
X144780000Y-162527231D01*
X145770000Y-145377231D02*
X140450000Y-145377231D01*
X145770000Y-146827231D02*
X145770000Y-145377231D01*
X145770000Y-149897231D02*
X145770000Y-159447231D01*
X145770000Y-150257231D02*
X145770000Y-149897231D01*
X133949066Y-162527770D02*
G75*
G02*
X141870000Y-162527231I3960934J-6859461D01*
G01*
D13*
X132490000Y-144407231D02*
G75*
G02*
X132090000Y-144407231I-200000J0D01*
G01*
X132090000Y-144407231D02*
G75*
G02*
X132490000Y-144407231I200000J0D01*
G01*
D12*
X133770000Y-158277231D02*
G75*
G02*
X132210000Y-158277231I-780000J0D01*
G01*
X132210000Y-158277231D02*
G75*
G02*
X133770000Y-158277231I780000J0D01*
G01*
X133860000Y-149097231D02*
G75*
G02*
X132300000Y-149097231I-780000J0D01*
G01*
X132300000Y-149097231D02*
G75*
G02*
X133860000Y-149097231I780000J0D01*
G01*
X137130000Y-158277231D02*
G75*
G02*
X135570000Y-158277231I-780000J0D01*
G01*
X135570000Y-158277231D02*
G75*
G02*
X137130000Y-158277231I780000J0D01*
G01*
X137220000Y-149087231D02*
G75*
G02*
X135660000Y-149087231I-780000J0D01*
G01*
X135660000Y-149087231D02*
G75*
G02*
X137220000Y-149087231I780000J0D01*
G01*
X140250000Y-158277231D02*
G75*
G02*
X138690000Y-158277231I-780000J0D01*
G01*
X138690000Y-158277231D02*
G75*
G02*
X140250000Y-158277231I780000J0D01*
G01*
X140340000Y-149097231D02*
G75*
G02*
X138780000Y-149097231I-780000J0D01*
G01*
X138780000Y-149097231D02*
G75*
G02*
X140340000Y-149097231I780000J0D01*
G01*
X143600000Y-158277231D02*
G75*
G02*
X142040000Y-158277231I-780000J0D01*
G01*
X142040000Y-158277231D02*
G75*
G02*
X143600000Y-158277231I780000J0D01*
G01*
X143700000Y-149087231D02*
G75*
G02*
X142140000Y-149087231I-780000J0D01*
G01*
X142140000Y-149087231D02*
G75*
G02*
X143700000Y-149087231I780000J0D01*
G01*
D11*
%TO.C,R4*%
X54877258Y-139117500D02*
X54402742Y-139117500D01*
X54877258Y-140162500D02*
X54402742Y-140162500D01*
%TO.C,C3*%
X52455000Y-124628748D02*
X52455000Y-125151252D01*
X53925000Y-124628748D02*
X53925000Y-125151252D01*
D12*
%TO.C,Q2*%
X124480000Y-118835000D02*
X124480000Y-119465000D01*
X125880000Y-117645000D02*
X124880000Y-117645000D01*
X125880000Y-117645000D02*
X125880000Y-118515000D01*
X125880000Y-119785000D02*
X125880000Y-120645000D01*
X125880000Y-120645000D02*
X124880000Y-120645000D01*
D11*
%TO.C,U1*%
X46050000Y-128302500D02*
X46050000Y-129562500D01*
X46050000Y-135122500D02*
X46050000Y-133862500D01*
X49810000Y-128302500D02*
X46050000Y-128302500D01*
X49810000Y-135122500D02*
X46050000Y-135122500D01*
X51330000Y-135352500D02*
X50850000Y-135352500D01*
X51090000Y-135022500D01*
X51330000Y-135352500D01*
G36*
X51330000Y-135352500D02*
G01*
X50850000Y-135352500D01*
X51090000Y-135022500D01*
X51330000Y-135352500D01*
G37*
%TO.C,C1*%
X54795000Y-123698748D02*
X54795000Y-124221252D01*
X56265000Y-123698748D02*
X56265000Y-124221252D01*
%TO.C,C19*%
X51785000Y-107558748D02*
X51785000Y-108081252D01*
X53255000Y-107558748D02*
X53255000Y-108081252D01*
D10*
%TO.C,L3*%
X111955000Y-139330000D02*
X111955000Y-139500000D01*
X111955000Y-145690000D02*
X111955000Y-145520000D01*
X118315000Y-139330000D02*
X111955000Y-139330000D01*
X118315000Y-139500000D02*
X118315000Y-139330000D01*
X118315000Y-145520000D02*
X118315000Y-145690000D01*
X118315000Y-145690000D02*
X111955000Y-145690000D01*
D11*
%TO.C,C18*%
X58955000Y-107468748D02*
X58955000Y-107991252D01*
X60425000Y-107468748D02*
X60425000Y-107991252D01*
%TO.C,R1*%
X58127500Y-112662742D02*
X58127500Y-113137258D01*
X59172500Y-112662742D02*
X59172500Y-113137258D01*
%TO.C,R11*%
X131787500Y-131817258D02*
X131787500Y-131342742D01*
X132832500Y-131817258D02*
X132832500Y-131342742D01*
%TO.C,C41*%
X117641252Y-128365000D02*
X117118748Y-128365000D01*
X117641252Y-129835000D02*
X117118748Y-129835000D01*
%TO.C,R8*%
X70922258Y-143457500D02*
X70447742Y-143457500D01*
X70922258Y-144502500D02*
X70447742Y-144502500D01*
%TO.C,C27*%
X124730000Y-106070000D02*
X124730000Y-108420000D01*
X124730000Y-112890000D02*
X124730000Y-110540000D01*
X130485563Y-106070000D02*
X124730000Y-106070000D01*
X130485563Y-112890000D02*
X124730000Y-112890000D01*
X131550000Y-107134437D02*
X130485563Y-106070000D01*
X131550000Y-107134437D02*
X131550000Y-108420000D01*
X131550000Y-111825563D02*
X130485563Y-112890000D01*
X131550000Y-111825563D02*
X131550000Y-110540000D01*
X132183750Y-111721250D02*
X132183750Y-110933750D01*
X132577500Y-111327500D02*
X131790000Y-111327500D01*
%TO.C,C12*%
X52635000Y-119061252D02*
X52635000Y-118538748D01*
X54105000Y-119061252D02*
X54105000Y-118538748D01*
%TO.C,R19*%
X104417258Y-152177500D02*
X103942742Y-152177500D01*
X104417258Y-153222500D02*
X103942742Y-153222500D01*
D10*
%TO.C,Q3*%
X98420000Y-123480000D02*
X98420000Y-124940000D01*
X98420000Y-124940000D02*
X99460000Y-124940000D01*
X99490000Y-123480000D02*
X100410000Y-123480000D01*
X101480000Y-123480000D02*
X101480000Y-124940000D01*
X101480000Y-124940000D02*
X100440000Y-124940000D01*
D11*
%TO.C,C4*%
X52335000Y-113051252D02*
X52335000Y-112528748D01*
X53805000Y-113051252D02*
X53805000Y-112528748D01*
%TO.C,C9*%
X94918748Y-149495000D02*
X95441252Y-149495000D01*
X94918748Y-150965000D02*
X95441252Y-150965000D01*
D10*
%TO.C,U3*%
X136430000Y-115920000D02*
X139260000Y-115920000D01*
X136430000Y-117500000D02*
X136430000Y-115920000D01*
X136430000Y-133620000D02*
X136430000Y-132040000D01*
X139260000Y-133620000D02*
X136430000Y-133620000D01*
X149400000Y-115920000D02*
X152230000Y-115920000D01*
X152230000Y-115920000D02*
X152230000Y-117500000D01*
X152230000Y-133620000D02*
X149400000Y-133620000D01*
X152230000Y-133620000D02*
X152230000Y-132040000D01*
X134530000Y-118170000D02*
G75*
G02*
X134330000Y-118170000I-100000J0D01*
G01*
X134330000Y-118170000D02*
G75*
G02*
X134530000Y-118170000I100000J0D01*
G01*
D11*
%TO.C,R25*%
X104302258Y-153757500D02*
X103827742Y-153757500D01*
X104302258Y-154802500D02*
X103827742Y-154802500D01*
%TO.C,C17*%
X55375000Y-107468748D02*
X55375000Y-107991252D01*
X56845000Y-107468748D02*
X56845000Y-107991252D01*
%TO.C,C45*%
X49895000Y-116722500D02*
X49895000Y-120632500D01*
X51765000Y-116722500D02*
X49895000Y-116722500D01*
X51765000Y-120632500D02*
X51765000Y-116722500D01*
%TO.C,C28*%
X126345000Y-124416252D02*
X126345000Y-123893748D01*
X127815000Y-124416252D02*
X127815000Y-123893748D01*
%TO.C,C8*%
X83410000Y-141010000D02*
X83410000Y-143360000D01*
X83410000Y-147830000D02*
X83410000Y-145480000D01*
X89165563Y-141010000D02*
X83410000Y-141010000D01*
X89165563Y-147830000D02*
X83410000Y-147830000D01*
X90230000Y-142074437D02*
X89165563Y-141010000D01*
X90230000Y-142074437D02*
X90230000Y-143360000D01*
X90230000Y-146765563D02*
X89165563Y-147830000D01*
X90230000Y-146765563D02*
X90230000Y-145480000D01*
X90863750Y-146661250D02*
X90863750Y-145873750D01*
X91257500Y-146267500D02*
X90470000Y-146267500D01*
%TO.C,C2*%
X55505000Y-112841252D02*
X55505000Y-112318748D01*
X56975000Y-112841252D02*
X56975000Y-112318748D01*
%TO.C,C38*%
X111141252Y-111095000D02*
X110618748Y-111095000D01*
X111141252Y-112565000D02*
X110618748Y-112565000D01*
%TO.C,R22*%
X114352742Y-147607500D02*
X114827258Y-147607500D01*
X114352742Y-148652500D02*
X114827258Y-148652500D01*
%TO.C,C11*%
X54985000Y-119071252D02*
X54985000Y-118548748D01*
X56455000Y-119071252D02*
X56455000Y-118548748D01*
%TO.C,R5*%
X54357258Y-142577500D02*
X53882742Y-142577500D01*
X54357258Y-143622500D02*
X53882742Y-143622500D01*
%TO.C,R17*%
X112412742Y-155527500D02*
X112887258Y-155527500D01*
X112412742Y-156572500D02*
X112887258Y-156572500D01*
%TO.C,R10*%
X131957500Y-135187258D02*
X131957500Y-134712742D01*
X133002500Y-135187258D02*
X133002500Y-134712742D01*
%TO.C,R13*%
X103337258Y-107777500D02*
X102862742Y-107777500D01*
X103337258Y-108822500D02*
X102862742Y-108822500D01*
%TO.C,C42*%
X117641252Y-125355000D02*
X117118748Y-125355000D01*
X117641252Y-126825000D02*
X117118748Y-126825000D01*
%TO.C,C20*%
X151565000Y-110078748D02*
X151565000Y-110601252D01*
X153035000Y-110078748D02*
X153035000Y-110601252D01*
%TO.C,J1*%
X92320000Y-116570000D02*
X92320000Y-106350000D01*
X94980000Y-106350000D02*
X92320000Y-106350000D01*
X94980000Y-116570000D02*
X92320000Y-116570000D01*
X94980000Y-116570000D02*
X94980000Y-106350000D01*
X94980000Y-117840000D02*
X94980000Y-119170000D01*
X94980000Y-119170000D02*
X93650000Y-119170000D01*
%TO.C,R20*%
X104252742Y-148177500D02*
X104727258Y-148177500D01*
X104252742Y-149222500D02*
X104727258Y-149222500D01*
%TO.C,R9*%
X125997500Y-133562258D02*
X125997500Y-133087742D01*
X127042500Y-133562258D02*
X127042500Y-133087742D01*
%TO.C,C34*%
X108113748Y-148285000D02*
X108636252Y-148285000D01*
X108113748Y-149755000D02*
X108636252Y-149755000D01*
%TO.C,R21*%
X112537742Y-151997500D02*
X113012258Y-151997500D01*
X112537742Y-153042500D02*
X113012258Y-153042500D01*
D10*
%TO.C,LED2*%
X110480000Y-147770000D02*
X110480000Y-149170000D01*
X110480000Y-149170000D02*
X110900000Y-149170000D01*
X110980000Y-147770000D02*
X110480000Y-147770000D01*
X111830000Y-148740000D02*
X111830000Y-148200000D01*
D11*
%TO.C,R24*%
X106527500Y-158757258D02*
X106527500Y-158282742D01*
X107572500Y-158757258D02*
X107572500Y-158282742D01*
D12*
%TO.C,L1*%
X135290000Y-105230000D02*
X142280000Y-105230000D01*
X135290000Y-106450000D02*
X135290000Y-105230000D01*
X135290000Y-111830000D02*
X135290000Y-110620000D01*
X135310000Y-111830000D02*
X135290000Y-111810000D01*
X142280000Y-105230000D02*
X142290000Y-105230000D01*
X142290000Y-105230000D02*
X142290000Y-106450000D01*
X142290000Y-110620000D02*
X142290000Y-111830000D01*
X142290000Y-111830000D02*
X135310000Y-111830000D01*
%TO.C,U4*%
X96330000Y-114970000D02*
X96330000Y-117950000D01*
X101330000Y-114970000D02*
X96330000Y-114970000D01*
X101330000Y-115840000D02*
X101330000Y-114970000D01*
X101330000Y-117100000D02*
X101330000Y-117950000D01*
X101330000Y-117950000D02*
X96330000Y-117950000D01*
X101330000Y-117099999D02*
G75*
G02*
X101324818Y-115840928I109999J629999D01*
G01*
D14*
X100890000Y-115450000D02*
G75*
G02*
X100590000Y-115450000I-150000J0D01*
G01*
X100590000Y-115450000D02*
G75*
G02*
X100890000Y-115450000I150000J0D01*
G01*
D10*
%TO.C,L4*%
X41260000Y-117540000D02*
X41260000Y-117710000D01*
X41260000Y-123900000D02*
X41260000Y-123730000D01*
X47620000Y-117540000D02*
X41260000Y-117540000D01*
X47620000Y-117710000D02*
X47620000Y-117540000D01*
X47620000Y-123730000D02*
X47620000Y-123900000D01*
X47620000Y-123900000D02*
X41260000Y-123900000D01*
D11*
%TO.C,C5*%
X49775000Y-123120000D02*
X49775000Y-127030000D01*
X49775000Y-127030000D02*
X51645000Y-127030000D01*
X51645000Y-127030000D02*
X51645000Y-123120000D01*
D12*
%TO.C,USB1*%
X87535000Y-156417500D02*
X87535000Y-157727500D01*
X87535000Y-160167500D02*
X87535000Y-161537500D01*
X87535000Y-161537500D02*
X87555000Y-161557500D01*
X87555000Y-161557500D02*
X96355000Y-161557500D01*
X96355000Y-161557500D02*
X96405000Y-161507500D01*
X96405000Y-157717500D02*
X96405000Y-156437500D01*
X96405000Y-161507500D02*
X96405000Y-160177500D01*
D11*
%TO.C,C43*%
X117641252Y-122345000D02*
X117118748Y-122345000D01*
X117641252Y-123815000D02*
X117118748Y-123815000D01*
%TO.C,R12*%
X149807742Y-137177500D02*
X150282258Y-137177500D01*
X149807742Y-138222500D02*
X150282258Y-138222500D01*
%TO.C,C16*%
X41940000Y-107480000D02*
X41940000Y-109830000D01*
X41940000Y-114300000D02*
X41940000Y-111950000D01*
X47695563Y-107480000D02*
X41940000Y-107480000D01*
X47695563Y-114300000D02*
X41940000Y-114300000D01*
X48760000Y-108544437D02*
X47695563Y-107480000D01*
X48760000Y-108544437D02*
X48760000Y-109830000D01*
X48760000Y-113235563D02*
X47695563Y-114300000D01*
X48760000Y-113235563D02*
X48760000Y-111950000D01*
X49393750Y-113131250D02*
X49393750Y-112343750D01*
X49787500Y-112737500D02*
X49000000Y-112737500D01*
%TO.C,R26*%
X123327258Y-115962500D02*
X122852742Y-115962500D01*
X123327258Y-117007500D02*
X122852742Y-117007500D01*
D10*
%TO.C,Q1*%
X48090000Y-141330000D02*
X48090000Y-143090000D01*
X48090000Y-143090000D02*
X49140000Y-143090000D01*
X49170000Y-141330000D02*
X50090000Y-141330000D01*
X51170000Y-141330000D02*
X51170000Y-143090000D01*
X51170000Y-143090000D02*
X50120000Y-143090000D01*
D11*
%TO.C,C31*%
X111291252Y-108745000D02*
X110768748Y-108745000D01*
X111291252Y-110215000D02*
X110768748Y-110215000D01*
%TO.C,R23*%
X103872742Y-156017500D02*
X104347258Y-156017500D01*
X103872742Y-157062500D02*
X104347258Y-157062500D01*
D12*
%TO.C,D2*%
X101980000Y-112040000D02*
X101980000Y-119240000D01*
X102950000Y-112040000D02*
X101980000Y-112040000D01*
X102950000Y-119240000D02*
X101980000Y-119240000D01*
X104590000Y-115640000D02*
X105600000Y-115640000D01*
X104590000Y-116660000D02*
X105600000Y-116660000D01*
X105090000Y-115640000D02*
X104590000Y-115640000D01*
X105090000Y-115640000D02*
X104590000Y-116660000D01*
X105090000Y-117170000D02*
X105090000Y-115130000D01*
X105600000Y-116660000D02*
X105090000Y-115640000D01*
X108200000Y-112040000D02*
X107240000Y-112040000D01*
X108200000Y-112040000D02*
X108200000Y-119240000D01*
X108200000Y-114450000D02*
X101980000Y-114450000D01*
X108200000Y-119240000D02*
X107240000Y-119240000D01*
D11*
%TO.C,R18*%
X110837500Y-158772742D02*
X110837500Y-159247258D01*
X111882500Y-158772742D02*
X111882500Y-159247258D01*
%TO.C,C32*%
X102715000Y-139800000D02*
X102715000Y-142150000D01*
X102715000Y-146620000D02*
X102715000Y-144270000D01*
X108470563Y-139800000D02*
X102715000Y-139800000D01*
X108470563Y-146620000D02*
X102715000Y-146620000D01*
X109535000Y-140864437D02*
X108470563Y-139800000D01*
X109535000Y-140864437D02*
X109535000Y-142150000D01*
X109535000Y-145555563D02*
X108470563Y-146620000D01*
X109535000Y-145555563D02*
X109535000Y-144270000D01*
X110168750Y-145451250D02*
X110168750Y-144663750D01*
X110562500Y-145057500D02*
X109775000Y-145057500D01*
%TO.C,C40*%
X97315000Y-109008748D02*
X97315000Y-109531252D01*
X98785000Y-109008748D02*
X98785000Y-109531252D01*
%TO.C,R3*%
X85467500Y-149862742D02*
X85467500Y-150337258D01*
X86512500Y-149862742D02*
X86512500Y-150337258D01*
%TO.C,C33*%
X108425000Y-159111252D02*
X108425000Y-158588748D01*
X109895000Y-159111252D02*
X109895000Y-158588748D01*
%TO.C,C21*%
X148615000Y-110148748D02*
X148615000Y-110671252D01*
X150085000Y-110148748D02*
X150085000Y-110671252D01*
%TO.C,C39*%
X111251252Y-114995000D02*
X110728748Y-114995000D01*
X111251252Y-116465000D02*
X110728748Y-116465000D01*
%TO.C,R6*%
X45087258Y-148177500D02*
X44612742Y-148177500D01*
X45087258Y-149222500D02*
X44612742Y-149222500D01*
D15*
%TO.C,U5*%
X106885000Y-151160000D02*
X107335000Y-151160000D01*
X106885000Y-151610000D02*
X106885000Y-151160000D01*
X106885000Y-154610000D02*
X106885000Y-154160000D01*
X107335000Y-154610000D02*
X106885000Y-154610000D01*
X110335000Y-151160000D02*
X109885000Y-151160000D01*
X110335000Y-151610000D02*
X110335000Y-151160000D01*
X110335000Y-154160000D02*
X110335000Y-154610000D01*
X110335000Y-154610000D02*
X109885000Y-154610000D01*
D14*
X107085001Y-154960000D02*
G75*
G02*
X107084999Y-154960000I-1J0D01*
G01*
X107084999Y-154960000D02*
G75*
G02*
X107085001Y-154960000I1J0D01*
G01*
D11*
%TO.C,C14*%
X44568748Y-143395000D02*
X45091252Y-143395000D01*
X44568748Y-144865000D02*
X45091252Y-144865000D01*
%TO.C,C24*%
X145405000Y-108577500D02*
X145405000Y-112487500D01*
X145405000Y-112487500D02*
X147275000Y-112487500D01*
X147275000Y-112487500D02*
X147275000Y-108577500D01*
%TO.C,R14*%
X99767500Y-108267742D02*
X99767500Y-108742258D01*
X100812500Y-108267742D02*
X100812500Y-108742258D01*
%TO.C,R27*%
X121527500Y-119362258D02*
X121527500Y-118887742D01*
X122572500Y-119362258D02*
X122572500Y-118887742D01*
%TO.C,C37*%
X120681252Y-149125000D02*
X120158748Y-149125000D01*
X120681252Y-150595000D02*
X120158748Y-150595000D01*
%TO.C,C7*%
X95108748Y-147005000D02*
X95631252Y-147005000D01*
X95108748Y-148475000D02*
X95631252Y-148475000D01*
%TO.C,C29*%
X108810000Y-106285000D02*
X108810000Y-108155000D01*
X108810000Y-108155000D02*
X112720000Y-108155000D01*
X112720000Y-106285000D02*
X108810000Y-106285000D01*
D12*
%TO.C,L2*%
X105810000Y-123970000D02*
X107030000Y-123970000D01*
X105810000Y-123980000D02*
X105810000Y-123970000D01*
X105810000Y-130970000D02*
X105810000Y-123980000D01*
X107030000Y-130970000D02*
X105810000Y-130970000D01*
X111200000Y-123970000D02*
X112410000Y-123970000D01*
X112410000Y-123970000D02*
X112410000Y-130950000D01*
X112410000Y-130950000D02*
X112390000Y-130970000D01*
X112410000Y-130970000D02*
X111200000Y-130970000D01*
D11*
%TO.C,C26*%
X123435000Y-122200000D02*
X123435000Y-126110000D01*
X125305000Y-122200000D02*
X123435000Y-122200000D01*
X125305000Y-126110000D02*
X125305000Y-122200000D01*
%TO.C,C13*%
X44618748Y-140925000D02*
X45141252Y-140925000D01*
X44618748Y-142395000D02*
X45141252Y-142395000D01*
%TO.C,C36*%
X120741252Y-155085000D02*
X120218748Y-155085000D01*
X120741252Y-156555000D02*
X120218748Y-156555000D01*
%TO.C,C44*%
X96160000Y-129574437D02*
X96160000Y-135330000D01*
X96160000Y-135330000D02*
X98510000Y-135330000D01*
X97224437Y-128510000D02*
X96160000Y-129574437D01*
X97224437Y-128510000D02*
X98510000Y-128510000D01*
X101417500Y-127482500D02*
X101417500Y-128270000D01*
X101811250Y-127876250D02*
X101023750Y-127876250D01*
X101915563Y-128510000D02*
X100630000Y-128510000D01*
X101915563Y-128510000D02*
X102980000Y-129574437D01*
X102980000Y-129574437D02*
X102980000Y-135330000D01*
X102980000Y-135330000D02*
X100630000Y-135330000D01*
%TO.C,C35*%
X120218748Y-152075000D02*
X120741252Y-152075000D01*
X120218748Y-153545000D02*
X120741252Y-153545000D01*
%TO.C,R16*%
X112382742Y-153687500D02*
X112857258Y-153687500D01*
X112382742Y-154732500D02*
X112857258Y-154732500D01*
%TO.C,C10*%
X45741252Y-125485000D02*
X45218748Y-125485000D01*
X45741252Y-126955000D02*
X45218748Y-126955000D01*
%TO.C,C15*%
X44568748Y-145855000D02*
X45091252Y-145855000D01*
X44568748Y-147325000D02*
X45091252Y-147325000D01*
D12*
%TO.C,LED1*%
X149745000Y-138780000D02*
X149745000Y-139000000D01*
X149945000Y-139880000D02*
X150545000Y-139880000D01*
X150035000Y-139280000D02*
X150035000Y-139880000D01*
X150545000Y-139280000D02*
X149945000Y-139280000D01*
X150725000Y-138780000D02*
X149745000Y-138780000D01*
X150725000Y-138780000D02*
X150725000Y-139000000D01*
D11*
%TO.C,C30*%
X114820000Y-107380000D02*
X117170000Y-107380000D01*
X114820000Y-113135563D02*
X114820000Y-107380000D01*
X115884437Y-114200000D02*
X114820000Y-113135563D01*
X115884437Y-114200000D02*
X117170000Y-114200000D01*
X115988750Y-114833750D02*
X116776250Y-114833750D01*
X116382500Y-115227500D02*
X116382500Y-114440000D01*
X120575563Y-114200000D02*
X119290000Y-114200000D01*
X120575563Y-114200000D02*
X121640000Y-113135563D01*
X121640000Y-107380000D02*
X119290000Y-107380000D01*
X121640000Y-113135563D02*
X121640000Y-107380000D01*
%TO.C,R7*%
X71257258Y-150257500D02*
X70782742Y-150257500D01*
X71257258Y-151302500D02*
X70782742Y-151302500D01*
%TO.C,C23*%
X134071252Y-136785000D02*
X133548748Y-136785000D01*
X134071252Y-138255000D02*
X133548748Y-138255000D01*
%TO.C,C6*%
X95188748Y-144405000D02*
X95711252Y-144405000D01*
X95188748Y-145875000D02*
X95711252Y-145875000D01*
%TO.C,C22*%
X125401252Y-135895000D02*
X124878748Y-135895000D01*
X125401252Y-137365000D02*
X124878748Y-137365000D01*
D12*
%TO.C,FPC1*%
X51950000Y-147767500D02*
X54010000Y-147767500D01*
X51950000Y-148567500D02*
X51950000Y-147767500D01*
X51950000Y-152677500D02*
X51950000Y-151537500D01*
X51950000Y-152677500D02*
X51950000Y-152957500D01*
X51950000Y-152957500D02*
X66350000Y-152957500D01*
X66350000Y-147747500D02*
X64370000Y-147747500D01*
X66350000Y-148567500D02*
X66350000Y-147747500D01*
X66350000Y-152677500D02*
X66350000Y-151537500D01*
X66350000Y-152677500D02*
X66350000Y-152957500D01*
X70550000Y-156717500D02*
X72470000Y-156717500D01*
X70550000Y-157997500D02*
X70550000Y-156717500D01*
X70550000Y-161037500D02*
X70550000Y-160467500D01*
X70550000Y-161037500D02*
X77650000Y-161037500D01*
X77650000Y-156717500D02*
X75730000Y-156717500D01*
X77650000Y-157957500D02*
X77650000Y-156717500D01*
X77650000Y-161037500D02*
X77650000Y-160467500D01*
D16*
X35650000Y-95767500D02*
X91650000Y-95767500D01*
X91650000Y-184767500D01*
X35650000Y-184767500D01*
X35650000Y-95767500D01*
D14*
X53970000Y-147247500D02*
G75*
G02*
X53670000Y-147247500I-150000J0D01*
G01*
X53670000Y-147247500D02*
G75*
G02*
X53970000Y-147247500I150000J0D01*
G01*
D12*
X72400000Y-156277500D02*
G75*
G02*
X72140000Y-156277500I-130000J0D01*
G01*
X72140000Y-156277500D02*
G75*
G02*
X72400000Y-156277500I130000J0D01*
G01*
D10*
%TO.C,D1*%
X110290000Y-119860000D02*
X110290000Y-119770000D01*
X110290000Y-119910000D02*
X110290000Y-119860000D01*
X110300000Y-117350000D02*
X110300000Y-117260000D01*
X110310000Y-117420000D02*
X110310000Y-117370000D01*
D17*
X111690000Y-118590000D02*
X112960000Y-118590000D01*
X111940000Y-118210000D02*
X112700000Y-118590000D01*
X111940000Y-118590000D02*
X111940000Y-118210000D01*
X111940000Y-118590000D02*
X111940000Y-118980000D01*
X111940000Y-118980000D02*
X112700000Y-118590000D01*
X112700000Y-118590000D02*
X112700000Y-118210000D01*
X112700000Y-118590000D02*
X112700000Y-118980000D01*
D10*
X113120000Y-119950000D02*
X113120000Y-117250000D01*
X114560000Y-117250000D02*
X110320000Y-117260000D01*
X114560000Y-119950000D02*
X110310000Y-119960000D01*
D12*
%TO.C,U2*%
X65490000Y-99037500D02*
X65490000Y-105487500D01*
X65490000Y-105317500D02*
X65490000Y-105827500D01*
X65490000Y-123697500D02*
X65490000Y-124537500D01*
X65490000Y-124537500D02*
X68090000Y-124537500D01*
X80890000Y-124537500D02*
X83510000Y-124537500D01*
X83490000Y-99037500D02*
X65490000Y-99037500D01*
X83490000Y-99037500D02*
X83490000Y-105497500D01*
X83490000Y-105317500D02*
X65490000Y-105317500D01*
X83510000Y-105827500D02*
X83510000Y-105317500D01*
X83510000Y-124537500D02*
X83510000Y-123697500D01*
%TD*%
M02*
